<?xml version="1.0" encoding="utf-8"?>
<!-- Generator: Adobe Illustrator 25.2.3, SVG Export Plug-In . SVG Version: 6.00 Build 0)  -->
<svg version="1.1" id="Layer_1" xmlns="http://www.w3.org/2000/svg" xmlns:xlink="http://www.w3.org/1999/xlink" x="0px" y="0px"
	 viewBox="0 0 640 640" style="enable-background:new 0 0 640 640;" xml:space="preserve">
<style type="text/css">
	.st0{opacity:5.000000e-02;fill-rule:evenodd;clip-rule:evenodd;fill:#231F20;}
	.st1{fill-rule:evenodd;clip-rule:evenodd;fill:url(#SVGID_1_);stroke:#FFFFFF;stroke-width:2.8346;stroke-miterlimit:22.9256;}
	.st2{fill-rule:evenodd;clip-rule:evenodd;fill:url(#SVGID_2_);stroke:#FFFFFF;stroke-width:2.126;stroke-miterlimit:22.9256;}
	.st3{fill-rule:evenodd;clip-rule:evenodd;fill:url(#SVGID_3_);}
	.st4{fill-rule:evenodd;clip-rule:evenodd;fill:url(#SVGID_4_);stroke:#FFFFFF;stroke-width:2.126;stroke-miterlimit:22.9256;}
	.st5{fill-rule:evenodd;clip-rule:evenodd;fill:url(#SVGID_5_);}
	.st6{fill-rule:evenodd;clip-rule:evenodd;fill:url(#SVGID_6_);stroke:#FFFFFF;stroke-width:2.126;stroke-miterlimit:22.9256;}
	.st7{fill-rule:evenodd;clip-rule:evenodd;fill:url(#SVGID_7_);}
	.st8{fill-rule:evenodd;clip-rule:evenodd;fill:url(#SVGID_8_);stroke:#FFFFFF;stroke-width:2.126;stroke-miterlimit:22.9256;}
	.st9{fill-rule:evenodd;clip-rule:evenodd;fill:url(#SVGID_9_);}
	.st10{fill:#27376E;}
	.st11{fill:#6A8DC6;}
	.st12{fill:#FFFFFF;}
</style>
<ellipse transform="matrix(0.7071 -0.7071 0.7071 0.7071 -132.548 319.9999)" class="st0" cx="320" cy="320" rx="173.6" ry="173.6"/>
<radialGradient id="SVGID_1_" cx="320.0002" cy="319.9997" r="159.9938" gradientUnits="userSpaceOnUse">
	<stop  offset="0" style="stop-color:#FFFFFF"/>
	<stop  offset="0.5" style="stop-color:#DCDDDE"/>
	<stop  offset="1" style="stop-color:#BCBEC0"/>
</radialGradient>
<circle class="st1" cx="320" cy="320" r="160"/>
<radialGradient id="SVGID_2_" cx="505.8213" cy="320.0003" r="97.2899" gradientUnits="userSpaceOnUse">
	<stop  offset="0" style="stop-color:#6A8CC3"/>
	<stop  offset="0.495" style="stop-color:#365D93"/>
	<stop  offset="1" style="stop-color:#27376E"/>
</radialGradient>
<circle class="st2" cx="505.8" cy="320" r="97.3"/>
<linearGradient id="SVGID_3_" gradientUnits="userSpaceOnUse" x1="544.7027" y1="192.6482" x2="544.7027" y2="446.8416">
	<stop  offset="0" style="stop-color:#6A8CC3"/>
	<stop  offset="0.4898" style="stop-color:#365D93"/>
	<stop  offset="1" style="stop-color:#27376E"/>
</linearGradient>
<path class="st3" d="M505.8,207.2c62.3,0,112.8,50.5,112.8,112.8c0,62.3-50.5,112.8-112.8,112.8c-8.6,0-17-1-25-2.8v-10l-26.6,18.7
	l26.6,18.7v-9.6c8.1,1.6,16.4,2.4,25,2.4c71.9,0,130.2-58.3,130.2-130.2c0-71.9-58.3-130.2-130.2-130.2c-18.7,0-36.4,3.9-52.4,11
	c4,4.5,7.8,9.2,11.4,14.1C477.5,210,491.3,207.2,505.8,207.2z"/>
<radialGradient id="SVGID_4_" cx="319.9997" cy="505.8209" r="97.2898" gradientUnits="userSpaceOnUse">
	<stop  offset="0" style="stop-color:#6A8CC3"/>
	<stop  offset="0.495" style="stop-color:#365D93"/>
	<stop  offset="1" style="stop-color:#27376E"/>
</radialGradient>
<circle class="st4" cx="320" cy="505.8" r="97.3"/>
<linearGradient id="SVGID_5_" gradientUnits="userSpaceOnUse" x1="182.5939" y1="544.7027" x2="450.1884" y2="544.7027">
	<stop  offset="0" style="stop-color:#6A8CC3"/>
	<stop  offset="0.495" style="stop-color:#365D93"/>
	<stop  offset="1" style="stop-color:#27376E"/>
</linearGradient>
<path class="st5" d="M432.8,505.8c0,62.3-50.5,112.8-112.8,112.8c-62.3,0-112.8-50.5-112.8-112.8c0-8.6,1-17,2.8-25h10l-18.7-26.6
	l-18.7,26.6h9.6c-1.6,8.1-2.4,16.4-2.4,25c0,71.9,58.3,130.2,130.2,130.2c71.9,0,130.2-58.3,130.2-130.2c0-18.7-3.9-36.4-11-52.4
	c-4.5,4-9.2,7.8-14.1,11.4C430,477.5,432.8,491.3,432.8,505.8z"/>
<radialGradient id="SVGID_6_" cx="134.1789" cy="319.9997" r="97.2898" gradientUnits="userSpaceOnUse">
	<stop  offset="0" style="stop-color:#6A8CC3"/>
	<stop  offset="0.495" style="stop-color:#365D93"/>
	<stop  offset="1" style="stop-color:#27376E"/>
</radialGradient>
<circle class="st6" cx="134.2" cy="320" r="97.3"/>
<linearGradient id="SVGID_7_" gradientUnits="userSpaceOnUse" x1="95.2973" y1="441.399" x2="95.2973" y2="191.9904">
	<stop  offset="0" style="stop-color:#6A8CC3"/>
	<stop  offset="0.505" style="stop-color:#365D93"/>
	<stop  offset="1" style="stop-color:#27376E"/>
</linearGradient>
<path class="st7" d="M134.2,432.8c-62.3,0-112.8-50.5-112.8-112.8c0-62.3,50.5-112.8,112.8-112.8c8.6,0,17,1,25,2.8v10l26.6-18.7
	l-26.6-18.7v9.6c-8.1-1.6-16.4-2.4-25-2.4C62.3,189.8,4,248.1,4,320c0,71.9,58.3,130.2,130.2,130.2c18.7,0,36.4-3.9,52.4-11
	c-4-4.5-7.8-9.2-11.4-14.1C162.5,430,148.7,432.8,134.2,432.8z"/>
<radialGradient id="SVGID_8_" cx="320.0003" cy="134.1791" r="97.2898" gradientUnits="userSpaceOnUse">
	<stop  offset="0" style="stop-color:#6A8CC3"/>
	<stop  offset="0.495" style="stop-color:#365D93"/>
	<stop  offset="1" style="stop-color:#27376E"/>
</radialGradient>
<circle class="st8" cx="320" cy="134.2" r="97.3"/>
<linearGradient id="SVGID_9_" gradientUnits="userSpaceOnUse" x1="189.8116" y1="95.2973" x2="457.4059" y2="95.2973">
	<stop  offset="0" style="stop-color:#6A8CC3"/>
	<stop  offset="0.495" style="stop-color:#365D93"/>
	<stop  offset="1" style="stop-color:#27376E"/>
</linearGradient>
<path class="st9" d="M207.2,134.2c0-62.3,50.5-112.8,112.8-112.8c62.3,0,112.8,50.5,112.8,112.8c0,8.6-1,17-2.8,25h-10l18.7,26.6
	l18.7-26.6h-9.6c1.6-8.1,2.4-16.4,2.4-25C450.2,62.3,391.9,4,320,4c-71.9,0-130.2,58.3-130.2,130.2c0,18.7,3.9,36.4,11,52.4
	c4.5-4,9.2-7.8,14.1-11.4C210,162.5,207.2,148.7,207.2,134.2z"/>
<g>
	<path class="st10" d="M283.5,312.2h-3.7v-7.6h-7v7.6h-3.7v-17.6h3.7v6.9h7v-6.9h3.7V312.2z"/>
	<path class="st10" d="M303.9,303.4c0,2.9-0.7,5.1-2.2,6.7s-3.5,2.3-6.2,2.3c-2.7,0-4.8-0.8-6.2-2.3s-2.2-3.8-2.2-6.7
		s0.7-5.2,2.2-6.7s3.5-2.3,6.2-2.3s4.8,0.8,6.2,2.3C303.2,298.2,303.9,300.4,303.9,303.4z M291.1,303.4c0,2,0.4,3.4,1.1,4.4
		c0.7,1,1.9,1.5,3.3,1.5c3,0,4.5-2,4.5-5.9c0-4-1.5-5.9-4.4-5.9c-1.5,0-2.6,0.5-3.4,1.5S291.1,301.4,291.1,303.4z"/>
	<path class="st10" d="M324.7,312.2h-4.2l-2.4-9.2c-0.1-0.3-0.2-1-0.5-2c-0.2-1-0.3-1.7-0.4-2.1c0,0.4-0.2,1.1-0.4,2.1
		s-0.3,1.6-0.4,2.1l-2.4,9.2h-4.2l-4.5-17.6h3.7l2.2,9.6c0.4,1.8,0.7,3.3,0.9,4.6c0-0.5,0.2-1.2,0.3-2.1c0.2-1,0.3-1.7,0.5-2.2
		l2.6-9.8h3.5l2.6,9.8c0.1,0.4,0.3,1.1,0.4,2c0.2,0.9,0.3,1.7,0.4,2.3c0.1-0.6,0.2-1.4,0.4-2.3c0.2-0.9,0.3-1.7,0.5-2.3l2.2-9.6h3.7
		L324.7,312.2z"/>
	<path class="st10" d="M354.9,312.2h-4.2l-2.4-9.2c-0.1-0.3-0.2-1-0.5-2c-0.2-1-0.3-1.7-0.4-2.1c0,0.4-0.2,1.1-0.4,2.1
		s-0.3,1.6-0.4,2.1l-2.4,9.2H340l-4.5-17.6h3.7l2.2,9.6c0.4,1.8,0.7,3.3,0.9,4.6c0-0.5,0.2-1.2,0.3-2.1c0.2-1,0.3-1.7,0.5-2.2
		l2.6-9.8h3.5l2.6,9.8c0.1,0.4,0.3,1.1,0.4,2c0.2,0.9,0.3,1.7,0.4,2.3c0.1-0.6,0.2-1.4,0.4-2.3c0.2-0.9,0.3-1.7,0.5-2.3l2.2-9.6h3.7
		L354.9,312.2z"/>
	<path class="st10" d="M371.7,312.2h-10.1v-17.6h10.1v3.1h-6.4v3.9h6v3.1h-6v4.5h6.4V312.2z"/>
	<path class="st11" d="M257.8,341.7v-17.6h3.7v17.6H257.8z"/>
	<path class="st11" d="M281.5,341.7h-4.7l-7.6-13.3H269c0.2,2.3,0.2,4,0.2,5v8.3h-3.3v-17.6h4.7l7.6,13.2h0.1
		c-0.1-2.3-0.2-3.9-0.2-4.8v-8.3h3.4V341.7z"/>
	<path class="st11" d="M301.6,341.7h-4.7l-7.6-13.3h-0.1c0.2,2.3,0.2,4,0.2,5v8.3H286v-17.6h4.7l7.6,13.2h0.1
		c-0.1-2.3-0.2-3.9-0.2-4.8v-8.3h3.4V341.7z"/>
	<path class="st11" d="M321.9,332.9c0,2.9-0.7,5.1-2.2,6.7s-3.5,2.3-6.2,2.3c-2.7,0-4.8-0.8-6.2-2.3s-2.2-3.8-2.2-6.7
		c0-2.9,0.7-5.2,2.2-6.7c1.4-1.5,3.5-2.3,6.2-2.3s4.8,0.8,6.2,2.3C321.2,327.8,321.9,330,321.9,332.9z M309.1,332.9
		c0,2,0.4,3.4,1.1,4.4c0.7,1,1.9,1.5,3.3,1.5c3,0,4.5-2,4.5-5.9c0-4-1.5-5.9-4.4-5.9c-1.5,0-2.6,0.5-3.4,1.5
		S309.1,330.9,309.1,332.9z"/>
	<path class="st11" d="M335.6,324.1h3.8l-6,17.6h-4.1l-6-17.6h3.8l3.3,10.5c0.2,0.6,0.4,1.3,0.6,2.2c0.2,0.8,0.3,1.4,0.4,1.7
		c0.1-0.7,0.4-2,0.9-3.9L335.6,324.1z"/>
	<path class="st11" d="M352.4,341.7l-1.3-4.2h-6.4l-1.3,4.2h-4l6.2-17.7h4.6l6.2,17.7H352.4z M350.2,334.4c-1.2-3.8-1.8-5.9-2-6.4
		c-0.1-0.5-0.3-0.9-0.3-1.2c-0.3,1-1,3.6-2.3,7.6H350.2z"/>
	<path class="st11" d="M365.4,341.7h-3.7v-14.5h-4.8v-3.1h13.3v3.1h-4.8V341.7z"/>
	<path class="st11" d="M383,341.7h-10.1v-17.6H383v3.1h-6.4v3.9h6v3.1h-6v4.5h6.4V341.7z"/>
</g>
<g>
	<path class="st12" d="M275.4,116.9c-1.1,0-1.9,0.4-2.5,1.2c-0.6,0.8-0.9,1.9-0.9,3.4c0,3,1.1,4.5,3.4,4.5c1,0,2.1-0.2,3.5-0.7v2.4
		c-1.1,0.5-2.4,0.7-3.7,0.7c-2,0-3.5-0.6-4.5-1.8c-1-1.2-1.6-2.9-1.6-5.2c0-1.4,0.3-2.6,0.8-3.7c0.5-1.1,1.3-1.9,2.2-2.4
		c1-0.6,2.1-0.8,3.4-0.8c1.3,0,2.6,0.3,4,1l-0.9,2.3c-0.5-0.2-1-0.5-1.5-0.6C276.4,117,275.9,116.9,275.4,116.9z"/>
	<path class="st12" d="M292.8,114.7v8.8c0,1-0.2,1.9-0.7,2.6c-0.4,0.8-1.1,1.3-1.9,1.7c-0.8,0.4-1.8,0.6-3,0.6
		c-1.7,0-3.1-0.4-4.1-1.3c-1-0.9-1.4-2.1-1.4-3.7v-8.7h2.9v8.3c0,1,0.2,1.8,0.6,2.3c0.4,0.5,1.1,0.7,2.1,0.7c0.9,0,1.6-0.2,2-0.7
		c0.4-0.5,0.6-1.3,0.6-2.3v-8.3H292.8z"/>
	<path class="st12" d="M304.1,124.5c0,1.2-0.4,2.2-1.3,2.9c-0.9,0.7-2.1,1.1-3.7,1.1c-1.4,0-2.7-0.3-3.8-0.8v-2.7
		c0.9,0.4,1.7,0.7,2.3,0.9c0.6,0.2,1.2,0.3,1.7,0.3c0.6,0,1.1-0.1,1.5-0.4c0.3-0.2,0.5-0.6,0.5-1.1c0-0.3-0.1-0.5-0.2-0.7
		c-0.1-0.2-0.4-0.4-0.7-0.6c-0.3-0.2-0.9-0.5-1.8-0.9c-0.8-0.4-1.5-0.8-1.9-1.1c-0.4-0.4-0.7-0.8-1-1.3c-0.2-0.5-0.4-1-0.4-1.7
		c0-1.2,0.4-2.1,1.2-2.8c0.8-0.7,1.9-1,3.4-1c0.7,0,1.4,0.1,2,0.3c0.6,0.2,1.3,0.4,2,0.7l-0.9,2.2c-0.7-0.3-1.3-0.5-1.8-0.6
		c-0.5-0.1-0.9-0.2-1.4-0.2c-0.5,0-1,0.1-1.3,0.4c-0.3,0.3-0.4,0.6-0.4,1c0,0.3,0.1,0.5,0.2,0.7c0.1,0.2,0.3,0.4,0.6,0.5
		c0.3,0.2,0.9,0.5,1.8,1c1.3,0.6,2.1,1.2,2.6,1.8C303.9,122.8,304.1,123.6,304.1,124.5z"/>
	<path class="st12" d="M311.8,128.2h-2.9v-11.2h-3.7v-2.4h10.2v2.4h-3.7V128.2z"/>
	<path class="st12" d="M329.9,121.4c0,2.2-0.6,4-1.7,5.2s-2.7,1.8-4.8,1.8s-3.7-0.6-4.8-1.8s-1.7-2.9-1.7-5.2c0-2.3,0.6-4,1.7-5.2
		c1.1-1.2,2.7-1.8,4.8-1.8c2.1,0,3.7,0.6,4.8,1.8C329.3,117.5,329.9,119.2,329.9,121.4z M320,121.4c0,1.5,0.3,2.7,0.9,3.4
		c0.6,0.8,1.4,1.2,2.6,1.2c2.3,0,3.4-1.5,3.4-4.6c0-3.1-1.1-4.6-3.4-4.6c-1.1,0-2,0.4-2.6,1.2C320.3,118.8,320,119.9,320,121.4z"/>
	<path class="st12" d="M338.4,128.2l-3.3-10.6h-0.1c0.1,2.2,0.2,3.6,0.2,4.3v6.3h-2.6v-13.6h3.9l3.2,10.4h0.1l3.4-10.4h3.9v13.6
		h-2.7v-6.4c0-0.3,0-0.7,0-1c0-0.4,0.1-1.4,0.1-3.2h-0.1l-3.5,10.6H338.4z"/>
	<path class="st12" d="M358.4,128.2h-7.8v-13.6h7.8v2.4h-4.9v3h4.6v2.4h-4.6v3.5h4.9V128.2z"/>
	<path class="st12" d="M364.1,123v5.2h-2.9v-13.6h4c1.8,0,3.2,0.3,4.1,1c0.9,0.7,1.3,1.7,1.3,3.1c0,0.8-0.2,1.5-0.7,2.1
		c-0.4,0.6-1.1,1.1-1.9,1.5c2,3,3.4,5,4,5.9h-3.2l-3.2-5.2H364.1z M364.1,120.7h0.9c0.9,0,1.6-0.2,2-0.5c0.4-0.3,0.7-0.8,0.7-1.4
		c0-0.6-0.2-1.1-0.7-1.4c-0.4-0.3-1.1-0.4-2.1-0.4h-0.9V120.7z"/>
	<path class="st12" d="M274.1,151h-7.7v-13.6h7.7v1.9h-5.5v3.7h5.1v1.9h-5.1v4.3h5.5V151z"/>
	<path class="st12" d="M287,151h-2.6l-3.4-5.5l-3.4,5.5h-2.4l4.5-7l-4.2-6.5h2.5l3.1,5.1l3.1-5.1h2.4l-4.2,6.6L287,151z"/>
	<path class="st12" d="M297.8,141.6c0,1.4-0.5,2.5-1.4,3.3c-0.9,0.8-2.2,1.1-4,1.1H291v5.1h-2.2v-13.6h3.9c1.7,0,3,0.3,3.8,1
		C297.4,139.2,297.8,140.2,297.8,141.6z M291,144.1h1.2c1.1,0,2-0.2,2.5-0.6c0.5-0.4,0.8-1,0.8-1.9c0-0.8-0.2-1.4-0.7-1.7
		c-0.5-0.4-1.2-0.6-2.2-0.6H291V144.1z"/>
	<path class="st12" d="M308.2,151h-7.7v-13.6h7.7v1.9h-5.5v3.7h5.1v1.9h-5.1v4.3h5.5V151z"/>
	<path class="st12" d="M313.3,145.6v5.4h-2.2v-13.6h3.8c1.8,0,3,0.3,3.9,1c0.8,0.7,1.3,1.6,1.3,3c0,1.7-0.9,2.9-2.6,3.6l3.8,6h-2.5
		l-3.2-5.4H313.3z M313.3,143.8h1.5c1,0,1.8-0.2,2.2-0.6c0.5-0.4,0.7-1,0.7-1.7c0-0.8-0.2-1.3-0.8-1.7s-1.3-0.5-2.3-0.5h-1.5V143.8z
		"/>
	<path class="st12" d="M323.3,151v-13.6h2.2V151H323.3z"/>
	<path class="st12" d="M336.7,151h-7.7v-13.6h7.7v1.9h-5.5v3.7h5.1v1.9h-5.1v4.3h5.5V151z"/>
	<path class="st12" d="M351,151h-2.7l-6.7-10.8h-0.1l0,0.6c0.1,1.2,0.1,2.2,0.1,3.2v7.1h-2v-13.6h2.7l6.7,10.8h0.1
		c0-0.1,0-0.7-0.1-1.6c0-0.9-0.1-1.6-0.1-2.1v-7.1h2V151z"/>
	<path class="st12" d="M360.3,139.2c-1.3,0-2.3,0.5-3,1.4c-0.7,0.9-1.1,2.1-1.1,3.7c0,1.7,0.4,2.9,1.1,3.8c0.7,0.9,1.7,1.3,3,1.3
		c0.6,0,1.1-0.1,1.7-0.2c0.5-0.1,1.1-0.3,1.7-0.4v1.9c-1.1,0.4-2.3,0.6-3.6,0.6c-2,0-3.5-0.6-4.6-1.8c-1.1-1.2-1.6-2.9-1.6-5.2
		c0-1.4,0.3-2.6,0.8-3.7c0.5-1.1,1.3-1.9,2.2-2.4c1-0.6,2.1-0.8,3.4-0.8c1.4,0,2.7,0.3,3.8,0.9l-0.8,1.8c-0.5-0.2-0.9-0.4-1.5-0.6
		C361.4,139.3,360.9,139.2,360.3,139.2z"/>
	<path class="st12" d="M374.3,151h-7.7v-13.6h7.7v1.9h-5.5v3.7h5.1v1.9h-5.1v4.3h5.5V151z"/>
</g>
<g>
	<path class="st12" d="M478.1,314.1h-2.8v-13.6h7.8v2.4h-4.9v3.5h4.6v2.3h-4.6V314.1z"/>
	<path class="st12" d="M488.6,308.9v5.2h-2.9v-13.6h4c1.8,0,3.2,0.3,4.1,1c0.9,0.7,1.3,1.7,1.3,3.1c0,0.8-0.2,1.5-0.7,2.1
		c-0.4,0.6-1.1,1.1-1.9,1.5c2,3,3.4,5,4,5.9h-3.2l-3.2-5.2H488.6z M488.6,306.5h0.9c0.9,0,1.6-0.2,2-0.5c0.4-0.3,0.7-0.8,0.7-1.4
		c0-0.6-0.2-1.1-0.7-1.4c-0.4-0.3-1.1-0.4-2.1-0.4h-0.9V306.5z"/>
	<path class="st12" d="M506.5,314.1l-1-3.2h-4.9l-1,3.2h-3.1l4.8-13.6h3.5l4.8,13.6H506.5z M504.9,308.4c-0.9-2.9-1.4-4.6-1.5-5
		c-0.1-0.4-0.2-0.7-0.2-0.9c-0.2,0.8-0.8,2.7-1.8,5.9H504.9z"/>
	<path class="st12" d="M522.4,300.5v8.8c0,1-0.2,1.9-0.7,2.6c-0.4,0.8-1.1,1.3-1.9,1.7c-0.8,0.4-1.8,0.6-3,0.6
		c-1.7,0-3.1-0.4-4.1-1.3c-1-0.9-1.4-2.1-1.4-3.7v-8.7h2.9v8.3c0,1,0.2,1.8,0.6,2.3c0.4,0.5,1.1,0.7,2.1,0.7c0.9,0,1.6-0.2,2-0.7
		c0.4-0.5,0.6-1.3,0.6-2.3v-8.3H522.4z"/>
	<path class="st12" d="M537,307.1c0,2.2-0.6,3.9-1.9,5.1c-1.3,1.2-3.1,1.8-5.5,1.8h-3.8v-13.6h4.3c2.2,0,3.9,0.6,5.2,1.8
		S537,305.1,537,307.1z M534,307.2c0-2.9-1.3-4.4-3.9-4.4h-1.5v8.8h1.2C532.6,311.7,534,310.2,534,307.2z"/>
	<path class="st12" d="M457.5,327.4c0,1.4-0.5,2.5-1.4,3.3c-0.9,0.8-2.2,1.1-4,1.1h-1.4v5.1h-2.2v-13.6h3.9c1.7,0,3,0.3,3.8,1
		C457.1,325,457.5,326,457.5,327.4z M450.8,329.9h1.2c1.1,0,2-0.2,2.5-0.6c0.5-0.4,0.8-1,0.8-1.9c0-0.8-0.2-1.4-0.7-1.7
		s-1.2-0.6-2.2-0.6h-1.5V329.9z"/>
	<path class="st12" d="M462.5,331.4v5.4h-2.2v-13.6h3.8c1.8,0,3,0.3,3.9,1c0.8,0.7,1.3,1.6,1.3,3c0,1.7-0.9,2.9-2.6,3.6l3.8,6h-2.5
		l-3.2-5.4H462.5z M462.5,329.6h1.5c1,0,1.8-0.2,2.2-0.6s0.7-1,0.7-1.7c0-0.8-0.2-1.3-0.8-1.7s-1.3-0.5-2.3-0.5h-1.5V329.6z"/>
	<path class="st12" d="M480.1,336.9h-7.7v-13.6h7.7v1.9h-5.5v3.7h5.1v1.9h-5.1v4.3h5.5V336.9z"/>
	<path class="st12" d="M490.7,323.3h2.3l-4.8,13.6h-2.3l-4.7-13.6h2.3l2.8,8.4c0.1,0.4,0.3,0.9,0.5,1.6c0.2,0.6,0.3,1.1,0.3,1.4
		c0.1-0.5,0.2-1,0.4-1.6c0.2-0.6,0.3-1.1,0.4-1.4L490.7,323.3z"/>
	<path class="st12" d="M502.5,336.9h-7.7v-13.6h7.7v1.9H497v3.7h5.1v1.9H497v4.3h5.5V336.9z"/>
	<path class="st12" d="M516.7,336.9H514l-6.7-10.8h-0.1l0,0.6c0.1,1.2,0.1,2.2,0.1,3.2v7.1h-2v-13.6h2.7l6.7,10.8h0.1
		c0-0.1,0-0.7-0.1-1.6s-0.1-1.6-0.1-2.1v-7.1h2V336.9z"/>
	<path class="st12" d="M525,336.9h-2.2v-11.7h-4v-1.9H529v1.9h-4V336.9z"/>
	<path class="st12" d="M531,336.9v-13.6h2.2v13.6H531z"/>
	<path class="st12" d="M548.9,330.1c0,2.2-0.6,3.9-1.7,5.1c-1.1,1.2-2.7,1.8-4.7,1.8c-2,0-3.6-0.6-4.7-1.8c-1.1-1.2-1.6-2.9-1.6-5.2
		c0-2.2,0.6-4,1.7-5.2c1.1-1.2,2.7-1.8,4.7-1.8c2,0,3.6,0.6,4.7,1.8C548.3,326.1,548.9,327.8,548.9,330.1z M538.5,330.1
		c0,1.7,0.3,2.9,1,3.8c0.7,0.9,1.7,1.3,3,1.3c1.3,0,2.3-0.4,3-1.3c0.7-0.9,1-2.1,1-3.8c0-1.7-0.3-2.9-1-3.8c-0.7-0.9-1.7-1.3-3-1.3
		c-1.3,0-2.3,0.4-3,1.3C538.9,327.1,538.5,328.4,538.5,330.1z"/>
	<path class="st12" d="M563.1,336.9h-2.7l-6.7-10.8h-0.1l0,0.6c0.1,1.2,0.1,2.2,0.1,3.2v7.1h-2v-13.6h2.7l6.7,10.8h0.1
		c0-0.1,0-0.7-0.1-1.6s-0.1-1.6-0.1-2.1v-7.1h2V336.9z"/>
</g>
<g>
	<path class="st12" d="M261.7,494.7v5.2h-2.9v-13.6h4c1.8,0,3.2,0.3,4.1,1c0.9,0.7,1.3,1.7,1.3,3.1c0,0.8-0.2,1.5-0.7,2.1
		c-0.4,0.6-1.1,1.1-1.9,1.5c2,3,3.4,5,4,5.9h-3.2l-3.2-5.2H261.7z M261.7,492.3h0.9c0.9,0,1.6-0.2,2-0.5c0.4-0.3,0.7-0.8,0.7-1.4
		c0-0.6-0.2-1.1-0.7-1.4s-1.1-0.4-2.1-0.4h-0.9V492.3z"/>
	<path class="st12" d="M279.2,499.9h-7.8v-13.6h7.8v2.4h-4.9v3h4.6v2.4h-4.6v3.5h4.9V499.9z"/>
	<path class="st12" d="M287.2,492.3h5.4v7c-0.9,0.3-1.7,0.5-2.5,0.6c-0.8,0.1-1.6,0.2-2.4,0.2c-2,0-3.6-0.6-4.7-1.8
		c-1.1-1.2-1.6-2.9-1.6-5.2c0-2.2,0.6-3.9,1.9-5.1c1.3-1.2,3-1.8,5.2-1.8c1.4,0,2.7,0.3,4,0.8l-1,2.3c-1-0.5-2-0.7-3.1-0.7
		c-1.2,0-2.2,0.4-3,1.3c-0.7,0.8-1.1,2-1.1,3.4c0,1.5,0.3,2.6,0.9,3.4c0.6,0.8,1.5,1.2,2.6,1.2c0.6,0,1.2-0.1,1.8-0.2v-2.8h-2.6
		V492.3z"/>
	<path class="st12" d="M306.9,486.3v8.8c0,1-0.2,1.9-0.7,2.6s-1.1,1.3-1.9,1.7s-1.8,0.6-3,0.6c-1.7,0-3.1-0.4-4.1-1.3
		c-1-0.9-1.4-2.1-1.4-3.7v-8.7h2.9v8.3c0,1,0.2,1.8,0.6,2.3c0.4,0.5,1.1,0.7,2.1,0.7c0.9,0,1.6-0.2,2-0.7c0.4-0.5,0.6-1.3,0.6-2.3
		v-8.3H306.9z"/>
	<path class="st12" d="M310.2,499.9v-13.6h2.9v11.2h5.5v2.4H310.2z"/>
	<path class="st12" d="M329.2,499.9l-1-3.2h-4.9l-1,3.2h-3.1l4.8-13.6h3.5l4.8,13.6H329.2z M327.5,494.2c-0.9-2.9-1.4-4.6-1.5-5
		c-0.1-0.4-0.2-0.7-0.2-0.9c-0.2,0.8-0.8,2.7-1.8,5.9H327.5z"/>
	<path class="st12" d="M339.3,499.9h-2.9v-11.2h-3.7v-2.4h10.2v2.4h-3.7V499.9z"/>
	<path class="st12" d="M357.3,493.1c0,2.2-0.6,4-1.7,5.2c-1.1,1.2-2.7,1.8-4.8,1.8s-3.7-0.6-4.8-1.8c-1.1-1.2-1.7-2.9-1.7-5.2
		c0-2.3,0.6-4,1.7-5.2c1.1-1.2,2.7-1.8,4.8-1.8c2.1,0,3.7,0.6,4.8,1.8C356.8,489.1,357.3,490.8,357.3,493.1z M347.4,493.1
		c0,1.5,0.3,2.7,0.9,3.4c0.6,0.8,1.4,1.2,2.6,1.2c2.3,0,3.4-1.5,3.4-4.6c0-3.1-1.1-4.6-3.4-4.6c-1.1,0-2,0.4-2.6,1.2
		C347.7,490.4,347.4,491.6,347.4,493.1z"/>
	<path class="st12" d="M363,494.7v5.2h-2.9v-13.6h4c1.8,0,3.2,0.3,4.1,1c0.9,0.7,1.3,1.7,1.3,3.1c0,0.8-0.2,1.5-0.7,2.1
		c-0.4,0.6-1.1,1.1-1.9,1.5c2,3,3.4,5,4,5.9h-3.2l-3.2-5.2H363z M363,492.3h0.9c0.9,0,1.6-0.2,2-0.5c0.4-0.3,0.7-0.8,0.7-1.4
		c0-0.6-0.2-1.1-0.7-1.4s-1.1-0.4-2.1-0.4H363V492.3z"/>
	<path class="st12" d="M376.9,491.9l2.8-5.6h3.1l-4.5,8.3v5.3h-2.9v-5.2l-4.5-8.4h3.1L376.9,491.9z"/>
	<path class="st12" d="M263.9,522.7h-2.2v-13.6h7.7v1.9h-5.5v4.2h5.1v1.9h-5.1V522.7z"/>
	<path class="st12" d="M274,517.3v5.4h-2.2v-13.6h3.8c1.8,0,3,0.3,3.9,1c0.8,0.7,1.3,1.6,1.3,3c0,1.7-0.9,2.9-2.6,3.6l3.8,6h-2.5
		l-3.2-5.4H274z M274,515.4h1.5c1,0,1.8-0.2,2.2-0.6c0.5-0.4,0.7-1,0.7-1.7c0-0.8-0.2-1.3-0.8-1.7s-1.3-0.5-2.3-0.5H274V515.4z"/>
	<path class="st12" d="M292.4,522.7l-1.4-3.8h-5.2l-1.3,3.8h-2.3l5.1-13.6h2.4l5.1,13.6H292.4z M290.4,517l-1.3-3.7
		c-0.1-0.2-0.2-0.6-0.4-1.2c-0.2-0.5-0.3-0.9-0.3-1.2c-0.2,0.8-0.4,1.6-0.7,2.5l-1.2,3.5H290.4z"/>
	<path class="st12" d="M302.4,522.7l-3.9-11.3h-0.1c0.1,1.7,0.2,3.3,0.2,4.7v6.6h-2v-13.6h3.1l3.8,10.8h0.1l3.9-10.8h3.1v13.6h-2.1
		V516c0-0.7,0-1.6,0.1-2.6s0.1-1.7,0.1-2h-0.1l-4.1,11.3H302.4z"/>
	<path class="st12" d="M321.7,522.7h-7.7v-13.6h7.7v1.9h-5.5v3.7h5.1v1.9h-5.1v4.3h5.5V522.7z"/>
	<path class="st12" d="M337.2,522.7h-2.4l-2.3-8.1c-0.1-0.4-0.2-0.9-0.4-1.5s-0.2-1.1-0.3-1.4c-0.1,0.4-0.2,0.9-0.3,1.5
		c-0.1,0.6-0.3,1.1-0.3,1.4l-2.2,8.1h-2.4l-1.8-6.8l-1.8-6.8h2.3l1.9,7.9c0.3,1.3,0.5,2.4,0.6,3.4c0.1-0.5,0.2-1.1,0.3-1.8
		s0.3-1.2,0.4-1.6l2.2-7.9h2.2l2.3,8c0.2,0.7,0.4,1.8,0.7,3.3c0.1-0.9,0.3-2,0.7-3.4l1.9-7.9h2.2L337.2,522.7z"/>
	<path class="st12" d="M354.7,515.9c0,2.2-0.6,3.9-1.7,5.1c-1.1,1.2-2.7,1.8-4.7,1.8c-2,0-3.6-0.6-4.7-1.8c-1.1-1.2-1.6-2.9-1.6-5.2
		c0-2.2,0.6-4,1.7-5.2c1.1-1.2,2.7-1.8,4.7-1.8c2,0,3.6,0.6,4.7,1.8C354.1,512,354.7,513.7,354.7,515.9z M344.3,515.9
		c0,1.7,0.3,2.9,1,3.8c0.7,0.9,1.7,1.3,3,1.3c1.3,0,2.3-0.4,3-1.3c0.7-0.9,1-2.1,1-3.8c0-1.7-0.3-2.9-1-3.8c-0.7-0.9-1.7-1.3-3-1.3
		c-1.3,0-2.3,0.4-3,1.3C344.7,513,344.3,514.2,344.3,515.9z"/>
	<path class="st12" d="M359.8,517.3v5.4h-2.2v-13.6h3.8c1.8,0,3,0.3,3.9,1c0.8,0.7,1.3,1.6,1.3,3c0,1.7-0.9,2.9-2.6,3.6l3.8,6h-2.5
		l-3.2-5.4H359.8z M359.8,515.4h1.5c1,0,1.8-0.2,2.2-0.6c0.5-0.4,0.7-1,0.7-1.7c0-0.8-0.2-1.3-0.8-1.7s-1.3-0.5-2.3-0.5h-1.5V515.4z
		"/>
	<path class="st12" d="M380.1,522.7h-2.6l-4.3-6.1l-1.3,1.1v5.1h-2.2v-13.6h2.2v6.5c0.6-0.7,1.2-1.5,1.8-2.1l3.7-4.3h2.5
		c-2.4,2.8-4.1,4.8-5.1,5.9L380.1,522.7z"/>
</g>
<g>
	<path class="st12" d="M91.4,300.5h4.2c1.9,0,3.3,0.3,4.2,0.8c0.9,0.5,1.3,1.4,1.3,2.6c0,0.8-0.2,1.5-0.6,2
		c-0.4,0.5-0.9,0.8-1.5,0.9v0.1c0.9,0.2,1.5,0.6,1.9,1.1c0.4,0.5,0.6,1.2,0.6,2.1c0,1.2-0.4,2.2-1.3,2.9c-0.9,0.7-2.1,1-3.6,1h-5.1
		V300.5z M94.2,305.9h1.7c0.8,0,1.3-0.1,1.7-0.4c0.3-0.2,0.5-0.6,0.5-1.2c0-0.5-0.2-0.9-0.6-1.1c-0.4-0.2-1-0.3-1.8-0.3h-1.5V305.9z
		 M94.2,308.1v3.5h1.9c0.8,0,1.4-0.2,1.8-0.5c0.4-0.3,0.6-0.8,0.6-1.4c0-1.1-0.8-1.7-2.4-1.7H94.2z"/>
	<path class="st12" d="M104.1,314.1v-13.6h2.9v13.6H104.1z"/>
	<path class="st12" d="M115.6,306.4h5.4v7c-0.9,0.3-1.7,0.5-2.5,0.6c-0.8,0.1-1.6,0.2-2.4,0.2c-2,0-3.6-0.6-4.7-1.8
		c-1.1-1.2-1.6-2.9-1.6-5.2c0-2.2,0.6-3.9,1.9-5.1c1.3-1.2,3-1.8,5.2-1.8c1.4,0,2.7,0.3,4,0.8l-1,2.3c-1-0.5-2-0.7-3.1-0.7
		c-1.2,0-2.2,0.4-3,1.3c-0.7,0.8-1.1,2-1.1,3.4c0,1.5,0.3,2.6,0.9,3.4c0.6,0.8,1.5,1.2,2.6,1.2c0.6,0,1.2-0.1,1.8-0.2v-2.8h-2.6
		V306.4z"/>
	<path class="st12" d="M140.4,307.1c0,2.2-0.6,3.9-1.9,5.1c-1.3,1.2-3.1,1.8-5.5,1.8h-3.8v-13.6h4.3c2.2,0,3.9,0.6,5.2,1.8
		S140.4,305.1,140.4,307.1z M137.4,307.2c0-2.9-1.3-4.4-3.9-4.4H132v8.8h1.2C136,311.7,137.4,310.2,137.4,307.2z"/>
	<path class="st12" d="M151.5,314.1l-1-3.2h-4.9l-1,3.2h-3.1l4.8-13.6h3.5l4.8,13.6H151.5z M149.8,308.4c-0.9-2.9-1.4-4.6-1.5-5
		c-0.1-0.4-0.2-0.7-0.2-0.9c-0.2,0.8-0.8,2.7-1.8,5.9H149.8z"/>
	<path class="st12" d="M161.5,314.1h-2.9v-11.2H155v-2.4h10.2v2.4h-3.7V314.1z"/>
	<path class="st12" d="M175.6,314.1l-1-3.2h-4.9l-1,3.2h-3.1l4.8-13.6h3.5l4.8,13.6H175.6z M173.9,308.4c-0.9-2.9-1.4-4.6-1.5-5
		c-0.1-0.4-0.2-0.7-0.2-0.9c-0.2,0.8-0.8,2.7-1.8,5.9H173.9z"/>
	<path class="st12" d="M94.1,336.9l-1.4-3.8h-5.2l-1.3,3.8h-2.3l5.1-13.6h2.4l5.1,13.6H94.1z M92.2,331.2l-1.3-3.7
		c-0.1-0.2-0.2-0.6-0.4-1.2c-0.2-0.5-0.3-0.9-0.3-1.2c-0.2,0.8-0.4,1.6-0.7,2.5l-1.2,3.5H92.2z"/>
	<path class="st12" d="M109.5,336.9h-2.7l-6.7-10.8h-0.1l0,0.6c0.1,1.2,0.1,2.2,0.1,3.2v7.1h-2v-13.6h2.7l6.7,10.8h0.1
		c0-0.1,0-0.7-0.1-1.6s-0.1-1.6-0.1-2.1v-7.1h2V336.9z"/>
	<path class="st12" d="M121.5,336.9l-1.4-3.8H115l-1.3,3.8h-2.3l5.1-13.6h2.4l5.1,13.6H121.5z M119.6,331.2l-1.3-3.7
		c-0.1-0.2-0.2-0.6-0.4-1.2c-0.2-0.5-0.3-0.9-0.3-1.2c-0.2,0.8-0.4,1.6-0.7,2.5l-1.2,3.5H119.6z"/>
	<path class="st12" d="M125.7,336.9v-13.6h2.2V335h5.7v1.9H125.7z"/>
	<path class="st12" d="M139.8,329.5l3.2-6.2h2.4l-4.5,8.3v5.3h-2.2v-5.2l-4.5-8.4h2.4L139.8,329.5z"/>
	<path class="st12" d="M151.9,336.9h-2.2v-11.7h-4v-1.9h10.2v1.9h-4V336.9z"/>
	<path class="st12" d="M158,336.9v-13.6h2.2v13.6H158z"/>
	<path class="st12" d="M169.5,325c-1.3,0-2.3,0.5-3,1.4c-0.7,0.9-1.1,2.1-1.1,3.7c0,1.7,0.4,2.9,1.1,3.8c0.7,0.9,1.7,1.3,3,1.3
		c0.6,0,1.1-0.1,1.7-0.2c0.5-0.1,1.1-0.3,1.7-0.4v1.9c-1.1,0.4-2.3,0.6-3.6,0.6c-2,0-3.5-0.6-4.6-1.8c-1.1-1.2-1.6-2.9-1.6-5.2
		c0-1.4,0.3-2.6,0.8-3.7c0.5-1.1,1.3-1.9,2.2-2.4s2.1-0.8,3.4-0.8c1.4,0,2.7,0.3,3.8,0.9l-0.8,1.8c-0.5-0.2-0.9-0.4-1.5-0.6
		C170.6,325.1,170.1,325,169.5,325z"/>
	<path class="st12" d="M183.6,333.2c0,1.2-0.4,2.2-1.3,2.8c-0.9,0.7-2.1,1-3.6,1s-2.8-0.2-3.8-0.7v-2.1c0.6,0.3,1.3,0.5,2,0.7
		c0.7,0.2,1.3,0.3,1.9,0.3c0.9,0,1.5-0.2,1.9-0.5c0.4-0.3,0.6-0.8,0.6-1.3c0-0.5-0.2-0.9-0.6-1.3c-0.4-0.4-1.2-0.8-2.4-1.3
		c-1.2-0.5-2.1-1.1-2.6-1.7c-0.5-0.6-0.8-1.4-0.8-2.3c0-1.1,0.4-2,1.2-2.7c0.8-0.6,1.9-1,3.2-1c1.3,0,2.6,0.3,3.9,0.9l-0.7,1.8
		c-1.2-0.5-2.3-0.8-3.2-0.8c-0.7,0-1.3,0.2-1.6,0.5c-0.4,0.3-0.6,0.7-0.6,1.2c0,0.4,0.1,0.7,0.2,0.9c0.1,0.3,0.4,0.5,0.7,0.7
		c0.3,0.2,1,0.5,1.8,0.9c1,0.4,1.7,0.8,2.2,1.2c0.5,0.4,0.8,0.8,1,1.2C183.5,332,183.6,332.6,183.6,333.2z"/>
</g>
</svg>
