<?xml version="1.0" encoding="utf-8"?>
<!-- Generator: Adobe Illustrator 25.2.1, SVG Export Plug-In . SVG Version: 6.00 Build 0)  -->
<svg version="1.1" id="Layer_1" xmlns="http://www.w3.org/2000/svg" xmlns:xlink="http://www.w3.org/1999/xlink" x="0px" y="0px"
	 viewBox="0 0 101 101" style="enable-background:new 0 0 101 101;" xml:space="preserve">
<style type="text/css">
	.st0{fill-rule:evenodd;clip-rule:evenodd;fill:#27376E;}
	.st1{fill:#6A8DC4;}
</style>
<circle class="st0" cx="50.5" cy="50.5" r="50"/>
<g>
	<path class="st1" d="M69.6,28h-9.7c-0.4,0-0.7,0.3-0.7,0.7s0.3,0.7,0.7,0.7h9.7c0.5,0,0.9,0.4,0.9,0.9v34.3c0,0.4,0.3,0.7,0.7,0.7
		c0.4,0,0.7-0.3,0.7-0.7V30.4C72,29.1,70.9,28,69.6,28L69.6,28z"/>
	<path class="st1" d="M71.2,67.1c-0.4,0-0.7,0.3-0.7,0.7v5.4c0,0.5-0.4,0.9-0.9,0.9H31.4c-0.5,0-0.9-0.4-0.9-0.9V30.4
		c0-0.5,0.4-0.9,0.9-0.9h9.7c0.4,0,0.7-0.3,0.7-0.7S41.5,28,41.1,28h-9.7c-1.3,0-2.4,1.1-2.4,2.4v42.9c0,1.3,1.1,2.4,2.4,2.4h38.2
		c1.3,0,2.4-1.1,2.4-2.4v-5.4C72,67.5,71.6,67.1,71.2,67.1z"/>
	<path class="st1" d="M41.8,31.7c0-0.4-0.3-0.7-0.7-0.7h-8.4c-0.4,0-0.7,0.3-0.7,0.7v13.9c0,0.4,0.3,0.7,0.7,0.7
		c0.4,0,0.7-0.3,0.7-0.7V32.5h7.7C41.5,32.5,41.8,32.1,41.8,31.7z"/>
	<path class="st1" d="M32,72c0,0.4,0.3,0.7,0.7,0.7h35.6c0.4,0,0.7-0.3,0.7-0.7V31.7c0-0.4-0.3-0.7-0.7-0.7h-8.4
		c-0.4,0-0.7,0.3-0.7,0.7s0.3,0.7,0.7,0.7h7.7v38.8H33.5V48.7c0-0.4-0.3-0.7-0.7-0.7c-0.4,0-0.7,0.3-0.7,0.7L32,72z"/>
	<path class="st1" d="M44.9,36.4h1.2c0.4,0,0.7-0.3,0.7-0.7s-0.3-0.7-0.7-0.7h-1.2c0,0-0.1,0-0.1-0.1v-6.3c0,0,0-0.1,0.1-0.1H48
		c0.3,0,0.6-0.2,0.7-0.5c0.3-0.7,1-1.2,1.8-1.2s1.5,0.5,1.8,1.2c0.1,0.3,0.4,0.5,0.7,0.5h3.1c0,0,0.1,0,0.1,0.1v6.3
		c0,0,0,0.1-0.1,0.1h-6.9c-0.4,0-0.7,0.3-0.7,0.7s0.3,0.7,0.7,0.7h6.9c0.9,0,1.6-0.7,1.6-1.6v-6.3c0-0.9-0.7-1.6-1.6-1.6h-2.7
		c-0.6-1-1.7-1.7-2.9-1.7S48.2,26,47.6,27h-2.7c-0.9,0-1.6,0.7-1.6,1.6v6.3C43.3,35.7,44,36.4,44.9,36.4L44.9,36.4z"/>
	<path class="st1" d="M48.4,31.7c0-0.4-0.3-0.7-0.7-0.7h-0.5c-0.4,0-0.7,0.3-0.7,0.7c0,0.4,0.3,0.7,0.7,0.7h0.5
		C48.1,32.5,48.4,32.1,48.4,31.7z"/>
	<path class="st1" d="M53.9,32.5c0.4,0,0.7-0.3,0.7-0.7c0-0.4-0.3-0.7-0.7-0.7h-0.5c-0.4,0-0.7,0.3-0.7,0.7c0,0.4,0.3,0.7,0.7,0.7
		H53.9z"/>
	<path class="st1" d="M41.8,39.6c0-0.4-0.3-0.7-0.7-0.7c-0.4,0-0.7,0.3-0.7,0.7V45c0,0.6,0.4,1,1,1h1.5c0.4,0,0.7-0.3,0.7-0.7
		s-0.3-0.7-0.7-0.7h-1.1V39.6z"/>
	<path class="st1" d="M44.7,41v2.7c0,1.2,1,2.2,2.2,2.2s2.2-1,2.2-2.2V41c0-1.2-1-2.2-2.2-2.2S44.7,39.8,44.7,41L44.7,41z M46.1,41
		c0-0.4,0.3-0.7,0.7-0.7c0.4,0,0.7,0.3,0.7,0.7v2.7c0,0.4-0.3,0.7-0.7,0.7c-0.4,0-0.7-0.3-0.7-0.7V41z"/>
	<path class="st1" d="M54.2,46c0.4,0,0.7-0.3,0.7-0.7v-4.7c0-0.9-0.8-1.7-1.7-1.7h-1c-0.9,0-1.7,0.8-1.7,1.7v4.7
		c0,0.4,0.3,0.7,0.7,0.7c0.4,0,0.7-0.3,0.7-0.7v-2h1.4v2C53.4,45.7,53.8,46,54.2,46L54.2,46z M52,41.8v-1.3c0-0.1,0.1-0.2,0.2-0.2h1
		c0.1,0,0.2,0.1,0.2,0.2v1.3H52z"/>
	<path class="st1" d="M57,38.9c-0.3,0.1-0.6,0.4-0.6,0.7v5.7c0,0.4,0.3,0.7,0.7,0.7c0.4,0,0.7-0.3,0.7-0.7v-2.4l1.3,2.7
		c0.1,0.3,0.4,0.4,0.7,0.4c0.1,0,0.1,0,0.2,0c0.3-0.1,0.6-0.4,0.6-0.7v-5.7c0-0.4-0.3-0.7-0.7-0.7c-0.4,0-0.7,0.3-0.7,0.7V42
		l-1.3-2.7C57.7,39,57.3,38.8,57,38.9L57,38.9z"/>
	<path class="st1" d="M41.3,49.3h-0.9c-0.4,0-0.7,0.3-0.7,0.7c0,0.4,0.3,0.7,0.7,0.7h0.9c0.4,0,0.7-0.3,0.7-0.7
		C42,49.6,41.7,49.3,41.3,49.3L41.3,49.3z"/>
	<path class="st1" d="M43.9,50c0,0.4,0.3,0.7,0.7,0.7h18.7c0.4,0,0.7-0.3,0.7-0.7c0-0.4-0.3-0.7-0.7-0.7H44.7
		C44.3,49.3,43.9,49.6,43.9,50L43.9,50z"/>
	<path class="st1" d="M36.8,53.7c0,0.4,0.3,0.7,0.7,0.7h25.8c0.4,0,0.7-0.3,0.7-0.7S63.8,53,63.4,53H37.6
		C37.2,53,36.8,53.3,36.8,53.7L36.8,53.7z"/>
	<path class="st1" d="M64.1,57.4c0-0.4-0.3-0.7-0.7-0.7H37.6c-0.4,0-0.7,0.3-0.7,0.7c0,0.4,0.3,0.7,0.7,0.7h25.8
		C63.8,58.2,64.1,57.8,64.1,57.4z"/>
	<path class="st1" d="M57.7,61.6c-0.2-0.3-0.7-0.4-1-0.2L54.4,63c-0.7-1.4-2.2-2.3-3.9-2.3c-2.4,0-4.4,2-4.4,4.4
		c0,2.4,2,4.4,4.4,4.4s4.4-2,4.4-4.4c0-0.2,0-0.4,0-0.5l2.7-1.9C57.9,62.4,58,61.9,57.7,61.6L57.7,61.6z M50.5,67.9
		c-1.6,0-2.9-1.3-2.9-2.9c0-1.6,1.3-2.9,2.9-2.9c1.2,0,2.2,0.7,2.6,1.7L51,65.3l-0.7-0.8c-0.3-0.3-0.7-0.3-1-0.1
		c-0.3,0.3-0.3,0.7-0.1,1l1.1,1.3c0.1,0.2,0.3,0.3,0.6,0.3c0.1,0,0.3,0,0.4-0.1l2.1-1.4C53.2,66.9,52,67.9,50.5,67.9z"/>
</g>
</svg>
