<?xml version="1.0" encoding="utf-8"?>
<!-- Generator: Adobe Illustrator 25.2.1, SVG Export Plug-In . SVG Version: 6.00 Build 0)  -->
<svg version="1.1" id="Layer_1" xmlns="http://www.w3.org/2000/svg" xmlns:xlink="http://www.w3.org/1999/xlink" x="0px" y="0px"
	 viewBox="0 0 101 101" style="enable-background:new 0 0 101 101;" xml:space="preserve">
<style type="text/css">
	.st0{fill-rule:evenodd;clip-rule:evenodd;fill:#27376E;}
	.st1{fill:#6A8DC4;}
</style>
<circle class="st0" cx="50.5" cy="50.5" r="50"/>
<g>
	<path class="st1" d="M21.3,50.5c0,3.8,3.1,6.8,6.8,6.8h21.4c0.5,0,1-0.4,1-1c0-0.3-0.1-0.6-0.4-0.8l-1.6-1.2
		c-1.2-0.9-1.9-2.4-1.9-3.9c0-3.8-3.1-6.8-6.8-6.8H28.1C24.4,43.7,21.3,46.7,21.3,50.5z M28.1,45.6h11.7c2.7,0,4.9,2.2,4.9,4.9
		c0,1.8,0.7,3.6,2,4.9H28.1c-2.7,0-4.9-2.2-4.9-4.9S25.4,45.6,28.1,45.6z"/>
	<path class="st1" d="M75.8,52.4c0-5.4-4.4-9.7-9.7-9.7h-3.9c-5.4,0-9.7,4.4-9.7,9.7c0,3.8,3.1,6.8,6.8,6.8H69
		C72.8,59.3,75.8,56.2,75.8,52.4z M69,57.3h-9.7c-2.7,0-4.9-2.2-4.9-4.9c0-4.3,3.5-7.8,7.8-7.8h3.9c4.3,0,7.8,3.5,7.8,7.8
		C73.9,55.1,71.7,57.3,69,57.3z"/>
	<path class="st1" d="M68,47.6h-7.8c-2.2,0-3.9,1.7-3.9,3.9s1.7,3.9,3.9,3.9H68c2.2,0,3.9-1.7,3.9-3.9S70.2,47.6,68,47.6z M68,53.4
		h-7.8c-1.1,0-1.9-0.9-1.9-1.9c0-1.1,0.9-1.9,1.9-1.9H68c1.1,0,1.9,0.9,1.9,1.9C70,52.5,69.1,53.4,68,53.4z"/>
	<path class="st1" d="M68.5,61.2h-8.8c-2.7,0-4.9,2.2-4.9,4.9c0,0.2,0,0.4,0,0.6l1.2,10.5c0.2,1.5,1.4,2.6,2.9,2.6h10.2
		c1.5,0,2.7-1.1,2.9-2.6l1.2-10.5c0.3-2.7-1.6-5.1-4.3-5.4C68.9,61.2,68.7,61.2,68.5,61.2z M71.4,66.4l-1.2,10.5
		c-0.1,0.5-0.5,0.9-1,0.9H59c-0.5,0-0.9-0.4-1-0.9l-1.2-10.5c-0.2-1.6,1-3.1,2.6-3.2c0.1,0,0.2,0,0.3,0h8.8c1.6,0,2.9,1.3,2.9,2.9
		C71.4,66.2,71.4,66.3,71.4,66.4L71.4,66.4z"/>
	<path class="st1" d="M48.6,66.1v3.7c0,0.8,0.1,1.7,0.3,2.5l1.4,5.9c0,0,0,0.1,0,0.1c0.4,1.1,1.6,1.7,2.7,1.3c0.9-0.3,1.4-1.1,1.4-2
		V66.1c0-1.6-1.3-2.9-2.9-2.9S48.6,64.5,48.6,66.1z M52.4,66.1v11.5c0,0.1-0.1,0.2-0.2,0.2c-0.1,0-0.1,0-0.1-0.1l-1.4-5.8
		c-0.2-0.7-0.2-1.4-0.2-2.1v-3.7c0-0.5,0.4-1,1-1S52.4,65.5,52.4,66.1z"/>
	<path class="st1" d="M76.8,63.2c-1.6,0-2.9,1.3-2.9,2.9v11.5c0,1.2,0.9,2.1,2.1,2.1c0.9,0,1.7-0.6,2-1.4c0,0,0-0.1,0-0.1l1.4-5.9
		c0.2-0.8,0.3-1.7,0.3-2.5v-3.7C79.7,64.5,78.4,63.2,76.8,63.2z M77.8,69.8c0,0.7-0.1,1.4-0.2,2.1l-1.4,5.8c0,0.1-0.1,0.1-0.2,0.1
		c-0.1,0-0.1-0.1-0.1-0.1V66.1c0-0.5,0.4-1,1-1c0.5,0,1,0.4,1,1V69.8z"/>
	<circle class="st1" cx="60.2" cy="51.5" r="1"/>
	<circle class="st1" cx="68" cy="51.5" r="1"/>
	<path class="st1" d="M31,21.3c-5.4,0-9.7,4.4-9.7,9.7s4.4,9.7,9.7,9.7s9.7-4.4,9.7-9.7C40.8,25.7,36.4,21.3,31,21.3z M28.1,38.3
		v-2.3c0-1.6,1.3-2.9,2.9-2.9s2.9,1.3,2.9,2.9v2.3C32.1,39,30,39,28.1,38.3z M29.1,29.1c0-1.1,0.9-1.9,1.9-1.9
		c1.1,0,1.9,0.9,1.9,1.9c0,1.1-0.9,1.9-1.9,1.9C30,31,29.1,30.2,29.1,29.1z M35.9,37.1v-1.2c0-1.6-0.8-3.1-2.1-4
		c1.5-1.5,1.6-4,0.1-5.5c-1.5-1.5-4-1.6-5.5-0.1s-1.6,4-0.1,5.5c0,0,0,0,0.1,0.1c-1.3,0.9-2.1,2.4-2.1,4v1.2
		c-3.4-2.7-3.9-7.6-1.2-10.9s7.6-3.9,10.9-1.2s3.9,7.6,1.2,10.9C36.8,36.3,36.3,36.7,35.9,37.1z"/>
	<path class="st1" d="M72.9,21.3H53.4c-3.8,0-6.8,3.1-6.8,6.8c0,1.5-0.7,3-1.9,3.9l-1.6,1.2c-0.4,0.3-0.5,0.9-0.2,1.4
		c0.2,0.2,0.5,0.4,0.8,0.4h29.2c3.8,0,6.8-3.1,6.8-6.8S76.6,21.3,72.9,21.3z M72.9,33H46.5c1.3-1.3,2-3,2-4.9c0-2.7,2.2-4.9,4.9-4.9
		h19.5c2.7,0,4.9,2.2,4.9,4.9S75.6,33,72.9,33z"/>
</g>
</svg>
