<?xml version="1.0" encoding="utf-8"?>
<!-- Generator: Adobe Illustrator 25.2.3, SVG Export Plug-In . SVG Version: 6.00 Build 0)  -->
<svg version="1.1" id="Layer_1" xmlns="http://www.w3.org/2000/svg" xmlns:xlink="http://www.w3.org/1999/xlink" x="0px" y="0px"
	 viewBox="0 0 125 125" style="enable-background:new 0 0 125 125;" xml:space="preserve">
<style type="text/css">
	.st0{display:none;}
	.st1{display:inline;fill-rule:evenodd;clip-rule:evenodd;fill:#6A8DC4;}
	.st2{display:inline;}
	.st3{fill-rule:evenodd;clip-rule:evenodd;fill:#6A8DC4;}
	.st4{fill-rule:evenodd;clip-rule:evenodd;fill:#27376E;}
	.st5{fill:#6A8DC6;}
</style>
<g id="Business_Analysis" class="st0">
	<path class="st1" d="M27.5,33.7h69.9c0.2,0,0.4,0.2,0.4,0.4v48c0,0.2-0.2,0.4-0.4,0.4H70.9l3,7.9h7c0.2,0,0.4,0.2,0.4,0.4
		c0,0.2-0.2,0.4-0.4,0.4H44c-0.2,0-0.4-0.2-0.4-0.4c0-0.2,0.2-0.4,0.4-0.4h7.2l3-7.9H27.5c-0.2,0-0.4-0.2-0.4-0.4v-48
		C27.1,33.9,27.3,33.7,27.5,33.7L27.5,33.7z M40,38.8h2.6c0.2,0,0.4-0.2,0.4-0.4S42.8,38,42.6,38H40c-0.2,0-0.4,0.2-0.4,0.4
		C39.5,38.6,39.7,38.8,40,38.8L40,38.8z M35.5,38.8h2.6c0.2,0,0.4-0.2,0.4-0.4S38.3,38,38.1,38h-2.6c-0.2,0-0.4,0.2-0.4,0.4
		S35.3,38.8,35.5,38.8L35.5,38.8z M31.2,38.8h2.6c0.2,0,0.4-0.2,0.4-0.4S34,38,33.8,38h-2.6c-0.2,0-0.4,0.2-0.4,0.4
		C30.7,38.6,30.9,38.8,31.2,38.8L31.2,38.8z M85.4,45.5h3.3l-9.8,9.8l-5.2-5.2c-0.2-0.2-0.4-0.2-0.6,0l-7,7c-0.2,0.2-0.2,0.4,0,0.6
		c0.2,0.2,0.4,0.2,0.6,0l6.7-6.7l5.2,5.2c0.2,0.2,0.4,0.2,0.6,0l10.1-10.1v3.3c0,0.2,0.2,0.4,0.4,0.4c0.2,0,0.4-0.2,0.4-0.4v-4.3
		c0-0.1,0-0.1,0-0.2l0,0l0,0l0,0l0,0l0,0l0,0l0,0l0,0l0,0l0,0l0,0l0,0l0,0l0,0l0,0l0,0l0,0l0,0l0,0l0,0l0,0l0,0l0,0l0,0l0,0l0,0l0,0
		l0,0l0,0l0,0l0,0l0,0l0,0l0,0l0,0l0,0l0,0l0,0l0,0l0,0l0,0l0,0l0,0l0,0l0,0l0,0l0,0l0,0l0,0l0,0c-0.1,0-0.1,0-0.2,0h-4.3
		c-0.2,0-0.4,0.2-0.4,0.4C85,45.4,85.2,45.5,85.4,45.5L85.4,45.5z M89.3,54.1v14.6c0,0.2,0.2,0.4,0.4,0.4c0.2,0,0.4-0.2,0.4-0.4
		V54.1c0-0.2-0.2-0.4-0.4-0.4C89.5,53.7,89.3,53.9,89.3,54.1L89.3,54.1z M83.9,57.2v11.5c0,0.2,0.2,0.4,0.4,0.4
		c0.2,0,0.4-0.2,0.4-0.4V57.2c0-0.2-0.2-0.4-0.4-0.4S83.9,57,83.9,57.2L83.9,57.2z M78.3,60.3v8.3c0,0.2,0.2,0.4,0.4,0.4
		c0.2,0,0.4-0.2,0.4-0.4v-8.3c0-0.2-0.2-0.4-0.4-0.4C78.5,59.9,78.3,60.1,78.3,60.3L78.3,60.3z M72.9,57.2v11.4
		c0,0.2,0.2,0.4,0.4,0.4c0.2,0,0.4-0.2,0.4-0.4V57.2c0-0.2-0.2-0.4-0.4-0.4S72.9,57,72.9,57.2L72.9,57.2z M67.5,60.5v8.1
		c0,0.2,0.2,0.4,0.4,0.4c0.2,0,0.4-0.2,0.4-0.4v-8.1c0-0.2-0.2-0.4-0.4-0.4C67.6,60.1,67.5,60.3,67.5,60.5L67.5,60.5z M47.4,54.4
		c0,0.2,0.2,0.4,0.4,0.4h10.5c0.2,0,0.4-0.2,0.4-0.4c0-3-1.2-5.7-3.2-7.7s-4.7-3.2-7.7-3.2c-0.2,0-0.4,0.2-0.4,0.4V54.4L47.4,54.4z
		 M48.2,44.4V54h9.6c-0.1-2.6-1.2-5-2.9-6.7S50.8,44.5,48.2,44.4L48.2,44.4z M46.2,56.8V46.7c0-0.2-0.2-0.4-0.4-0.4
		c-3,0-5.7,1.2-7.7,3.2s-3.2,4.7-3.2,7.7s1.2,5.7,3.2,7.7s4.7,3.2,7.7,3.2s5.7-1.2,7.7-3.2s3.2-4.7,3.2-7.7c0-0.2-0.2-0.4-0.4-0.4
		H46.2L46.2,56.8z M55.8,57.6H45.7c-0.2,0-0.4-0.2-0.4-0.4V47.1c-2.6,0.1-5,1.2-6.7,2.9c-1.8,1.8-3,4.3-3,7.1s1.1,5.3,3,7.1
		c1.8,1.8,4.3,3,7.1,3s5.3-1.1,7.1-3C54.6,62.6,55.7,60.2,55.8,57.6L55.8,57.6z M28,41.4h69v-6.8H28V41.4L28,41.4z M97,42.2H28v29.6
		h69V42.2L97,42.2z M97,72.6H28v9.1h69V72.6L97,72.6z M70,82.5H55.2l-3,7.9H73L70,82.5L70,82.5z M62.4,75.9c-0.7,0-1.3,0.6-1.3,1.3
		c0,0.7,0.6,1.3,1.3,1.3s1.3-0.6,1.3-1.3S63.2,75.9,62.4,75.9L62.4,75.9z M60.3,77.2c0,1.2,0.9,2.1,2.1,2.1s2.1-0.9,2.1-2.1
		s-0.9-2.1-2.1-2.1S60.3,76,60.3,77.2z"/>
</g>
<g id="AI_Licensing" class="st0">
	<path class="st1" d="M36.8,74.4c-1.7-0.9-3.1-2.3-4.2-3.9c-1.1-1.8-1.8-3.9-1.8-6.1c0-1.8,0.4-3.5,1.2-5.1c0.7-1.3,1.6-2.5,2.7-3.5
		c-1-1.7-1.6-3.6-1.6-5.7c0-3.1,1.3-5.9,3.3-8c2-2,4.9-3.3,8-3.3c0.9,0,1.7,0.1,2.6,0.3c0.4,0.1,0.9,0.2,1.3,0.4
		c0.1-3,1.3-5.8,3.3-7.8s4.9-3.3,8-3.3s5.9,1.3,8,3.3c2,2,3.2,4.7,3.3,7.7h4.2l5.9-5.9c0.2-0.2,0.4-0.2,0.6-0.2l0,0h7.2
		c0.3-1.1,1.3-1.8,2.5-1.8c1.5,0,2.7,1.2,2.7,2.7s-1.2,2.7-2.7,2.7c-1.2,0-2.2-0.8-2.5-1.8H82L76.1,41c-0.1,0.2-0.4,0.3-0.6,0.3H71
		v12.9h3.9l5.2-5.3c0.2-0.2,0.4-0.2,0.6-0.2l0,0h4.5c0.3-1.1,1.3-1.8,2.5-1.8c1.5,0,2.7,1.2,2.7,2.7s-1.2,2.7-2.7,2.7
		c-1.2,0-2.2-0.8-2.5-1.8h-4.1l-5.2,5.3c-0.1,0.2-0.4,0.3-0.6,0.3H71v6h9.9c0.3-1.1,1.3-1.8,2.5-1.8c1.5,0,2.7,1.2,2.7,2.7
		s-1.2,2.7-2.7,2.7c-1.2,0-2.2-0.8-2.5-1.8H71v6h4.3c0.2,0,0.4,0.1,0.6,0.2l5.2,5.2h4.3c0.3-1.1,1.3-1.8,2.5-1.8
		c1.5,0,2.7,1.2,2.7,2.7s-1.2,2.7-2.7,2.7c-1.2,0-2.2-0.8-2.5-1.8h-4.6c-0.2,0-0.4-0.1-0.6-0.2L74.9,71h-4v12.7h4
		c0.2,0,0.5,0.1,0.6,0.3l6.3,6.1h7c0.3-1.1,1.3-1.8,2.5-1.8c1.5,0,2.7,1.2,2.7,2.7s-1.2,2.7-2.7,2.7c-1.2,0-2.2-0.8-2.5-1.8h-7.4
		l0,0c-0.2,0-0.4-0.1-0.6-0.2l-6.4-6.1h-4.2c-0.1,3-1.4,5.7-3.4,7.7c-2.1,2.1-4.9,3.4-8.1,3.4c-2.7,0-5.1-0.9-7.1-2.5
		c-1.8-1.4-3.2-3.4-3.9-5.7c-0.1,0-0.2,0-0.3,0c-3.1,0-5.9-1.3-8-3.3c-2-2-3.3-4.9-3.3-8C36.5,76.1,36.6,75.3,36.8,74.4L36.8,74.4z
		 M69.3,41.2h-4.8v7.5c0,0.4-0.4,0.8-0.8,0.8h-3.2c-0.1,0.6-0.5,1.1-0.9,1.6c-0.4,0.4-1,0.7-1.6,0.9v6.8c0,0.4-0.4,0.8-0.8,0.8h-2
		c-0.2,0.6-0.5,1.2-0.9,1.6c-0.6,0.6-1.5,1-2.5,1s-1.8-0.4-2.5-1c-0.2-0.2-0.3-0.4-0.5-0.6c-0.6,0.2-1.2,0.4-1.8,0.6
		c-0.9,0.2-1.8,0.3-2.6,0.3c-3.1,0-5.9-1.3-8-3.3c-0.3-0.3-0.6-0.6-0.8-0.9c-0.9,0.8-1.7,1.8-2.2,2.9c-0.7,1.3-1,2.8-1,4.3
		c0,1.9,0.5,3.7,1.5,5.2c0.8,1.3,1.9,2.4,3.3,3.2c0.6-1.4,1.4-2.7,2.5-3.8c1.9-1.9,4.5-3.1,7.3-3.3c0.1-0.9,0.5-1.8,1.1-2.6
		c0.3-0.3,0.8-0.4,1.1-0.1c0.3,0.3,0.4,0.8,0.1,1.1c-0.6,0.7-0.8,1.5-0.8,2.3s0.2,1.6,0.6,2.2c0.8,0.1,1.4,0.4,1.9,1
		c0.6,0.6,1,1.4,1,2.4c0,0.9-0.4,1.8-1,2.4s-1.4,1-2.4,1c-0.9,0-1.8-0.4-2.4-1c-0.6-0.6-1-1.4-1-2.4c0-0.9,0.4-1.8,1-2.4
		c0.3-0.3,0.7-0.6,1.1-0.7c-0.2-0.5-0.4-1-0.4-1.5c-2.4,0.2-4.6,1.2-6.2,2.8c-1.7,1.7-2.8,4.2-2.8,6.8c0,2.7,1.1,5.1,2.8,6.8
		c1.7,1.7,4.2,2.8,6.8,2.8c2.3,0,4.5-0.8,6.2-2.2c1.5-1.2,2.6-2.9,3.1-4.8c-0.5-0.2-0.9-0.4-1.2-0.8c-0.6-0.6-1-1.4-1-2.4
		c0-0.9,0.4-1.8,1-2.4s1.4-1,2.4-1c0.9,0,1.8,0.4,2.4,1c0.4,0.4,0.7,1,0.9,1.5h2.2c0.4,0,0.8,0.4,0.8,0.8v7.2h4.8V70.9h-5.6
		c-0.4,0-0.8-0.4-0.8-0.8s0.4-0.8,0.8-0.8h5.6v-6h-7.4c-0.4,0-0.8-0.4-0.8-0.8c0-0.4,0.4-0.8,0.8-0.8h7.4v-6h-5.6
		c-0.4,0-0.8-0.4-0.8-0.8c0-0.4,0.4-0.8,0.8-0.8h5.6L69.3,41.2L69.3,41.2z M56.4,51.9c-0.6-0.1-1.1-0.5-1.6-0.9
		c-0.4-0.4-0.7-0.9-0.9-1.5c-1.7-1-3-2.4-4-4c-0.8-1.3-1.3-2.7-1.5-4.2c-0.6-0.3-1.2-0.5-1.8-0.6c-0.7-0.2-1.5-0.3-2.2-0.3
		c-2.7,0-5.1,1.1-6.8,2.8s-2.8,4.2-2.8,6.8c0,2.7,1.1,5.1,2.8,6.8s4.2,2.8,6.8,2.8c0.8,0,1.5-0.1,2.3-0.3c0.5-0.1,1.1-0.3,1.6-0.5
		c0-0.1,0-0.2,0-0.4c0-1,0.4-1.8,1-2.5c0.6-0.6,1.5-1,2.5-1s1.8,0.4,2.5,1c0.4,0.4,0.8,1,0.9,1.6h1.2V51.9L56.4,51.9z M61.5,77.3
		c-0.1,0.6-0.5,1.1-0.9,1.5c-0.5,0.5-1.2,0.8-1.9,0.9c-0.6,2.4-2,4.4-3.8,5.9c-1.5,1.2-3.3,2.1-5.3,2.4c0.6,1.8,1.8,3.4,3.2,4.6
		c1.7,1.3,3.8,2.1,6.1,2.1c2.7,0,5.2-1.1,7-2.9c1.7-1.7,2.8-4,2.9-6.6h-5.2c-0.4,0-0.8-0.4-0.8-0.8v-7.2L61.5,77.3L61.5,77.3z
		 M69.4,39.6c-0.1-2.6-1.1-4.9-2.8-6.6c-1.7-1.7-4.2-2.8-6.8-2.8c-2.7,0-5.1,1.1-6.8,2.8c-1.7,1.7-2.8,4.2-2.8,6.8
		c0,1.8,0.5,3.5,1.4,4.9c0.7,1.1,1.5,2.1,2.6,2.9c0.2-0.5,0.5-1,0.8-1.4c0.6-0.6,1.4-1,2.4-1c0.9,0,1.8,0.4,2.4,1
		c0.4,0.4,0.7,1,0.9,1.6h2.4v-7.5c0-0.4,0.4-0.8,0.8-0.8L69.4,39.6L69.4,39.6z M53.1,57.4c-0.3-0.3-0.8-0.5-1.3-0.5s-1,0.2-1.3,0.5
		S50,58.2,50,58.7s0.2,1,0.5,1.3s0.8,0.5,1.3,0.5s1-0.2,1.3-0.5s0.5-0.8,0.5-1.3C53.7,58.2,53.5,57.7,53.1,57.4L53.1,57.4z
		 M59.5,75.3c-0.3-0.3-0.7-0.5-1.2-0.5s-0.9,0.2-1.2,0.5s-0.5,0.7-0.5,1.2s0.2,0.9,0.5,1.2c0.3,0.3,0.7,0.5,1.2,0.5s0.9-0.2,1.2-0.5
		S60,77,60,76.5C60,76.1,59.8,75.6,59.5,75.3L59.5,75.3z M50.1,70.8c-0.3-0.3-0.7-0.5-1.2-0.5s-0.9,0.2-1.2,0.5s-0.5,0.7-0.5,1.2
		s0.2,0.9,0.5,1.2c0.3,0.3,0.7,0.5,1.2,0.5s0.9-0.2,1.2-0.5s0.5-0.7,0.5-1.2C50.6,71.6,50.4,71.1,50.1,70.8L50.1,70.8z M58.4,47.4
		c-0.3-0.3-0.7-0.5-1.2-0.5s-0.9,0.2-1.2,0.5s-0.5,0.7-0.5,1.2s0.2,0.9,0.5,1.2s0.7,0.5,1.2,0.5s0.9-0.2,1.2-0.5s0.5-0.7,0.5-1.2
		C58.9,48.2,58.7,47.7,58.4,47.4z"/>
</g>
<g id="Integration" class="st0">
	<g class="st2">
		<path class="st3" d="M62.5,62.5L48.9,48.9c-0.4-0.4-1-0.4-1.4,0L45,51.3c-0.4,0.4-0.4,1,0,1.4l7.2,7.2H23.9c-0.5,0-1,0.4-1,1v3.3
			c0,0.5,0.4,1,1,1h28.3L45,72.3c-0.4,0.4-0.4,1,0,1.4l2.4,2.4c0.4,0.4,1,0.4,1.4,0L62.5,62.5z"/>
		<path class="st3" d="M69.8,33.4H76c1,0,1.8,0.8,1.8,1.8v4.1c2.9,0.6,5.6,1.8,8.1,3.3l2.9-2.9c0.7-0.7,1.8-0.7,2.5,0l4.4,4.4
			c0.7,0.7,0.7,1.8,0,2.5l-2.9,2.9c1.6,2.4,2.7,5.1,3.3,8.1h4.1c1,0,1.8,0.8,1.8,1.8v6.2c0,1-0.8,1.8-1.8,1.8h-4.1
			c-0.6,2.9-1.8,5.6-3.3,8.1l2.9,2.9c0.7,0.7,0.7,1.8,0,2.5l-4.4,4.4c-0.7,0.7-1.8,0.7-2.5,0l-2.9-2.9c-2.4,1.6-5.1,2.7-8.1,3.3v4.1
			c0,1-0.8,1.8-1.8,1.8h-6.2c-1,0-1.8-0.8-1.8-1.8v-4.1c-2.9-0.6-5.6-1.8-8.1-3.3L57,85.3c-0.7,0.7-1.8,0.7-2.5,0l-4.2-4.2l8.9-8.9
			c3,4.3,8,7.1,13.7,7.1c9.2,0,16.7-7.5,16.7-16.7s-7.5-16.7-16.7-16.7c-5.6,0-10.6,2.8-13.7,7.1l-8.9-8.9l4.2-4.2
			c0.7-0.7,1.8-0.7,2.5,0l2.9,2.9c2.4-1.6,5.1-2.7,8.1-3.3v-4.1C68,34.2,68.9,33.4,69.8,33.4z"/>
	</g>
</g>
<g>
	<circle class="st4" cx="62.5" cy="62.5" r="62.5"/>
	<path class="st5" d="M65,65c-0.5,1.4-1,2.4-1.1,3.4c-0.2,1.4,0.1,2.9-0.1,4.3c-0.8,5,1.1,8.6,4.8,12c2.4,2.2,4.7,1.9,7.6,1.9
		C74.6,78.3,72.1,70.8,65,65 M60.2,65.4c-0.3,0-0.6,0-0.8,0c-6.6,5.4-9.2,12.9-10.7,21c3.2,0.5,6,0.5,8-2.3c1-1.4,2.4-2.4,3.5-3.6
		c0.5-0.6,0.9-1.6,1-2.4c0.1-3,0.1-6.1,0-9.2C61.1,67.7,60.6,66.6,60.2,65.4 M76.3,38.6H48.6c0.8,2.8,1.4,5.4,2.2,7.9
		c0.2,0.6,1.1,1.3,1.7,1.3c6.6,0.1,13.2,0.1,19.8,0c0.6,0,1.5-0.4,1.6-0.9C74.9,44.3,75.6,41.5,76.3,38.6 M68.5,62.6
		c7.1,6.4,10.2,14.7,11.7,23.9c0.6,0.1,1.1,0.2,1.8,0.3v3.8H43.1v-3.7c1.7,0,1.7-1.3,1.9-2.7c1.4-8.4,4.9-15,11.3-21.7
		c-5.9-5.2-8.9-11.9-10.8-19.4c-0.2-0.9-0.4-1.8-0.6-2.7c-0.3-1.8-0.3-1.8-1.9-2.3c-0.4-3.7-0.4-3.7,3.1-3.7c10.8,0,21.7,0,32.5,0
		c3.5,0,3.6-0.9,3.3,3.7c-0.5,0.1-1.1,0.3-1.8,0.5C78.8,47.8,75.7,56.2,68.5,62.6"/>
</g>
</svg>
