<?xml version="1.0" encoding="utf-8"?>
<!-- Generator: Adobe Illustrator 25.2.1, SVG Export Plug-In . SVG Version: 6.00 Build 0)  -->
<svg version="1.1" id="Layer_1" xmlns="http://www.w3.org/2000/svg" xmlns:xlink="http://www.w3.org/1999/xlink" x="0px" y="0px"
	 viewBox="0 0 125 125" style="enable-background:new 0 0 125 125;" xml:space="preserve">
<style type="text/css">
	.st0{fill-rule:evenodd;clip-rule:evenodd;fill:#6A8DC4;}
	.st1{fill-rule:evenodd;clip-rule:evenodd;fill:#FFFFFF;}
</style>
<ellipse transform="matrix(1 -1.327850e-03 1.327850e-03 1 -8.293542e-02 8.304572e-02)" class="st0" cx="62.5" cy="62.5" rx="62.5" ry="62.5"/>
<path class="st1" d="M73.4,50.4l-8.8-3.8l23.5-9.4l-9.5,23.3l-3.9-8.8L38.5,87.8l-1.6-1.6L73.4,50.4L73.4,50.4z M78.6,55.1l5.8-14.3
	l-14.2,5.8l6,2.5L78.6,55.1L78.6,55.1z M48.9,37.5c-3.2,0-6.1,1.3-8.2,3.4s-3.4,5-3.4,8.2s1.3,6.1,3.4,8.2s5,3.4,8.2,3.4
	s6.1-1.3,8.2-3.4s3.4-5,3.4-8.2S59.1,43,57,40.9S52.1,37.5,48.9,37.5L48.9,37.5z M55.8,42.1c-1.8-1.8-4.2-2.9-6.9-2.9
	s-5.1,1.1-6.9,2.9c-1.8,1.8-2.9,4.2-2.9,6.9s1.1,5.1,2.9,6.9c1.8,1.8,4.2,2.9,6.9,2.9s5.1-1.1,6.9-2.9c1.8-1.8,2.9-4.2,2.9-6.9
	S57.5,43.9,55.8,42.1L55.8,42.1z M48.9,42.7c-1.8,0-3.3,0.7-4.5,1.9l0,0c-1.2,1.2-1.9,2.7-1.9,4.5c0,1.8,0.7,3.3,1.9,4.5l0,0
	c1.2,1.2,2.7,1.9,4.5,1.9c1.8,0,3.3-0.7,4.5-1.9l0,0c1.2-1.2,1.9-2.7,1.9-4.5c0-1.8-0.7-3.3-1.9-4.5l0,0
	C52.2,43.4,50.6,42.7,48.9,42.7L48.9,42.7z M52.1,45.8c-0.8-0.8-2-1.3-3.2-1.3c-1.3,0-2.4,0.5-3.2,1.3l0,0c-0.8,0.8-1.3,2-1.3,3.2
	c0,1.3,0.5,2.4,1.3,3.2l0,0c0.8,0.8,2,1.3,3.2,1.3c1.3,0,2.4-0.5,3.2-1.3l0,0c0.8-0.8,1.3-2,1.3-3.2C53.4,47.8,52.9,46.6,52.1,45.8
	L52.1,45.8L52.1,45.8z M75.2,64.5c-3.2,0-6.1,1.3-8.2,3.4c-2.1,2.1-3.4,5-3.4,8.2c0,3.2,1.3,6.1,3.4,8.2c2.1,2.1,5,3.4,8.2,3.4
	s6.1-1.3,8.2-3.4c2.1-2.1,3.4-5,3.4-8.2c0-3.2-1.3-6.1-3.4-8.2C81.2,65.8,78.3,64.5,75.2,64.5L75.2,64.5z M82.1,69.1
	c-1.8-1.8-4.2-2.9-6.9-2.9c-2.7,0-5.1,1.1-6.9,2.9c-1.8,1.8-2.9,4.2-2.9,6.9c0,2.7,1.1,5.1,2.9,6.9c1.8,1.8,4.2,2.9,6.9,2.9
	c2.7,0,5.1-1.1,6.9-2.9c1.8-1.8,2.9-4.2,2.9-6.9C84.9,73.4,83.8,70.9,82.1,69.1L82.1,69.1z M75.2,69.7c-1.8,0-3.3,0.7-4.5,1.9l0,0
	c-1.2,1.2-1.9,2.7-1.9,4.5c0,1.8,0.7,3.3,1.9,4.5l0,0c1.2,1.2,2.7,1.9,4.5,1.9c1.8,0,3.3-0.7,4.5-1.9l0,0c1.2-1.2,1.9-2.7,1.9-4.5
	c0-1.8-0.7-3.3-1.9-4.5l0,0C78.5,70.4,76.9,69.7,75.2,69.7L75.2,69.7z M78.4,72.8c-0.8-0.8-2-1.3-3.2-1.3c-1.3,0-2.4,0.5-3.2,1.3
	l0,0c-0.8,0.8-1.3,2-1.3,3.2c0,1.3,0.5,2.4,1.3,3.2l0,0c0.8,0.8,2,1.3,3.2,1.3c1.3,0,2.4-0.5,3.2-1.3l0,0c0.8-0.8,1.3-2,1.3-3.2
	C79.7,74.8,79.2,73.6,78.4,72.8L78.4,72.8z"/>
</svg>
