<?xml version="1.0" encoding="utf-8"?>
<!-- Generator: Adobe Illustrator 25.2.1, SVG Export Plug-In . SVG Version: 6.00 Build 0)  -->
<svg version="1.1" id="Layer_1" xmlns="http://www.w3.org/2000/svg" xmlns:xlink="http://www.w3.org/1999/xlink" x="0px" y="0px"
	 viewBox="0 0 125 125" style="enable-background:new 0 0 125 125;" xml:space="preserve">
<style type="text/css">
	.st0{fill-rule:evenodd;clip-rule:evenodd;fill:#6A8DC4;}
	.st1{fill-rule:evenodd;clip-rule:evenodd;fill:#FFFFFF;}
</style>
<ellipse transform="matrix(0.7071 -0.7071 0.7071 0.7071 -25.8884 62.4999)" class="st0" cx="62.5" cy="62.5" rx="62.5" ry="62.5"/>
<path class="st1" d="M86.5,70.1c-0.1,0.6-0.6,1-1.1,0.9c-0.6-0.1-1-0.6-0.9-1.1c0.2-2,1.5-5.5,2.8-8.8c1.3-3.4,2.4-6.3,1.9-6.6
	c-1.1-0.4-2.9,0.3-4.5,3c-0.2,0.4-0.5,0.8-0.8,1.3c-1.2,1.9-1.9,3-2.4,4c-0.5,0.9-0.9,1.7-1.5,3c-0.1,0.3-0.4,0.5-0.7,0.6
	c-1.6,0.5-5.4,2.6-8.3,5.5c-1.9,1.8-3.4,4-3.7,6.3c-0.9,6.5,0.1,9.4,1.8,13.8c0.9-0.2,2.1-0.6,3.4-1c2.2-0.6,4.7-1.4,6.8-2
	c-0.5-1.2-1.1-3.2-1-5.4c0.1-1.5,2-3.7,4.5-6.6c4.3-5,10.5-12,10.8-18.9c0.1-2.4-0.1-4.9-0.4-7.2c-0.5-3.3-1.4-6.4-2.4-8.6
	c-0.9-1.9-1.7-3.1-2.3-3.2c0,0,0,0,0,0l0,0c-1.2,0.3-0.8,4.2-0.4,8.5c0.1,1.4,0.3,2.9,0.4,4.3c0,0.2,2.4,0.5,3,1.2
	c1.5,1.6-0.7,4.2-2.3,8.6C88,64.9,86.7,68.3,86.5,70.1L86.5,70.1z M82.9,56.5c1.3-2.1,1.9-2.9,3.4-3.7c-0.1-1.4,0-3.4-0.1-4.8
	c-0.5-5.3-1-10.1,2-10.7l0.1,0c0.1,0,0.2,0,0.4,0c1.4,0.1,2.8,1.7,4,4.4c1.1,2.4,2,5.6,2.6,9.1c0.4,2.4,0.6,5,0.5,7.6
	c-0.3,7.6-6.8,14.9-11.3,20.1c-2.2,2.6-4,4.6-4,5.4c-0.2,3,1.2,5.5,1.2,5.5c0,0.1,0.1,0.2,0.1,0.3c0.1,0.5-0.2,1.1-0.7,1.2
	c-2.4,0.6-5.4,1.5-7.9,2.2c-1.8,0.5-3.4,1-4.4,1.2c-0.5,0.1-1-0.1-1.2-0.6l0,0c-2-5.2-3.2-8.3-2.2-15.6c0.4-2.8,2.1-5.3,4.3-7.4
	c3-2.9,6.8-5.1,8.7-5.8c0.5-1.1,0.9-1.9,1.4-2.8c0.5-1,1.2-2.1,2.5-4.1C82.3,57.3,82.6,56.9,82.9,56.5L82.9,56.5z M88.5,39.2
	L88.5,39.2L88.5,39.2L88.5,39.2z M38.5,70.1c0.1,0.6,0.6,1,1.1,0.9c0.6-0.1,1-0.6,0.9-1.1c-0.2-2-1.5-5.5-2.8-8.8
	c-1.3-3.4-2.4-6.3-1.9-6.6c1.1-0.4,2.9,0.3,4.5,3c0.2,0.4,0.5,0.8,0.8,1.3c1.2,1.9,1.9,3,2.4,4c0.5,0.9,0.9,1.7,1.5,3
	c0.1,0.3,0.4,0.5,0.7,0.6c1.6,0.5,5.4,2.6,8.3,5.5c1.9,1.8,3.4,4,3.7,6.3c0.9,6.5-0.1,9.4-1.8,13.8c-0.9-0.2-2.1-0.6-3.4-1
	c-2.2-0.6-4.7-1.4-6.8-2c0.5-1.2,1.1-3.2,1-5.4c-0.1-1.5-2-3.7-4.5-6.6c-4.3-5-10.5-12-10.8-18.9c-0.1-2.4,0.1-4.9,0.4-7.2
	c0.5-3.3,1.4-6.4,2.4-8.6c0.9-1.9,1.7-3.1,2.3-3.2c0,0,0,0,0,0l0,0c1.2,0.3,0.8,4.2,0.4,8.5c-0.1,1.4-0.3,2.9-0.4,4.3
	c0,0.2-2.4,0.5-3,1.2c-1.5,1.6,0.7,4.2,2.3,8.6C37,64.9,38.3,68.3,38.5,70.1L38.5,70.1z M42.1,56.5c-1.3-2.1-1.9-2.9-3.4-3.7
	c0.1-1.4,0-3.4,0.1-4.8c0.5-5.3,1-10.1-2-10.7l-0.1,0c-0.1,0-0.2,0-0.4,0c-1.4,0.1-2.8,1.7-4,4.4c-1.1,2.4-2,5.6-2.6,9.1
	c-0.4,2.4-0.6,5-0.5,7.6c0.3,7.6,6.8,14.9,11.3,20.1c2.2,2.6,4,4.6,4,5.4c0.2,3-1.2,5.5-1.2,5.5c0,0.1-0.1,0.2-0.1,0.3
	c-0.1,0.5,0.2,1.1,0.7,1.2c2.4,0.6,5.4,1.5,7.9,2.2c1.8,0.5,3.4,1,4.4,1.2c0.5,0.1,1-0.1,1.2-0.6l0,0c2-5.2,3.2-8.3,2.2-15.6
	c-0.4-2.8-2.1-5.3-4.3-7.4c-3-2.9-6.8-5.1-8.7-5.8c-0.5-1.1-0.9-1.9-1.4-2.8c-0.5-1-1.2-2.1-2.5-4.1C42.7,57.3,42.4,56.9,42.1,56.5
	L42.1,56.5z M36.5,39.2L36.5,39.2L36.5,39.2L36.5,39.2z M63.8,36c0,0.7-0.6,1.3-1.3,1.3c-0.7,0-1.3-0.6-1.3-1.3v-3.9
	c0-0.7,0.6-1.3,1.3-1.3c0.7,0,1.3,0.6,1.3,1.3V36L63.8,36z M61.2,60.4c0-0.7,0.6-1.3,1.3-1.3c0.7,0,1.3,0.6,1.3,1.3v3.9
	c0,0.7-0.6,1.3-1.3,1.3c-0.7,0-1.3-0.6-1.3-1.3V60.4L61.2,60.4z M51.3,53.2l-3.4,2c-0.6,0.3-0.8,1.1-0.5,1.7
	c0.3,0.6,1.1,0.8,1.7,0.5l3.4-2c0.6-0.3,0.8-1.1,0.5-1.7C52.7,53.1,51.9,52.9,51.3,53.2L51.3,53.2z M52.6,41l-3.4-2
	c-0.6-0.4-1.4-0.1-1.7,0.5c-0.4,0.6-0.1,1.4,0.5,1.7l3.4,2c0.6,0.4,1.4,0.1,1.7-0.5C53.4,42.1,53.2,41.3,52.6,41L52.6,41z
	 M72.4,55.4c-0.6-0.3-0.8-1.1-0.5-1.7c0.3-0.6,1.1-0.8,1.7-0.5l3.4,2c0.6,0.3,0.8,1.1,0.5,1.7c-0.3,0.6-1.1,0.8-1.7,0.5L72.4,55.4
	L72.4,55.4z M73.7,43.2c-0.6,0.4-1.4,0.1-1.7-0.5c-0.4-0.6-0.1-1.4,0.5-1.7l3.4-2c0.6-0.4,1.4-0.1,1.7,0.5c0.4,0.6,0.1,1.4-0.5,1.7
	L73.7,43.2L73.7,43.2z M65.3,45.2c0,0,0-2.1-2.8-2.1c-1,0-2.8-0.2-2.8,1.8c0,2.8,8.5,1.4,8.5,6.6c0,1,0,4.2-4.7,4.6v1.4h-2V56
	c-4.7-0.5-4.5-4.7-4.5-4.7c0.7,0,1.7,0,2.4,0c0,0.5,0.6,2.7,3.1,2.7c1.4,0,3.2-0.5,3.2-2.3c0-3.3-8.6-1.8-8.6-6.5
	c0-0.6,0-3.8,4.5-4.3v-1.6h2v1.6c4.4,0.5,4.2,4.3,4.2,4.3C66.9,45.2,66.1,45.2,65.3,45.2z"/>
</svg>
