<?xml version="1.0" encoding="utf-8"?>
<!-- Generator: Adobe Illustrator 25.2.1, SVG Export Plug-In . SVG Version: 6.00 Build 0)  -->
<svg version="1.1" id="Layer_1" xmlns="http://www.w3.org/2000/svg" xmlns:xlink="http://www.w3.org/1999/xlink" x="0px" y="0px"
	 viewBox="0 0 101 101" style="enable-background:new 0 0 101 101;" xml:space="preserve">
<style type="text/css">
	.st0{fill-rule:evenodd;clip-rule:evenodd;fill:#27376E;}
	.st1{fill:#6A8DC4;}
</style>
<circle class="st0" cx="50.5" cy="50.5" r="50"/>
<g>
	<g>
		<g>
			<path class="st1" d="M25,73.9C25,75,26,76,27.1,76h27.5v-0.8c0-0.2,0-5.2-2.6-9.5c-0.4-0.7-1.1-1.5-2.1-2.3
				c1.2-0.2,2.4-0.6,3.4-1.1C56,67.5,60.3,76,70.2,76c3.2,0,5.8-2.6,5.8-5.8v-7.4H64.5v4.8c-3.1-0.5-5-4.1-6.4-6.7
				c-0.3-0.5-0.5-0.9-0.7-1.3c0.9-0.8,1.7-1.7,2.3-2.8c0.7,0.6,1.4,1.1,2.1,1.6l1,0.8l0.3-1.2c0-0.1,0.8-3.4-0.7-6
				c0.7-2.2,3.9-13.1-3.4-18.7l4.1-2.1v-5.4h-3.7l-3.6,5l0.8-5.8h-6.7v2.7l1.6,2.7c-8.4-0.9-14,6-15.2,7.7c-5.1,0.2-6.1,2.9-6.1,3
				l-0.3,0.9l1,0.1c0.9,0.1,1.9,0.3,2.8,0.6c-0.8,1.9-1.3,3.9-1.3,6c0,2.3,0.5,4.5,1.5,6.5c-0.2,0.2-0.4,0.5-0.5,0.8L33,57.8
				c-0.2,0.6-0.1,1.3,0.1,1.8l-7.7,13.1C25.1,73.1,25,73.5,25,73.9z M34.3,60.8C34.3,60.9,34.3,60.9,34.3,60.8l0.6,0.3
				c0.2,0.1,0.4,0.2,0.6,0.3l2.3,2.7l-2.8,4.4L32,64.7L34.3,60.8z M37.4,50.5c0.1,0.8,0.5,1.5,1.1,1.9c0.2,0.2,0.3,0.4,0.4,0.7
				c0,0.3-0.1,0.5-0.3,0.7c-0.5,0.5-1.2,0.8-2,0.8h-0.3c-0.3-0.1-0.7-0.1-1,0c-0.9-1.8-1.3-3.7-1.3-5.7c0-1.9,0.4-3.9,1.3-5.6
				c2.9,0.8,5.8,2,8.5,3.4l-1.3,1c-0.2,0.1-0.4,0.1-0.6,0c-1.3-0.9-3-0.6-4,0.7C37.5,48.9,37.3,49.7,37.4,50.5z M54.7,26.7L54.1,31
				c-0.1,0-0.3-0.1-0.4-0.1l-2.2-3.6v-0.6H54.7z M55.4,46.7c-3.4-2.1-7.5-4.4-11.2-6.1c0.3-0.5,0.6-0.9,0.9-1.3l-1.3-1
				c-0.4,0.5-0.8,1.1-1.1,1.7c-1.7-0.7-3.3-1.3-4.5-1.6c0.8-1,2.2-2.6,4.2-3.9c3.3-2.2,6.7-3,10.2-2.2C50.4,33,47.5,34.4,45,37
				l1.2,1.1c3.3-3.5,7.6-4.5,9-4.8C56.1,34.9,58.7,40.4,55.4,46.7z M57.3,32.3c-0.1-0.1-0.3-0.1-0.4-0.2l3.3-4.6h1.2v2.8L57.3,32.3z
				 M61,50.6c-1-0.8-2.4-1.9-4.2-3c2.9-5.4,1.8-10.4,0.7-13.2c3,2.1,4.5,5.3,4.5,9.7C62,46.8,61.4,49.2,61,50.6z M32.5,40.9
				c0.7-0.5,1.9-1.1,4.2-1.1c4.8,0,22.6,10.7,24,12.8c0.8,1.2,0.9,2.7,0.9,3.7C54,50.4,43.3,42.9,32.5,40.9z M66.1,67.8h8.2v2.5
				c0,2.3-1.8,4.1-4.1,4.1s-4.1-1.8-4.1-4.1V67.8z M66.1,64.5h8.2v1.6h-8.2V64.5z M54.9,61.5c0.4-0.2,0.8-0.5,1.2-0.8
				c0.2,0.3,0.4,0.6,0.6,1c1.6,2.9,3.9,7.1,7.9,7.6v0.9c0,1.2,0.4,2.3,1,3.3C59.8,71.3,56.8,65.4,54.9,61.5z M48.2,62
				c-2.8-2.2-6.6-4.5-9.6-6.2c0.4-0.2,0.8-0.5,1.1-0.8c0.5-0.5,0.8-1.2,0.7-2c-0.1-0.7-0.4-1.4-1-1.9c-0.6-0.4-0.7-1.2-0.3-1.8
				c0.4-0.5,1.2-0.7,1.7-0.3c0.8,0.5,1.8,0.5,2.5-0.1l1.9-1.5c4.7,2.5,9.1,5.6,12.8,8.4C56.1,59.4,52.4,61.6,48.2,62z M51,67.2
				c-4.4-2.9-11.9-6.1-15.5-7.6L35,59.4c-0.4-0.2-0.6-0.6-0.5-1l0.5-1.6c0.1-0.2,0.2-0.4,0.4-0.5h0.7c0,0,0,0,0.1,0
				c7.7,4.3,13.1,8.1,14.4,10.3C50.7,66.7,50.9,66.9,51,67.2z M43.5,65l-1.1,2.1l-3.6-4.3C40.3,63.5,41.9,64.2,43.5,65z M47.5,73.2
				l2.4-4.8c0.9,0.6,1.7,1.2,2.3,1.7c0.5,1.7,0.7,3.3,0.8,4.2h-4.5L47.5,73.2z M46.3,71.8l-2.8-3.3l1.5-2.8c1.2,0.6,2.4,1.2,3.4,1.8
				L46.3,71.8z M40.4,74.3l2.3-4.3l3.6,4.3H40.4z M38.9,73.6L36,69.9l2.9-4.5l2.7,3.3L38.9,73.6z M33.1,74.3l1.9-3l2.3,3H33.1z
				 M26.7,73.9c0-0.1,0-0.2,0.1-0.2l4.4-7.4l2.9,3.7l-2.8,4.4h-4C26.9,74.3,26.7,74.1,26.7,73.9z"/>
			<path class="st1" d="M74.9,58.5c0.7-0.7,1.1-1.6,1.1-2.6v-1.3h-1.6v1.3c0,0.5-0.2,1-0.6,1.4c-0.7,0.7-1.1,1.6-1.1,2.6v1.3h1.6
				v-1.3C74.3,59.3,74.5,58.8,74.9,58.5z"/>
			<path class="st1" d="M71.6,58.5c0.7-0.7,1.1-1.6,1.1-2.6v-1.3H71v1.3c0,0.5-0.2,1-0.6,1.4c-0.7,0.7-1.1,1.6-1.1,2.6v1.3H71v-1.3
				C71,59.3,71.2,58.8,71.6,58.5z"/>
			<path class="st1" d="M68.3,58.5c0.7-0.7,1.1-1.6,1.1-2.6v-1.3h-1.6v1.3c0,0.5-0.2,1-0.6,1.4c-0.7,0.7-1.1,1.6-1.1,2.6v1.3h1.6
				v-1.3C67.8,59.3,68,58.8,68.3,58.5z"/>
		</g>
	</g>
</g>
</svg>
