<?xml version="1.0" encoding="utf-8"?>
<!-- Generator: Adobe Illustrator 25.2.1, SVG Export Plug-In . SVG Version: 6.00 Build 0)  -->
<svg version="1.1" id="Layer_1" xmlns="http://www.w3.org/2000/svg" xmlns:xlink="http://www.w3.org/1999/xlink" x="0px" y="0px"
	 viewBox="0 0 125 125" style="enable-background:new 0 0 125 125;" xml:space="preserve">
<style type="text/css">
	.st0{fill-rule:evenodd;clip-rule:evenodd;fill:#6A8DC4;}
	.st1{fill-rule:evenodd;clip-rule:evenodd;fill:#FFFFFF;}
	.st2{opacity:0.5;fill-rule:evenodd;clip-rule:evenodd;fill:#FFFFFF;}
</style>
<circle class="st0" cx="62.5" cy="62.5" r="62.5"/>
<path class="st1" d="M29.5,38.8c0,0,6.2-13.5,26.5-13.5c19.5,0,33.8,12.8,39.5,19.9c5.8,7.1,11.1,20.3,5.1,32
	C92.5,92.9,71.8,90.4,68.1,90c5.2-0.5,24-2.8,24.1-20.4c0.1-17.6-18.1-30.2-29.4-34C53.2,32.4,38.3,31.1,29.5,38.8z"/>
<path class="st2" d="M50,36.8c0,0-19.6,2.2-20.1,19.9c-0.5,15.4,15.4,28.8,26.6,33.1c11.1,4.3,23,6.2,34,0.4c0,0-6,9.1-21.7,9.5
	c-16.8,0.5-46.4-14.9-47-40.6C21.4,45.7,34.6,35,50,36.8z"/>
</svg>
