<?xml version="1.0" encoding="utf-8"?>
<!-- Generator: Adobe Illustrator 25.2.1, SVG Export Plug-In . SVG Version: 6.00 Build 0)  -->
<svg version="1.1" id="Layer_1" xmlns="http://www.w3.org/2000/svg" xmlns:xlink="http://www.w3.org/1999/xlink" x="0px" y="0px"
	 viewBox="0 0 125 125" style="enable-background:new 0 0 125 125;" xml:space="preserve">
<style type="text/css">
	.st0{fill-rule:evenodd;clip-rule:evenodd;fill:#27376E;}
	.st1{fill-rule:evenodd;clip-rule:evenodd;fill:#6A8DC4;}
</style>
<g>
	
		<ellipse transform="matrix(0.3779 -0.9258 0.9258 0.3779 -18.9858 96.7429)" class="st0" cx="62.5" cy="62.5" rx="62.5" ry="62.5"/>
	<path class="st1" d="M49,40.9c-2.2,0-4.1,0.9-5.5,2.3c-1.4,1.4-2.3,3.4-2.3,5.5c0,2.2,0.9,4.1,2.3,5.5c1.4,1.4,3.4,2.3,5.5,2.3
		c2.2,0,4.1-0.9,5.5-2.3c1.4-1.4,2.3-3.4,2.3-5.5c0-2.2-0.9-4.1-2.3-5.5C53.1,41.7,51.2,40.9,49,40.9L49,40.9z M42,41.7
		c1.8-1.8,4.3-2.9,7-2.9c2.7,0,5.2,1.1,7,2.9c1.8,1.8,2.9,4.3,2.9,7c0,2.7-1.1,5.2-2.9,7c-1.8,1.8-4.3,2.9-7,2.9
		c-2.7,0-5.2-1.1-7-2.9c-1.8-1.8-2.9-4.3-2.9-7C39.2,46,40.3,43.5,42,41.7L42,41.7z M43.1,83.7c-0.5,0.5-1.4,0.5-2,0
		c-0.5-0.5-0.5-1.4,0-2l40.5-40.8c0.5-0.5,1.4-0.5,2,0c0.5,0.5,0.5,1.4,0,2L43.1,83.7L43.1,83.7z M76,68.5c-2.2,0-4.1,0.9-5.5,2.3
		c-1.4,1.4-2.3,3.4-2.3,5.5c0,2.2,0.9,4.1,2.3,5.5c1.4,1.4,3.4,2.3,5.5,2.3c2.2,0,4.1-0.9,5.5-2.3c1.4-1.4,2.3-3.4,2.3-5.5
		c0-2.2-0.9-4.1-2.3-5.5C80.1,69.4,78.1,68.5,76,68.5L76,68.5z M69,69.3c-1.8,1.8-2.9,4.3-2.9,7c0,2.7,1.1,5.2,2.9,7
		c1.8,1.8,4.3,2.9,7,2.9c2.7,0,5.2-1.1,7-2.9c1.8-1.8,2.9-4.3,2.9-7c0-2.7-1.1-5.2-2.9-7c-1.8-1.8-4.3-2.9-7-2.9
		C73.3,66.4,70.8,67.6,69,69.3z"/>
</g>
</svg>
