<?xml version="1.0" encoding="utf-8"?>
<!-- Generator: Adobe Illustrator 25.2.3, SVG Export Plug-In . SVG Version: 6.00 Build 0)  -->
<svg version="1.1" id="Layer_1" xmlns="http://www.w3.org/2000/svg" xmlns:xlink="http://www.w3.org/1999/xlink" x="0px" y="0px"
	 viewBox="0 0 125 125" style="enable-background:new 0 0 125 125;" xml:space="preserve">
<style type="text/css">
	.st0{fill-rule:evenodd;clip-rule:evenodd;fill:#6A8DC4;}
	.st1{fill-rule:evenodd;clip-rule:evenodd;fill:#27376E;}
	.st2{fill-rule:evenodd;clip-rule:evenodd;fill:none;stroke:#FFF100;stroke-width:0.3401;stroke-miterlimit:22.9256;}
</style>
<g>
	<circle class="st0" cx="62.5" cy="62.5" r="62.5"/>
	<g>
		<g>
			<path class="st1" d="M79.8,38.7c-2.2-1.6-4.7-2.9-7.2-3.8c-2.2-0.8-4.6-1.4-7-1.6c-0.5-0.9-1-1.8-1.6-2.7
				c3.3,0.2,6.4,0.8,9.5,1.9c3.5,1.3,6.7,3.1,9.6,5.5c0.2,0.1,0.3,0.3,0.4,0.5c0.3,0.6,0,1.4-0.7,1.7L81,40.9l16.1,5.5l-5.3-16.1
				L91,32.2c-0.1,0.1-0.1,0.3-0.2,0.4c-0.5,0.5-1.3,0.6-1.8,0.1c-3.6-3.2-7.8-5.7-12.3-7.4c-4.5-1.7-9.3-2.6-14.1-2.6
				c-2.5,0-4.9,0.3-7.3,0.7c-1.5-0.6-3-1.1-4.7-1.4c3.8-1.2,7.8-1.9,11.9-1.9c5.2,0,10.3,1,15,2.8c4.2,1.6,8.2,3.9,11.8,6.8l1.5-3.4
				c0.3-0.6,1-0.9,1.7-0.7c0.3,0.1,0.6,0.4,0.7,0.8l0,0l7.2,21.7c0.2,0.7-0.1,1.4-0.8,1.6c-0.3,0.1-0.6,0.1-0.9,0L77,42.3
				c-0.7-0.2-1-0.9-0.8-1.6c0.1-0.4,0.4-0.6,0.7-0.8L79.8,38.7L79.8,38.7z M33.4,59.4c-0.3,1.6-0.4,3.3-0.4,5c0,0.7-0.6,1.3-1.3,1.3
				H21.4c-0.7,0-1.3-0.6-1.3-1.3c0-7.5,2-14.8,5.4-21.2c0,1.6,0.2,3.1,0.6,4.6c-2.1,4.8-3.3,10-3.4,15.3h7.8c0.1-2,0.3-3.9,0.7-5.8
				c0.2,0.2,0.3,0.3,0.5,0.5C32.3,58.4,32.8,58.9,33.4,59.4z"/>
		</g>
		<g>
			<path class="st1" d="M45.2,86.3c2.2,1.6,4.7,2.9,7.2,3.8C55.6,91.3,59,92,62.5,92c0.1,0,0.3,0,0.4,0v2.6c-0.1,0-0.3,0-0.4,0
				c-3.8,0-7.5-0.7-11-1.9c-3.5-1.3-6.7-3.1-9.6-5.5c-0.2-0.1-0.3-0.3-0.4-0.5c-0.3-0.6,0-1.4,0.7-1.7l1.8-0.8l-16.1-5.5l5.3,16.1
				l0.8-1.9c0.1-0.1,0.1-0.3,0.2-0.4c0.5-0.5,1.3-0.6,1.8-0.1c3.6,3.2,7.8,5.7,12.3,7.4c4.5,1.7,9.3,2.6,14.1,2.6c0.5,0,1.1,0,1.6,0
				c0,0,0.1,0.1,0.1,0.1c0.8,0.8,1.9,1.3,3.1,1.3h4.9c-3.1,0.8-6.4,1.2-9.7,1.2c-5.2,0-10.3-1-15-2.8c-4.2-1.6-8.2-3.9-11.8-6.8
				l-1.5,3.4c-0.3,0.6-1,0.9-1.7,0.7c-0.3-0.1-0.6-0.4-0.7-0.8l0,0L24.6,77c-0.2-0.7,0.1-1.4,0.8-1.6c0.3-0.1,0.6-0.1,0.9,0L48,82.7
				c0.7,0.2,1,0.9,0.8,1.6c-0.1,0.4-0.4,0.6-0.7,0.8L45.2,86.3L45.2,86.3z M91.1,67.9c0.6-2.4,0.9-4.8,0.9-7.2
				c0-0.7,0.6-1.3,1.3-1.3h10.4c0.7,0,1.3,0.6,1.3,1.3c0,6.9-1.7,13.6-4.6,19.6v-6.8c1.2-3.7,1.9-7.6,2-11.5h-7.8
				c-0.1,2-0.3,4-0.8,6H91.1z"/>
		</g>
		<path class="st1" d="M37.8,35c-0.7,0-1.3,0.3-1.7,0.7l0,0c-0.4,0.4-0.7,1-0.7,1.7c0,0.7,0.3,1.3,0.7,1.7h0c0.4,0.4,1,0.7,1.7,0.7
			c0.7,0,1.3-0.3,1.7-0.7c0.4-0.4,0.7-1,0.7-1.7s-0.3-1.3-0.7-1.7v0C39,35.2,38.4,35,37.8,35L37.8,35z M34.2,33.9L34.2,33.9
			c0.9-0.9,2.2-1.5,3.5-1.5c1.4,0,2.6,0.6,3.5,1.5l0,0c0.9,0.9,1.5,2.1,1.5,3.5c0,1.4-0.6,2.6-1.5,3.5c-0.9,0.9-2.1,1.5-3.5,1.5
			c-1.4,0-2.6-0.6-3.5-1.5l0,0c-0.9-0.9-1.5-2.1-1.5-3.5C32.8,36,33.3,34.8,34.2,33.9z"/>
		<path class="st1" d="M42.4,52.3c-0.4,0.6-1.1,0.8-1.7,0.4c-0.6-0.4-0.8-1.1-0.4-1.7l10.7-17.9c0.4-0.6,1.1-0.8,1.7-0.4
			c0.6,0.4,0.8,1.1,0.4,1.7L42.4,52.3z"/>
		<path class="st1" d="M55.7,45.6c-0.7,0-1.3,0.3-1.7,0.7l0,0c-0.4,0.4-0.7,1-0.7,1.7c0,0.7,0.3,1.3,0.7,1.7h0
			c0.4,0.4,1,0.7,1.7,0.7s1.3-0.3,1.7-0.7c0.4-0.4,0.7-1,0.7-1.7c0-0.7-0.3-1.3-0.7-1.7v0C57,45.9,56.4,45.6,55.7,45.6L55.7,45.6z
			 M52.2,44.5L52.2,44.5c0.9-0.9,2.2-1.5,3.5-1.5c1.4,0,2.6,0.6,3.5,1.5l0,0c0.9,0.9,1.5,2.1,1.5,3.5c0,1.4-0.6,2.6-1.5,3.5
			c-0.9,0.9-2.1,1.5-3.5,1.5s-2.6-0.6-3.5-1.5l0,0c-0.9-0.9-1.5-2.1-1.5-3.5C50.7,46.7,51.3,45.5,52.2,44.5z"/>
		<path class="st2" d="M31.7,27.8c3.8-3.8,9.1-6.2,15-6.2c5.9,0,11.2,2.4,15,6.2c3.8,3.8,6.2,9.1,6.2,15c0,5.9-2.4,11.2-6.2,15
			c-3.8,3.8-9.1,6.2-15,6.2c-5.9,0-11.2-2.4-15-6.2c-3.8-3.8-6.2-9.1-6.2-15C25.5,37,27.9,31.7,31.7,27.8z"/>
		<g>
			<path class="st1" d="M77.2,80.9h1.9c0.7,0,1.3,0.6,1.3,1.3l0,0c0,0.7-0.6,1.3-1.3,1.3h-1.9c-0.7,0-1.3-0.6-1.3-1.3l0,0
				C75.8,81.5,76.4,80.9,77.2,80.9z"/>
			<path class="st1" d="M77.2,88.1h1.9c0.7,0,1.3,0.6,1.3,1.3l0,0c0,0.7-0.6,1.3-1.3,1.3h-1.9c-0.7,0-1.3-0.6-1.3-1.3l0,0
				C75.8,88.7,76.4,88.1,77.2,88.1z"/>
			<path class="st1" d="M77.2,95.2h1.9c0.7,0,1.3,0.6,1.3,1.3l0,0c0,0.7-0.6,1.3-1.3,1.3h-1.9c-0.7,0-1.3-0.6-1.3-1.3l0,0
				C75.8,95.8,76.4,95.2,77.2,95.2z"/>
			<path class="st1" d="M84.4,88.1h1.9c0.7,0,1.3,0.6,1.3,1.3l0,0c0,0.7-0.6,1.3-1.3,1.3h-1.9c-0.7,0-1.3-0.6-1.3-1.3l0,0
				C83.1,88.7,83.7,88.1,84.4,88.1z"/>
			<path class="st1" d="M91.7,88.1h1.9c0.7,0,1.3,0.6,1.3,1.3l0,0c0,0.7-0.6,1.3-1.3,1.3h-1.9c-0.7,0-1.3-0.6-1.3-1.3l0,0
				C90.4,88.7,91,88.1,91.7,88.1z"/>
			<path class="st1" d="M84.4,80.9h1.9c0.7,0,1.3,0.6,1.3,1.3l0,0c0,0.7-0.6,1.3-1.3,1.3h-1.9c-0.7,0-1.3-0.6-1.3-1.3l0,0
				C83.1,81.5,83.7,80.9,84.4,80.9z"/>
			<path class="st1" d="M91.7,80.9h1.9c0.7,0,1.3,0.6,1.3,1.3l0,0c0,0.7-0.6,1.3-1.3,1.3h-1.9c-0.7,0-1.3-0.6-1.3-1.3l0,0
				C90.4,81.5,91,80.9,91.7,80.9z"/>
			<path class="st1" d="M69.9,88.1h1.9c0.7,0,1.3,0.6,1.3,1.3l0,0c0,0.7-0.6,1.3-1.3,1.3h-1.9c-0.7,0-1.3-0.6-1.3-1.3l0,0
				C68.6,88.7,69.2,88.1,69.9,88.1z"/>
			<path class="st1" d="M71.8,95.2h-1.9c-0.7,0-1.3,0.6-1.3,1.3l0,0c0,0.7,0.6,1.3,1.3,1.3h1.9c0.7,0,1.3-0.6,1.3-1.3l0,0
				C73.2,95.8,72.6,95.2,71.8,95.2z"/>
			<path class="st1" d="M86.4,95.2h-1.9c-0.7,0-1.3,0.6-1.3,1.3l0,0c0,0.7,0.6,1.3,1.3,1.3h1.9c0.7,0,1.3-0.6,1.3-1.3l0,0
				C87.7,95.8,87.1,95.2,86.4,95.2z"/>
		</g>
		<path class="st1" d="M66.3,66.6h30.7c1.3,0,2.4,0.5,3.3,1.4c0.8,0.8,1.4,2,1.4,3.3v29c0,1.3-0.5,2.4-1.4,3.3
			c-0.8,0.8-2,1.4-3.3,1.4H66.3c-1.3,0-2.4-0.5-3.3-1.4c-0.8-0.8-1.4-2-1.4-3.3v-29c0-1.3,0.5-2.4,1.4-3.3
			C63.8,67.2,65,66.6,66.3,66.6L66.3,66.6z M64.2,73.7H99v-2.4c0-0.6-0.2-1.1-0.6-1.5c-0.4-0.4-0.9-0.6-1.5-0.6H66.3
			c-0.6,0-1.1,0.2-1.5,0.6c-0.4,0.4-0.6,0.9-0.6,1.5V73.7L64.2,73.7z M99,76.3H64.2v24c0,0.6,0.2,1.1,0.6,1.5
			c0.4,0.4,0.9,0.6,1.5,0.6h30.7c0.6,0,1.1-0.2,1.5-0.6c0.4-0.4,0.6-0.9,0.6-1.5V76.3z"/>
		<path class="st1" d="M46.7,22.7c-5.6,0-10.6,2.3-14.3,5.9c-3.6,3.6-5.9,8.7-5.9,14.3c0,5.6,2.3,10.6,5.9,14.3
			c3.6,3.6,8.7,5.9,14.3,5.9c5.6,0,10.6-2.3,14.3-5.9c3.6-3.6,5.9-8.7,5.9-14.3c0-5.6-2.3-10.6-5.9-14.3
			C57.3,24.9,52.3,22.7,46.7,22.7L46.7,22.7z M30.7,26.8c4.1-4.1,9.8-6.7,16.1-6.7c6.3,0,12,2.5,16.1,6.7c4.1,4.1,6.7,9.8,6.7,16.1
			c0,6.3-2.5,12-6.7,16.1c-4.1,4.1-9.8,6.7-16.1,6.7c-6.3,0-12-2.5-16.1-6.7c-4.1-4.1-6.7-9.8-6.7-16.1C24,36.6,26.6,30.9,30.7,26.8
			z"/>
	</g>
</g>
</svg>
