<?xml version="1.0" encoding="utf-8"?>
<!-- Generator: Adobe Illustrator 25.2.1, SVG Export Plug-In . SVG Version: 6.00 Build 0)  -->
<svg version="1.1" id="Layer_1" xmlns="http://www.w3.org/2000/svg" xmlns:xlink="http://www.w3.org/1999/xlink" x="0px" y="0px"
	 viewBox="0 0 125 125" style="enable-background:new 0 0 125 125;" xml:space="preserve">
<style type="text/css">
	.st0{fill-rule:evenodd;clip-rule:evenodd;fill:#27376E;}
	.st1{fill-rule:evenodd;clip-rule:evenodd;fill:#6A8DC4;}
</style>
<g>
	<circle class="st0" cx="63" cy="62.8" r="62.5"/>
	<path class="st1" d="M64.8,74.8c-0.8,0-1.6,0.3-2.1,0.9c-0.5,0.5-0.9,1.3-0.9,2.1s0.3,1.6,0.9,2.1c0.5,0.5,1.3,0.9,2.1,0.9
		c0.8,0,1.6-0.3,2.1-0.9c0.5-0.5,0.9-1.3,0.9-2.1s-0.3-1.6-0.9-2.1C66.4,75.1,65.7,74.8,64.8,74.8L64.8,74.8z M56.2,81.8
		c-0.5,0.9-1.2,1.7-1.9,2.4c-2.2,2.2-5.3,3.6-8.6,3.6c-3.4,0-6.4-1.4-8.6-3.6c-2.2-2.2-3.6-5.3-3.6-8.6c0-3.4,1.4-6.4,3.6-8.6
		c0.7-0.7,1.4-1.2,2.2-1.7c-1.3-1.3-2.6-2.6-3.9-3.8c-1.2-1.2-1.9-2.7-2-4.1c-0.1-1.5,0.4-3,1.7-4.2c5.8-5.8,11.7-11.5,17.5-17.2
		c1.3-1.3,3-1.9,4.7-1.9c1.7,0,3.4,0.7,4.7,2h0l7.7,7.6c0.5-0.9,1.2-1.7,1.9-2.5c2.2-2.2,5.3-3.6,8.6-3.6c3.4,0,6.4,1.4,8.6,3.6
		c2.2,2.2,3.6,5.3,3.6,8.6c0,3.4-1.4,6.4-3.6,8.6c-0.7,0.7-1.5,1.3-2.4,1.8l4.3,4.3c0,0,0.1,0.1,0.1,0.1c1.3,1.3,1.8,2.6,1.8,4
		c-0.1,1.4-0.7,2.7-2,3.9c-0.4,0.8-15.5,15.3-17.5,17.3c-1.3,1.3-2.9,1.9-4.4,1.9c-1.6,0-3.1-0.7-4.5-2C61.6,87,58.9,84.4,56.2,81.8
		L56.2,81.8z M40.6,66.6c-0.8,0.5-1.6,1-2.2,1.7c-1.9,1.9-3,4.5-3,7.4c0,2.9,1.2,5.5,3,7.4c1.9,1.9,4.5,3,7.4,3c2.9,0,5.5-1.2,7.4-3
		c0.7-0.7,1.3-1.6,1.8-2.5c-2.6-2.6-5.3-5.1-7.9-7.7V75c0.9,0.3,1.7,0.7,2.3,1.2c0.9,0.8,1.4,1.7,1.4,2.7c0,1.1-0.5,2-1.4,2.7
		c-0.6,0.5-1.4,0.8-2.3,0.9v0.4c0,0.5-0.4,0.9-0.9,0.9s-0.9-0.4-0.9-0.9v-0.4c-0.5-0.1-1.1-0.3-1.5-0.6c-0.8-0.5-1.5-1.1-1.9-1.8
		c-0.3-0.4-0.2-1,0.3-1.2c0.4-0.3,1-0.2,1.2,0.2c0.3,0.5,0.8,0.9,1.4,1.2c0.2,0.1,0.4,0.2,0.6,0.3v-4.1c-0.8-0.2-1.6-0.6-2.2-1.1
		c-0.9-0.7-1.6-1.7-1.6-2.5c0-1.1,0.6-2.1,1.4-2.8c0.2-0.2,0.5-0.3,0.7-0.5C42.6,68.5,41.6,67.6,40.6,66.6L40.6,66.6z M45.2,71.1
		L45,70.9c-0.4,0.1-0.7,0.3-0.9,0.5c-0.5,0.4-0.7,0.9-0.7,1.4c0,0.3,0.3,0.7,0.9,1.1c0.3,0.2,0.7,0.5,1.1,0.6V71.1L45.2,71.1z
		 M85.1,58.9c0.9-0.5,1.7-1.1,2.4-1.8c1.9-1.9,3-4.5,3-7.4c0-2.9-1.2-5.5-3-7.4c-1.9-1.9-4.5-3-7.4-3c-2.9,0-5.5,1.2-7.4,3
		c-0.7,0.7-1.4,1.6-1.9,2.5l8.8,8.7v-3c-0.8-0.2-1.6-0.6-2.2-1.1c-0.9-0.7-1.6-1.7-1.6-2.5c0-1.1,0.6-2.1,1.4-2.8
		c0.6-0.5,1.5-0.9,2.3-1V42c0-0.5,0.4-0.9,0.9-0.9c0.5,0,0.9,0.4,0.9,0.9v1.1c0.7,0.1,1.3,0.4,1.9,0.7c0.8,0.5,1.5,1.2,1.7,2
		c0.1,0.5-0.2,1-0.6,1.1c-0.5,0.1-1-0.2-1.1-0.6c-0.1-0.3-0.4-0.6-0.8-0.9c-0.3-0.2-0.7-0.3-1-0.4v4.2c0.9,0.3,1.7,0.7,2.3,1.2
		c0.9,0.8,1.4,1.7,1.4,2.7c0,1.1-0.5,2-1.4,2.7c-0.4,0.3-0.8,0.5-1.3,0.7L85.1,58.9L85.1,58.9z M81.5,50.9v3.8
		c0.5-0.1,0.9-0.3,1.2-0.5c0.4-0.3,0.6-0.7,0.6-1.2c0-0.4-0.3-0.9-0.8-1.3C82.3,51.3,81.9,51.1,81.5,50.9L81.5,50.9z M79.7,48.6
		v-3.7c-0.5,0.1-0.9,0.3-1.2,0.6c-0.5,0.4-0.7,0.9-0.7,1.4c0,0.3,0.3,0.7,0.9,1.1C78.9,48.2,79.3,48.4,79.7,48.6L79.7,48.6z
		 M65.8,82.2c0.9-0.2,1.7-0.6,2.3-1.2c0.7-0.7,1.1-1.5,1.3-2.5c0.6,0.1,1.1,0.4,1.5,0.8c0.5,0.5,0.9,1.3,0.9,2.1
		c0,0.8-0.3,1.6-0.9,2.1c-0.5,0.5-1.3,0.9-2.1,0.9c-0.8,0-1.6-0.3-2.1-0.9C66.2,83.2,65.9,82.7,65.8,82.2L65.8,82.2z M69.3,77
		c1,0.1,1.9,0.6,2.6,1.3c0.8,0.8,1.3,2,1.3,3.2c0,1.3-0.5,2.4-1.3,3.2c-0.8,0.8-2,1.3-3.2,1.3c-1.2,0-2.4-0.5-3.2-1.3
		c-0.7-0.6-1.1-1.5-1.3-2.4c-1-0.1-1.9-0.6-2.6-1.3c-0.8-0.8-1.3-2-1.3-3.2c0-1.3,0.5-2.4,1.3-3.2c0.8-0.8,2-1.3,3.2-1.3
		c1.3,0,2.4,0.5,3.2,1.3C68.7,75.2,69.1,76,69.3,77L69.3,77z M40.7,56l3.5,3.5c0.4,0.4,1,0.4,1.4,0c0.4-0.4,0.4-1,0-1.4l-3.5-3.5
		c-0.4-0.4-1-0.4-1.4,0C40.3,55,40.3,55.6,40.7,56L40.7,56z M44.2,52.7l11.5,11.4c0.4,0.4,1,0.4,1.4,0c0.4-0.4,0.4-1,0-1.4
		L45.6,51.2c-0.4-0.4-1-0.4-1.4,0C43.8,51.6,43.8,52.3,44.2,52.7L44.2,52.7z M49.2,48c-0.4-0.4-0.4-1,0-1.4c0.4-0.4,1-0.4,1.4,0
		L78.5,74c0.4,0.4,0.4,1,0,1.4c-0.4,0.4-1,0.4-1.4,0L49.2,48L49.2,48z M55,42.4l27.8,27.4c0.4,0.4,1,0.4,1.4,0c0.4-0.4,0.4-1,0-1.4
		L56.4,41c-0.4-0.4-1-0.4-1.4,0C54.6,41.4,54.6,42,55,42.4L55,42.4z M89.3,65.9L89.3,65.9c0.9,0.9,1.3,1.8,1.3,2.6
		c0,0.8-0.5,1.7-1.4,2.6l-0.1,0.1L71.7,88.3c-0.9,0.9-1.9,1.3-3,1.3c-1.1,0-2.1-0.5-3-1.4L36.9,60c-0.9-0.9-1.4-1.9-1.4-2.8
		c-0.1-0.9,0.3-1.8,1.1-2.7L54,37.3c0.9-0.9,2.1-1.3,3.3-1.3h0c1.2,0,2.4,0.5,3.3,1.4L89.3,65.9L89.3,65.9z M47,76.9v3.8
		c0.5-0.1,0.9-0.3,1.2-0.5c0.4-0.3,0.6-0.7,0.6-1.2c0-0.4-0.3-0.9-0.8-1.3C47.8,77.3,47.4,77,47,76.9L47,76.9z M47.9,63l2.7,2.7
		c0.4,0.4,1,0.4,1.4,0c0.4-0.4,0.4-1,0-1.4l-2.7-2.7c-0.4-0.4-1-0.4-1.4,0C47.5,62,47.5,62.6,47.9,63z"/>
</g>
</svg>
