<?xml version="1.0" encoding="utf-8"?>
<!-- Generator: Adobe Illustrator 25.2.1, SVG Export Plug-In . SVG Version: 6.00 Build 0)  -->
<svg version="1.1" id="Layer_1" xmlns="http://www.w3.org/2000/svg" xmlns:xlink="http://www.w3.org/1999/xlink" x="0px" y="0px"
	 viewBox="0 0 5825 1000" style="enable-background:new 0 0 5825 1000;" xml:space="preserve">
<style type="text/css">
	.st0{fill:#27376E;}
	.st1{fill:#6A8DC4;}
	.st2{fill:#365D93;}
</style>
<g>
	<g>
		<polygon class="st0" points="2373.6,793.4 2373.6,969.2 2347,969.2 2347,793.4 2280,793.4 2280,770.1 2440.3,770.1 2440.3,793.4 
					"/>
	</g>
	<path class="st0" d="M26.9,854.3c23.5,0,45.6,1.6,67.3-0.5c19.5-1.9,27.1-13.5,26.2-32.4c-0.8-16.3-9-26.3-26.8-27.5
		c-21.8-1.4-43.8-0.3-66.6-0.3V854.3z M26.7,945.5c25.7,0,50,1.5,74-0.5c19-1.6,28.4-15.5,28.1-34.5c-0.3-16.4-9.5-29.2-27.1-30.6
		c-24.6-1.9-49.5-0.5-74.9-0.5V945.5z M122.5,863.5c28.5,15.9,37.7,33.7,32.1,60.2c-5.7,26.7-26.1,44.3-55.3,45.1
		C67,969.7,34.7,969,0.8,969V771.3c34.1,0,67.6-0.6,101.1,0.2c21.5,0.5,36.9,12,43.4,32.6c6.3,20.1,1.9,38.3-14.7,52.5
		C128.4,858.4,126.3,860.3,122.5,863.5"/>
	<path class="st1" d="M3570.9,635.9h-77.7c83-201.8,167.4-401.6,249.5-601.3l0.1,0c12.7,31.6,27.5,63.2,40.2,94.8
		C3783,129.4,3574.3,628.9,3570.9,635.9"/>
	<path class="st2" d="M3744.3,221.9l38.6-92.5c0,0,65.3,157.3,97.9,236.1c35.8,86.7,108.6,265.1,110,269.5h-78.1
		C3856.7,497.5,3800.7,360.3,3744.3,221.9"/>
	<path class="st1" d="M5031.2,635.9h-77.7c83-201.8,167.4-401.6,249.5-601.3l0.1,0c12.7,31.6,27.5,63.2,40.2,94.8
		C5243.2,129.4,5034.5,628.9,5031.2,635.9"/>
	<path class="st2" d="M5204.6,221.9l38.6-92.5c0,0,65.3,157.3,97.9,236.1c35.8,86.7,108.6,265.1,110,269.5H5373
		C5317,497.5,5261,360.3,5204.6,221.9"/>
	<path class="st1" d="M866.7,637H789c83-201.9,167.4-401.6,249.5-601.4l0.1,0c12.7,31.6,27.5,63.2,40.2,94.8
		C1078.8,130.4,870.1,630,866.7,637"/>
	<path class="st2" d="M1040.2,222.9l38.7-92.5c0,0,65.4,157.4,97.9,236.1c35.8,86.7,108.7,266.2,110,270.6h-78.1
		C1152.6,499.6,1096.6,361.3,1040.2,222.9"/>
	<path class="st0" d="M2897.5,293.7c6-53.5,24.1-100.6,54.5-141.4c30.4-40.8,68.3-72.1,113.8-94c45.5-21.9,93.1-32.9,143.1-32.9
		c27.3,0,53.9,3.3,80,9.9c26.1,6.6,51,16.7,74.7,30.1c23.8,13.4,45.9,30.4,66.3,50.9c20.5,20.5,38.4,44.7,53.9,72.5h-66.7
		c-17.3-22.8-37.3-42-59.8-57.6c-22.5-15.6-46.1-27.1-70.9-34.5s-49.5-11.1-74.3-11.1c-33.1,0-65,6-95.8,17.9
		c-30.8,11.9-58.2,29-82.4,51.4c-24.2,22.4-43.2,49.2-57.2,80.6c-14,31.4-21,65.7-21,103c0.5,48,12.8,91.2,36.6,129.5
		c23.9,38.3,55.3,68.1,94.2,89.5c38.9,21.4,80.1,32.4,123.7,33c25.5-0.7,51-5,76.3-13.1c25.3-8.1,49.3-20.2,72.1-36.4
		c22.8-16.2,43-36.6,60.8-61.2h66.7c-21.8,37.5-47.4,68.7-76.6,93.6c-29.2,24.9-60.7,43.4-94.4,55.3c-33.7,12-68.6,18-104.8,18
		c-39.8,0-78.6-7.4-116.4-22.1c-37.8-14.8-71.7-36-101.9-63.7c-30.1-27.7-53.8-60.9-71.2-99.7c-17.4-38.8-26-81.1-26-126.9
		C2894.9,320.7,2895.8,307.1,2897.5,293.7"/>
	<g>
		<path class="st0" d="M4100.8,88.8v251.4h124.5c53,0,91.8-12.2,116.6-36.5c24.8-24.4,37.1-57.2,37.1-98.5
			c-2.2-42.8-18.6-72.8-48.9-90.2c-30.4-17.4-71.8-26.1-124.2-26.1H4100.8z M4040.6,637V35.2h157.8c47.4,0,88.2,5,122.4,15
			c34.2,10,61.7,27.5,82.6,52.6c20.8,25.1,32.7,59.2,35.7,102.4c0.5,3.9,0.8,9.3,0.8,16.3c0,33.4-8.8,63.2-26.5,89.4
			c-17.7,26.2-42.4,46.6-74,61.2c-31.6,14.6-67.5,21.8-107.6,21.8h-131.1V637H4040.6z"/>
	</g>
	<g>
		<rect x="4521.1" y="35.2" class="st0" width="60.2" height="601.9"/>
	</g>
	<g>
		<polygon class="st0" points="4787.9,637 4787.9,88.8 4649.7,88.8 4649.7,35.2 4984.7,35.2 4984.7,88.8 4848.1,88.8 4848.1,637 		
			"/>
	</g>
	<g>
		<polygon class="st0" points="1406.9,637 1406.9,88.8 1268.7,88.8 1268.7,35.2 1603.7,35.2 1603.7,88.8 1467.1,88.8 1467.1,637 		
			"/>
	</g>
	<g>
		<polygon class="st0" points="605.7,637 605.7,88.8 467.5,88.8 467.5,35.2 802.5,35.2 802.5,88.8 665.9,88.8 665.9,637 		"/>
	</g>
	<g>
		<polygon class="st0" points="5574.4,585.8 5824.2,585.8 5824.2,637 5514.3,637 5514.3,35.2 5574.4,35.2 		"/>
	</g>
	<path class="st0" d="M1529.9,861l-44.3-9.8c-10.1-2-17.8-5.3-22.9-10c-5.2-4.7-7.7-11.2-7.7-19.8c0-10.7,4.2-19.4,12.8-26
		c8.5-6.6,19.6-10,33.4-10c14,0,25.7,3.6,35.2,10.7c7.9,5.9,13.1,13.6,16,22.8h25.4c-3.5-16.3-12-29.4-25.5-39.2
		c-13.7-9.9-30.5-14.9-50.6-14.9c-21.7,0-39.1,5.3-52.4,15.8c-13.3,10.5-19.9,24.3-19.9,41.3c0,26.8,16.3,43.7,48.9,50.9l45.9,9.8
		c11.7,2.6,20.2,6.1,25.4,10.7c5.2,4.6,7.7,11.4,7.7,20.5c0,11.1-4.4,20.1-13.2,26.9c-8.8,6.8-20.9,10.3-36.3,10.3
		c-16,0-29.3-3.8-40.1-11.4c-9.1-6.5-14.9-15.3-17.9-26.2h-26.5c2.6,18,11.4,32.2,26.4,42.6c15.3,10.6,34,15.9,56,15.9
		c22.9,0,41.2-5.4,55-16.1c13.8-10.7,20.7-25.1,20.7-43.1C1581.2,885.4,1564.1,868.2,1529.9,861"/>
	<path class="st0" d="M275.3,975c48.4,0,79.8-28.3,79.8-72.1V770.1h-27.4V902c0,32.3-19.1,50.8-52.4,50.8
		c-33.5,0-52.7-18.5-52.7-50.8V770.1h-27v132.8C195.5,946.7,226.8,975,275.3,975"/>
	<g>
		<rect x="406.2" y="770.1" class="st0" width="24.4" height="199.2"/>
	</g>
	<g>
		<polygon class="st0" points="482.7,969.3 482.7,770.7 509.4,770.7 509.4,945.5 614.9,945.5 614.9,969.3 		"/>
	</g>
	<g>
		<path class="st0" d="M711.3,944.9c36.8,0,67.2-24.4,67.2-74.6c0-50.2-30.1-75.4-66.6-75.4h-41v150H711.3z M643.6,969.3V770.5h69.1
			c50.2,0,93.9,34.8,93.9,99.8c0,65-44.3,99-94.5,99H643.6z"/>
	</g>
	<g>
		<rect x="847" y="770.1" class="st0" width="24.4" height="199.2"/>
	</g>
	<g>
		<polygon class="st0" points="1051,969.2 951.1,810.4 951.1,969.2 925.8,969.2 925.8,770.5 957.7,770.5 1054.9,922.6 1055.1,770.5 
			1081.2,770.5 1081.2,969.2 		"/>
	</g>
	<g>
		<path class="st0" d="M1285,968.6l-2.5-28.1c-9,15.7-30.1,32.3-64,32.3c-50.4,0-96.9-36.6-96.9-104c0-67.5,49.3-103.8,98.9-103.8
			c43.4,0,77.2,24.2,88.4,60.2l-25.1,10.7c-9-29-32.1-45.6-63.4-45.6c-35.8,0-70.7,25.6-70.7,78.5c0,52.9,33.5,79,69.6,79
			c44.5,0,60.3-36.1,61.7-56.7h-69.3v-24.8h95.5v102.2H1285z"/>
	</g>
	<path class="st0" d="M1705.1,946.7c36.9,0,71.6-26.6,71.6-78.3c0-51.8-34.7-78-71.6-78c-36.9,0-71.6,26.3-71.6,78
		C1633.5,920.1,1668.2,946.7,1705.1,946.7 M1705.1,765.2c50.1,0,99.6,37.2,99.6,103.2c0,66.3-49.5,103.5-99.6,103.5
		c-50.1,0-99.6-37.2-99.6-103.5C1605.6,802.4,1655.1,765.2,1705.1,765.2"/>
	<path class="st0" d="M1827.5,868.4c0-66,48.9-103.2,98.4-103.2c45.6,0,76.7,24.6,87.3,62.9l-25.4,9c-7.6-30.2-29.1-46.7-61.8-46.7
		c-36.1,0-70.5,26.3-70.5,78c0,51.7,34.4,78.3,70.5,78.3c33.8,0,54.8-20.4,63.2-47.6l24.3,8.9c-10.3,37.5-41.9,63.8-87.5,63.8
		C1874.7,971.9,1827.5,934.7,1827.5,868.4"/>
	<g>
		<rect x="2046.7" y="770.1" class="st0" width="24.4" height="199.2"/>
	</g>
	<g>
		<polygon class="st0" points="2124.6,969.3 2124.6,770.1 2261.6,770.1 2261.6,793.3 2152.2,793.3 2152.2,854 2252.8,854 
			2252.8,878 2152.2,878 2152.2,945.6 2261.6,945.6 2261.6,969.3 		"/>
	</g>
	<g>
		<polygon class="st0" points="2451.6,770.1 2484.7,770.1 2536.3,858.6 2587.8,770.1 2619.2,770.1 2549.2,883.8 2549.2,969.2 
			2521.7,969.2 2521.7,883.8 		"/>
	</g>
	<g>
		<path class="st0" d="M227.8,648.1c-38.4,0-74.2-7.4-107.4-21.8c-33.2-14.4-60.5-34.3-81.4-59.6c-22.2-27.7-33.3-57.6-33.3-90.3
			h72.5c0,30.8,15.3,56.5,46,77.1c30.7,20.6,65.2,30.8,103.6,30.8c42.6,0,76.7-10.1,102.3-30c25.6-19.9,38.4-46,38.4-78.3
			c0-40.5-26-70.1-78.4-89.2c-8.9-3.1-21.3-7.4-37.5-12.5c-16.2-5.1-25.6-8.2-28.6-9.3c-20.9-6.6-35.4-11.3-43.9-14.4
			c-8.5-3.1-21.7-8.2-39.6-15.2c-17.9-7-31.6-13.6-41.4-19.9c-9.8-6.2-20.9-14.4-32.8-24.9c-11.9-10.5-21.7-21.8-29.8-33.9
			c-12.8-18.7-19.6-40.5-20.5-65.8c-0.9-25.3,3.4-45.6,12.8-61.2c16.6-33.1,41.8-58.8,75-77.1C137,34.4,175.8,25,220.1,25
			c58.4,0,107,16.4,146.2,48.7c39.2,32.3,58.8,72.8,58.8,121.5h-72.5c0-30.8-12.4-56.5-37.5-76.7c-25.2-20.2-56.7-30.4-95.1-30.4
			c-29,0-54.6,5.8-77.2,17.1c-22.6,11.3-38.4,26.9-47.3,46.7C85,173.8,84.6,194.4,94,213.5c13.2,30,44.8,53.4,94.6,70.1l46.5,15.2
			c41.8,12.9,69.5,21.8,83.6,26.9C400,356,441,405.9,441,474.8c0,53.4-21.3,95.4-63.9,126.2c-42.6,30.8-92.5,46-149.6,46
			L227.8,648.1z"/>
	</g>
	<g>
		<path class="st0" d="M2389.5,648.1c-38.4,0-74.2-7.4-107.4-21.8c-33.2-14.4-60.5-34.3-81.4-59.6c-22.2-27.7-33.3-57.6-33.3-90.3
			h72.5c0,30.8,15.3,56.5,46,77.1c30.7,20.6,65.2,30.8,103.6,30.8c42.6,0,76.7-10.1,102.3-30c25.6-19.9,38.4-46,38.4-78.3
			c0-40.5-26-70.1-78.4-89.2c-8.9-3.1-21.3-7.4-37.5-12.5c-16.2-5.1-25.6-8.2-28.6-9.3c-20.9-6.6-35.4-11.3-43.9-14.4
			c-8.5-3.1-21.7-8.2-39.6-15.2c-17.9-7-31.5-13.6-41.4-19.9c-9.8-6.2-20.9-14.4-32.8-24.9c-11.9-10.5-21.7-21.8-29.8-33.9
			c-12.8-18.7-19.6-40.5-20.5-65.8c-0.9-25.3,3.4-45.6,12.8-61.2c16.6-33.1,41.8-58.8,75-77.1c33.3-18.3,72-27.7,116.4-27.7
			c58.4,0,107,16.4,146.2,48.7c39.2,32.3,58.8,72.8,58.8,121.5h-72.5c0-30.8-12.4-56.5-37.5-76.7c-25.2-20.2-56.7-30.4-95.1-30.4
			c-29,0-54.6,5.8-77.2,17.1c-22.6,11.3-38.4,26.9-47.3,46.7c-10.7,21.8-11.1,42.5-1.7,61.5c13.2,30,44.8,53.4,94.6,70.1l46.5,15.2
			c41.8,12.9,69.5,21.8,83.6,26.9c81.4,30.4,122.4,80.2,122.4,149.2c0,53.4-21.3,95.4-63.9,126.2c-42.6,30.8-92.5,46-149.6,46
			L2389.5,648.1z"/>
	</g>
	<g>
		<path class="st0" d="M2023.6,35.2v404c0,90.4-58.7,151.2-146.1,151.2c-88.3,0-145.3-59.3-145.3-151.2v-404h-61.3v409
			c0,118.2,85,200.8,206.7,200.8c122.2,0,207.5-82.6,207.5-200.8v-409H2023.6z"/>
	</g>
</g>
</svg>
