<?xml version="1.0" encoding="utf-8"?>
<!-- Generator: Adobe Illustrator 25.2.1, SVG Export Plug-In . SVG Version: 6.00 Build 0)  -->
<svg version="1.1" id="Layer_1" xmlns="http://www.w3.org/2000/svg" xmlns:xlink="http://www.w3.org/1999/xlink" x="0px" y="0px"
	 viewBox="0 0 135 65" style="enable-background:new 0 0 135 65;" xml:space="preserve">
<style type="text/css">
	.st0{fill-rule:evenodd;clip-rule:evenodd;fill:#27376E;}
	.st1{display:none;}
	.st2{display:inline;fill-rule:evenodd;clip-rule:evenodd;fill:#6A8DC4;}
	.st3{display:inline;fill:#6A8DC4;}
	.st4{fill:#27376E;}
	.st5{display:none;fill-rule:evenodd;clip-rule:evenodd;fill:#6A8DC4;}
	.st6{fill-rule:evenodd;clip-rule:evenodd;fill:#6A8DC4;}
</style>
<circle class="st0" cx="67.5" cy="30.5" r="27.3"/>
<g class="st1">
	<path class="st2" d="M52.3,17.9h30.5c0.1,0,0.2,0.1,0.2,0.2V39c0,0.1-0.1,0.2-0.2,0.2H71.2l1.3,3.4h3.1c0.1,0,0.2,0.1,0.2,0.2
		c0,0.1-0.1,0.2-0.2,0.2H59.4c-0.1,0-0.2-0.1-0.2-0.2c0-0.1,0.1-0.2,0.2-0.2h3.2l1.3-3.4H52.3c-0.1,0-0.2-0.1-0.2-0.2V18
		C52.1,17.9,52.2,17.9,52.3,17.9L52.3,17.9z M57.7,20.1h1.1c0.1,0,0.2-0.1,0.2-0.2c0-0.1-0.1-0.2-0.2-0.2h-1.1
		c-0.1,0-0.2,0.1-0.2,0.2C57.5,20,57.6,20.1,57.7,20.1L57.7,20.1z M55.7,20.1h1.1c0.1,0,0.2-0.1,0.2-0.2c0-0.1-0.1-0.2-0.2-0.2h-1.1
		c-0.1,0-0.2,0.1-0.2,0.2C55.6,20,55.6,20.1,55.7,20.1L55.7,20.1z M53.8,20.1h1.1c0.1,0,0.2-0.1,0.2-0.2c0-0.1-0.1-0.2-0.2-0.2h-1.1
		c-0.1,0-0.2,0.1-0.2,0.2C53.6,20,53.7,20.1,53.8,20.1L53.8,20.1z M77.5,23h1.4l-4.3,4.3L72.4,25c-0.1-0.1-0.2-0.1-0.3,0l-3.1,3.1
		c-0.1,0.1-0.1,0.2,0,0.3c0.1,0.1,0.2,0.1,0.3,0l2.9-2.9l2.3,2.3c0.1,0.1,0.2,0.1,0.3,0l4.4-4.4v1.4c0,0.1,0.1,0.2,0.2,0.2
		c0.1,0,0.2-0.1,0.2-0.2v-1.9c0,0,0-0.1,0-0.1l0,0l0,0l0,0l0,0l0,0c0,0,0,0,0,0l0,0l0,0l0,0l0,0l0,0l0,0l0,0l0,0l0,0l0,0l0,0l0,0
		l0,0l0,0l0,0l0,0l0,0l0,0l0,0l0,0l0,0l0,0l0,0l0,0l0,0l0,0l0,0l0,0l0,0l0,0l0,0l0,0l0,0l0,0l0,0l0,0l0,0l0,0l0,0l0,0l0,0l0,0l0,0
		l0,0c0,0,0,0-0.1,0h-1.9c-0.1,0-0.2,0.1-0.2,0.2C77.3,22.9,77.4,23,77.5,23L77.5,23z M79.2,26.7v6.4c0,0.1,0.1,0.2,0.2,0.2
		c0.1,0,0.2-0.1,0.2-0.2v-6.4c0-0.1-0.1-0.2-0.2-0.2C79.3,26.5,79.2,26.6,79.2,26.7L79.2,26.7z M76.8,28.1v5c0,0.1,0.1,0.2,0.2,0.2
		c0.1,0,0.2-0.1,0.2-0.2v-5c0-0.1-0.1-0.2-0.2-0.2C76.9,27.9,76.8,28,76.8,28.1L76.8,28.1z M74.4,29.5v3.6c0,0.1,0.1,0.2,0.2,0.2
		c0.1,0,0.2-0.1,0.2-0.2v-3.6c0-0.1-0.1-0.2-0.2-0.2C74.5,29.3,74.4,29.4,74.4,29.5L74.4,29.5z M72,28.1v5c0,0.1,0.1,0.2,0.2,0.2
		c0.1,0,0.2-0.1,0.2-0.2v-5c0-0.1-0.1-0.2-0.2-0.2C72.1,27.9,72,28,72,28.1L72,28.1z M69.7,29.5v3.5c0,0.1,0.1,0.2,0.2,0.2
		c0.1,0,0.2-0.1,0.2-0.2v-3.5c0-0.1-0.1-0.2-0.2-0.2C69.7,29.4,69.7,29.4,69.7,29.5L69.7,29.5z M60.9,26.9c0,0.1,0.1,0.2,0.2,0.2
		h4.6c0.1,0,0.2-0.1,0.2-0.2c0-1.3-0.5-2.5-1.4-3.4c-0.9-0.9-2.1-1.4-3.4-1.4c-0.1,0-0.2,0.1-0.2,0.2V26.9L60.9,26.9z M61.3,22.5
		v4.2h4.2c0-1.1-0.5-2.2-1.3-2.9C63.4,23,62.4,22.5,61.3,22.5L61.3,22.5z M60.4,27.9v-4.4c0-0.1-0.1-0.2-0.2-0.2
		c-1.3,0-2.5,0.5-3.4,1.4c-0.9,0.9-1.4,2.1-1.4,3.4c0,1.3,0.5,2.5,1.4,3.4c0.9,0.9,2.1,1.4,3.4,1.4s2.5-0.5,3.4-1.4
		c0.9-0.9,1.4-2.1,1.4-3.4c0-0.1-0.1-0.2-0.2-0.2H60.4L60.4,27.9z M64.6,28.3h-4.4c-0.1,0-0.2-0.1-0.2-0.2v-4.4
		c-1.1,0-2.2,0.5-2.9,1.3c-0.8,0.8-1.3,1.9-1.3,3.1c0,1.2,0.5,2.3,1.3,3.1c0.8,0.8,1.9,1.3,3.1,1.3c1.2,0,2.3-0.5,3.1-1.3
		C64.1,30.4,64.5,29.4,64.6,28.3L64.6,28.3z M52.4,21.2h30.1v-3H52.4V21.2L52.4,21.2z M82.6,21.5H52.4v12.9h30.1V21.5L82.6,21.5z
		 M82.6,34.8H52.4v4h30.1V34.8L82.6,34.8z M70.8,39.1h-6.5L63,42.6h9.1L70.8,39.1L70.8,39.1z M67.5,36.2c-0.3,0-0.6,0.2-0.6,0.6
		c0,0.3,0.2,0.6,0.6,0.6c0.3,0,0.6-0.2,0.6-0.6C68,36.5,67.8,36.2,67.5,36.2L67.5,36.2z M66.6,36.8c0,0.5,0.4,0.9,0.9,0.9
		c0.5,0,0.9-0.4,0.9-0.9c0-0.5-0.4-0.9-0.9-0.9C67,35.9,66.6,36.3,66.6,36.8z"/>
	<path class="st3" d="M75.6,43.1H59.4c-0.2,0-0.3-0.1-0.3-0.3s0.1-0.3,0.3-0.3h3.1l1.2-3.1H52.3c-0.2,0-0.3-0.1-0.3-0.3V18
		c0-0.2,0.1-0.3,0.3-0.3h30.5c0.2,0,0.3,0.1,0.3,0.3V39c0,0.2-0.1,0.3-0.3,0.3H71.4l1.2,3.1h3c0.2,0,0.3,0.1,0.3,0.3
		S75.7,43.1,75.6,43.1z M59.4,42.7C59.4,42.7,59.4,42.7,59.4,42.7C59.4,42.8,59.4,42.8,59.4,42.7l16.1,0.1c0,0,0,0,0,0c0,0,0,0,0,0
		h-3.2L70.9,39h11.8c0,0,0,0,0,0V18c0,0,0,0,0,0H52.3c0,0,0,0,0,0V39c0,0,0,0,0,0h11.9l-1.4,3.7H59.4z M72.3,42.7h-9.5l1.4-3.7h6.7
		L72.3,42.7z M63.2,42.4h8.7l-1.2-3.1h-6.3L63.2,42.4z M82.7,38.9H52.3v-4.3h30.4V38.9z M52.6,38.6h29.8V35H52.6V38.6z M67.5,37.9
		c-0.6,0-1.1-0.5-1.1-1.1c0-0.6,0.5-1.1,1.1-1.1c0.6,0,1.1,0.5,1.1,1.1C68.5,37.4,68.1,37.9,67.5,37.9z M67.5,36
		c-0.4,0-0.8,0.3-0.8,0.8s0.3,0.8,0.8,0.8c0.4,0,0.8-0.3,0.8-0.8S67.9,36,67.5,36z M67.5,37.5c-0.4,0-0.7-0.3-0.7-0.7
		c0-0.4,0.3-0.7,0.7-0.7s0.7,0.3,0.7,0.7C68.2,37.2,67.9,37.5,67.5,37.5z M67.5,36.4c-0.2,0-0.4,0.2-0.4,0.4s0.2,0.4,0.4,0.4
		c0.2,0,0.4-0.2,0.4-0.4S67.7,36.4,67.5,36.4z M82.7,34.6H52.3V21.4h30.4V34.6z M52.6,34.3h29.8V21.7H52.6V34.3z M79.4,33.4
		c-0.2,0-0.3-0.1-0.3-0.3v-6.4c0-0.2,0.1-0.3,0.3-0.3s0.3,0.1,0.3,0.3v6.4C79.7,33.3,79.5,33.4,79.4,33.4z M79.4,26.7
		C79.3,26.7,79.3,26.7,79.4,26.7l0,6.4c0,0,0.1,0,0.1,0L79.4,26.7C79.4,26.7,79.4,26.7,79.4,26.7z M77,33.4c-0.2,0-0.3-0.1-0.3-0.3
		v-5c0-0.2,0.1-0.3,0.3-0.3s0.3,0.1,0.3,0.3v5C77.3,33.3,77.2,33.4,77,33.4z M77,28C77,28,77,28.1,77,28l0,5c0,0,0.1,0,0.1,0L77,28
		C77,28.1,77,28,77,28z M74.6,33.4c-0.2,0-0.3-0.1-0.3-0.3v-3.6c0-0.2,0.1-0.3,0.3-0.3s0.3,0.1,0.3,0.3v3.6
		C74.9,33.3,74.8,33.4,74.6,33.4z M74.6,29.4C74.6,29.4,74.6,29.4,74.6,29.4l0,3.7c0,0,0.1,0,0.1,0L74.6,29.4
		C74.6,29.4,74.6,29.4,74.6,29.4z M72.2,33.4c-0.2,0-0.3-0.1-0.3-0.3v-5c0-0.2,0.1-0.3,0.3-0.3s0.3,0.1,0.3,0.3v5
		C72.6,33.3,72.4,33.4,72.2,33.4z M72.2,28.1C72.2,28.1,72.2,28.1,72.2,28.1l0,5c0,0,0.1,0,0.1,0L72.2,28.1
		C72.3,28.1,72.2,28.1,72.2,28.1z M69.8,33.4c-0.2,0-0.3-0.1-0.3-0.3v-3.5c0-0.2,0.1-0.3,0.3-0.3s0.3,0.1,0.3,0.3v3.5
		C70.2,33.3,70,33.4,69.8,33.4z M69.8,29.5C69.8,29.5,69.8,29.5,69.8,29.5l0,3.6c0,0,0.1,0,0.1,0L69.8,29.5
		C69.9,29.5,69.9,29.5,69.8,29.5z M60.2,33c-1.3,0-2.5-0.5-3.5-1.4c-0.9-0.9-1.4-2.2-1.4-3.5c0-1.3,0.5-2.5,1.4-3.5
		c0.9-0.9,2.2-1.4,3.5-1.4c0.2,0,0.3,0.1,0.3,0.3v4.2h4.2c0.2,0,0.3,0.1,0.3,0.3c0,1.3-0.5,2.5-1.4,3.5C62.7,32.5,61.5,33,60.2,33z
		 M60.2,23.5c-1.2,0-2.4,0.5-3.3,1.3c-0.9,0.9-1.3,2-1.3,3.3c0,1.2,0.5,2.4,1.3,3.3c0.9,0.9,2,1.3,3.3,1.3c1.2,0,2.4-0.5,3.3-1.3
		c0.9-0.9,1.3-2,1.3-3.3c0,0,0,0,0,0h-4.5L60.2,23.5C60.2,23.5,60.2,23.5,60.2,23.5z M60.2,32.6c-1.2,0-2.4-0.5-3.2-1.3
		c-0.9-0.9-1.3-2-1.3-3.2c0-1.2,0.5-2.4,1.3-3.2c0.8-0.8,1.9-1.3,3-1.3l0.2,0v4.5c0,0,0,0,0,0h4.5l0,0.2c0,1.1-0.5,2.2-1.3,3
		C62.5,32.2,61.4,32.6,60.2,32.6z M59.9,23.9c-1,0.1-1.9,0.5-2.7,1.2c-0.8,0.8-1.2,1.9-1.2,3c0,1.1,0.4,2.2,1.2,3
		c0.8,0.8,1.9,1.2,3,1.2c1.1,0,2.2-0.4,3-1.2c0.7-0.7,1.2-1.7,1.2-2.7h-4.2c-0.2,0-0.3-0.1-0.3-0.3V23.9z M69.2,28.5
		c-0.1,0-0.2,0-0.2-0.1c-0.1-0.1-0.1-0.3,0-0.5l3.1-3.1c0.1-0.1,0.3-0.1,0.5,0l2.2,2.2l3.9-3.9h-1.1c-0.2,0-0.3-0.1-0.3-0.3
		s0.1-0.3,0.3-0.3h1.9c0,0,0.1,0,0.1,0l0.1,0.1l0.1,0.1c0,0,0,0,0,0c0,0.1,0,0.1,0,0.1v1.9c0,0.2-0.1,0.3-0.3,0.3S79,24.9,79,24.7
		v-1.1l-4.1,4.1c-0.1,0.1-0.3,0.1-0.5,0l-2.2-2.2l-2.8,2.8C69.4,28.5,69.3,28.5,69.2,28.5z M72.3,25.1
		C72.3,25.1,72.2,25.1,72.3,25.1l-3.1,3.1c0,0,0,0,0,0c0,0,0,0,0,0L72.3,25.1l2.4,2.4c0,0,0,0,0,0l4.7-4.7v1.8c0,0,0.1,0,0.1,0
		l0-1.9l0,0l-1.9,0c0,0,0,0,0,0c0,0,0,0,0,0h1.8l-4.6,4.6L72.3,25.1C72.3,25.1,72.3,25.1,72.3,25.1z M65.7,27.2h-4.6
		c-0.2,0-0.3-0.1-0.3-0.3v-4.6c0-0.2,0.1-0.3,0.3-0.3c1.3,0,2.5,0.5,3.5,1.4c0.9,0.9,1.4,2.2,1.4,3.5C66,27.1,65.8,27.2,65.7,27.2z
		 M61.1,22.3C61.1,22.3,61,22.3,61.1,22.3l0,4.6c0,0,0,0,0,0h4.6c0,0,0,0,0,0c0-1.2-0.5-2.4-1.3-3.3C63.5,22.8,62.3,22.3,61.1,22.3z
		 M65.6,26.8h-4.5v-4.5l0.2,0c1.1,0,2.2,0.5,3,1.3c0.8,0.8,1.3,1.9,1.3,3L65.6,26.8z M61.4,26.5h3.9c-0.1-1-0.5-1.9-1.2-2.7
		c-0.7-0.7-1.7-1.2-2.7-1.2V26.5z M82.7,21.3H52.3v-3.3h30.4V21.3z M52.6,21h29.8v-2.7H52.6V21z M58.8,20.2h-1.1
		c-0.2,0-0.3-0.1-0.3-0.3c0-0.2,0.1-0.3,0.3-0.3h1.1c0.2,0,0.3,0.1,0.3,0.3C59.1,20.1,59,20.2,58.8,20.2z M57.7,19.8
		C57.6,19.8,57.6,19.9,57.7,19.8C57.6,19.9,57.6,19.9,57.7,19.8l1.1,0.1c0,0,0,0,0,0c0,0,0,0,0,0H57.7z M56.9,20.2h-1.1
		c-0.2,0-0.3-0.1-0.3-0.3c0-0.2,0.1-0.3,0.3-0.3h1.1c0.2,0,0.3,0.1,0.3,0.3C57.2,20.1,57,20.2,56.9,20.2z M55.7,19.8
		C55.7,19.8,55.7,19.9,55.7,19.8C55.7,19.9,55.7,19.9,55.7,19.8l1.1,0.1c0,0,0,0,0,0c0,0,0,0,0,0H55.7z M54.9,20.2h-1.1
		c-0.2,0-0.3-0.1-0.3-0.3c0-0.2,0.1-0.3,0.3-0.3h1.1c0.2,0,0.3,0.1,0.3,0.3C55.3,20.1,55.1,20.2,54.9,20.2z M53.8,19.8
		C53.8,19.8,53.8,19.9,53.8,19.8C53.8,19.9,53.8,19.9,53.8,19.8l1.1,0.1c0,0,0,0,0,0c0,0,0,0,0,0H53.8z"/>
</g>
<path class="st4" d="M67.5,61.7c-17,0-30.8-13.6-31.2-30.5H0v-1.5h37.8v0.8c0,16.4,13.3,29.7,29.7,29.7s29.7-13.3,29.7-29.7v-0.8
	H135v1.5H98.7C98.3,48.1,84.5,61.7,67.5,61.7z"/>
<path class="st5" d="M54.8,36.4c-0.9-0.5-1.6-1.1-2.1-1.9c-0.6-0.9-0.9-1.9-0.9-3c0-0.9,0.2-1.7,0.6-2.5c0.3-0.7,0.8-1.2,1.3-1.7
	c-0.5-0.8-0.8-1.8-0.8-2.8c0-1.5,0.6-2.9,1.6-3.9c1-1,2.4-1.6,3.9-1.6c0.4,0,0.9,0.1,1.3,0.1c0.2,0.1,0.4,0.1,0.6,0.2
	c0-1.5,0.6-2.9,1.6-3.8c1-1,2.4-1.6,3.9-1.6s2.9,0.6,3.9,1.6c1,1,1.6,2.3,1.6,3.8h2.1l2.9-2.9c0.1-0.1,0.2-0.1,0.3-0.1v0h3.6
	c0.2-0.5,0.7-0.9,1.2-0.9c0.7,0,1.3,0.6,1.3,1.3c0,0.7-0.6,1.3-1.3,1.3c-0.6,0-1.1-0.4-1.2-0.9h-3.4l-2.9,2.9
	C74.1,19.9,74,20,73.9,20h-2.2l0,6.4h1.9l2.6-2.6c0.1-0.1,0.2-0.1,0.3-0.1v0h2.2c0.2-0.5,0.7-0.9,1.2-0.9c0.7,0,1.3,0.6,1.3,1.3
	c0,0.7-0.6,1.3-1.3,1.3c-0.6,0-1.1-0.4-1.2-0.9h-2L74.1,27c-0.1,0.1-0.2,0.1-0.3,0.1h-2.1l0,3h4.9c0.2-0.5,0.7-0.9,1.2-0.9
	c0.7,0,1.3,0.6,1.3,1.3c0,0.7-0.6,1.3-1.3,1.3c-0.6,0-1.1-0.4-1.2-0.9h-4.9l0,3h2.1c0.1,0,0.2,0,0.3,0.1l2.6,2.6h2.1
	c0.2-0.5,0.7-0.9,1.2-0.9c0.7,0,1.3,0.6,1.3,1.3c0,0.7-0.6,1.3-1.3,1.3c-0.6,0-1.1-0.4-1.2-0.9h-2.3c-0.1,0-0.2,0-0.3-0.1l-2.6-2.6
	h-2l0,6.3h2c0.1,0,0.2,0.1,0.3,0.1l3.1,3h3.5c0.2-0.5,0.7-0.9,1.2-0.9c0.7,0,1.3,0.6,1.3,1.3c0,0.7-0.6,1.3-1.3,1.3
	c-0.6,0-1.1-0.4-1.2-0.9h-3.6v0c-0.1,0-0.2,0-0.3-0.1l-3.1-3h-2.1c0,1.5-0.7,2.8-1.7,3.8c-1,1-2.4,1.7-4,1.7c-1.3,0-2.5-0.5-3.5-1.2
	c-0.9-0.7-1.6-1.7-1.9-2.8c0,0-0.1,0-0.1,0c-1.5,0-2.9-0.6-3.9-1.6c-1-1-1.6-2.4-1.6-3.9C54.6,37.3,54.7,36.8,54.8,36.4L54.8,36.4z
	 M70.9,20h-2.4v3.7c0,0.2-0.2,0.4-0.4,0.4h-1.6c-0.1,0.3-0.2,0.6-0.4,0.8c-0.2,0.2-0.5,0.4-0.8,0.4v3.4c0,0.2-0.2,0.4-0.4,0.4h-1
	c-0.1,0.3-0.2,0.6-0.5,0.8c-0.3,0.3-0.7,0.5-1.2,0.5c-0.5,0-0.9-0.2-1.2-0.5c-0.1-0.1-0.2-0.2-0.2-0.3c-0.3,0.1-0.6,0.2-0.9,0.3
	C59.5,30,59,30,58.6,30c-1.5,0-2.9-0.6-3.9-1.6c-0.1-0.1-0.3-0.3-0.4-0.5c-0.5,0.4-0.8,0.9-1.1,1.4c-0.3,0.7-0.5,1.4-0.5,2.1
	c0,0.9,0.3,1.8,0.8,2.6c0.4,0.6,1,1.2,1.6,1.6c0.3-0.7,0.7-1.3,1.2-1.9c0.9-0.9,2.2-1.5,3.6-1.6c0.1-0.4,0.2-0.9,0.6-1.3
	c0.1-0.2,0.4-0.2,0.6-0.1c0.2,0.1,0.2,0.4,0.1,0.6c-0.3,0.3-0.4,0.8-0.4,1.1c0,0.4,0.1,0.8,0.3,1.1c0.4,0,0.7,0.2,1,0.5
	c0.3,0.3,0.5,0.7,0.5,1.2c0,0.5-0.2,0.9-0.5,1.2c-0.3,0.3-0.7,0.5-1.2,0.5c-0.5,0-0.9-0.2-1.2-0.5c-0.3-0.3-0.5-0.7-0.5-1.2
	c0-0.5,0.2-0.9,0.5-1.2c0.2-0.2,0.3-0.3,0.6-0.4c-0.1-0.2-0.2-0.5-0.2-0.8c-1.2,0.1-2.3,0.6-3.1,1.4c-0.9,0.9-1.4,2.1-1.4,3.4
	c0,1.3,0.5,2.5,1.4,3.4c0.9,0.9,2.1,1.4,3.4,1.4c1.1,0,2.2-0.4,3-1.1c0.7-0.6,1.3-1.4,1.6-2.4c-0.2-0.1-0.4-0.2-0.6-0.4
	c-0.3-0.3-0.5-0.7-0.5-1.2c0-0.5,0.2-0.9,0.5-1.2c0.3-0.3,0.7-0.5,1.2-0.5c0.5,0,0.9,0.2,1.2,0.5c0.2,0.2,0.4,0.5,0.4,0.8h1.1
	c0.2,0,0.4,0.2,0.4,0.4V41h2.4l0-6.3h-2.8c-0.2,0-0.4-0.2-0.4-0.4c0-0.2,0.2-0.4,0.4-0.4h2.8l0-3h-3.7c-0.2,0-0.4-0.2-0.4-0.4
	c0-0.2,0.2-0.4,0.4-0.4h3.7l0-3h-2.8c-0.2,0-0.4-0.2-0.4-0.4c0-0.2,0.2-0.4,0.4-0.4h2.8L70.9,20L70.9,20z M64.5,25.3
	c-0.3-0.1-0.6-0.2-0.8-0.4c-0.2-0.2-0.3-0.4-0.4-0.7c-0.8-0.5-1.5-1.2-2-2c-0.4-0.6-0.6-1.3-0.7-2.1c-0.3-0.1-0.6-0.2-0.9-0.3
	c-0.4-0.1-0.7-0.1-1.1-0.1c-1.3,0-2.5,0.5-3.4,1.4c-0.9,0.9-1.4,2.1-1.4,3.4c0,1.3,0.5,2.5,1.4,3.4c0.9,0.9,2.1,1.4,3.4,1.4
	c0.4,0,0.8,0,1.1-0.1c0.3-0.1,0.5-0.2,0.8-0.3c0-0.1,0-0.1,0-0.2c0-0.5,0.2-0.9,0.5-1.2c0.3-0.3,0.7-0.5,1.2-0.5
	c0.5,0,0.9,0.2,1.2,0.5c0.2,0.2,0.4,0.5,0.5,0.8h0.6V25.3L64.5,25.3z M67,37.9c-0.1,0.3-0.2,0.6-0.4,0.8c-0.2,0.2-0.6,0.4-0.9,0.5
	c-0.3,1.2-1,2.2-1.9,2.9c-0.7,0.6-1.6,1-2.6,1.2c0.3,0.9,0.9,1.7,1.6,2.3c0.8,0.7,1.9,1.1,3,1.1c1.3,0,2.6-0.5,3.4-1.4
	c0.8-0.8,1.4-2,1.4-3.3h-2.6c-0.2,0-0.4-0.2-0.4-0.4v-3.6H67L67,37.9z M70.9,19.2c0-1.3-0.6-2.4-1.4-3.2c-0.9-0.9-2.1-1.4-3.4-1.4
	c-1.3,0-2.5,0.5-3.4,1.4c-0.9,0.9-1.4,2.1-1.4,3.4c0,0.9,0.2,1.7,0.7,2.4c0.3,0.6,0.8,1,1.3,1.4c0.1-0.3,0.2-0.5,0.4-0.7
	c0.3-0.3,0.7-0.5,1.2-0.5c0.5,0,0.9,0.2,1.2,0.5c0.2,0.2,0.4,0.5,0.4,0.8h1.2v-3.7c0-0.2,0.2-0.4,0.4-0.4H70.9L70.9,19.2z M62.9,28
	c-0.2-0.2-0.4-0.3-0.6-0.3s-0.5,0.1-0.6,0.3c-0.2,0.2-0.3,0.4-0.3,0.6c0,0.3,0.1,0.5,0.3,0.6c0.2,0.2,0.4,0.3,0.6,0.3
	c0.3,0,0.5-0.1,0.6-0.3c0.2-0.2,0.3-0.4,0.3-0.6C63.1,28.4,63,28.2,62.9,28L62.9,28z M66,36.9c-0.2-0.2-0.4-0.2-0.6-0.2
	c-0.2,0-0.4,0.1-0.6,0.2c-0.2,0.2-0.2,0.4-0.2,0.6c0,0.2,0.1,0.4,0.2,0.6c0.2,0.2,0.4,0.2,0.6,0.2c0.2,0,0.4-0.1,0.6-0.2
	c0.2-0.2,0.2-0.4,0.2-0.6C66.2,37.2,66.2,37,66,36.9L66,36.9z M61.4,34.6c-0.2-0.2-0.4-0.3-0.6-0.3c-0.2,0-0.5,0.1-0.6,0.3
	c-0.2,0.2-0.3,0.4-0.3,0.6c0,0.2,0.1,0.5,0.3,0.6c0.2,0.2,0.4,0.3,0.6,0.3c0.2,0,0.5-0.1,0.6-0.3c0.2-0.2,0.3-0.4,0.3-0.6
	C61.6,35,61.5,34.8,61.4,34.6L61.4,34.6z M65.5,23.1c-0.2-0.2-0.4-0.3-0.6-0.3c-0.2,0-0.4,0.1-0.6,0.3c-0.2,0.2-0.3,0.4-0.3,0.6
	c0,0.2,0.1,0.4,0.3,0.6c0.2,0.2,0.4,0.3,0.6,0.3c0.2,0,0.4-0.1,0.6-0.3c0.2-0.2,0.3-0.4,0.3-0.6C65.7,23.4,65.6,23.2,65.5,23.1z"/>
<g>
	<path class="st6" d="M67.5,30.5l-6.7-6.7c-0.2-0.2-0.5-0.2-0.7,0L58.8,25c-0.2,0.2-0.2,0.5,0,0.7l3.6,3.6h-14
		c-0.3,0-0.5,0.2-0.5,0.5v1.6c0,0.3,0.2,0.5,0.5,0.5h14l-3.6,3.6c-0.2,0.2-0.2,0.5,0,0.7l1.2,1.2c0.2,0.2,0.5,0.2,0.7,0L67.5,30.5z"
		/>
	<path class="st6" d="M71.1,16.1h3.1c0.5,0,0.9,0.4,0.9,0.9v2c1.4,0.3,2.8,0.9,4,1.7l1.4-1.4c0.3-0.3,0.9-0.3,1.3,0l2.2,2.2
		c0.3,0.3,0.3,0.9,0,1.3l-1.4,1.4c0.8,1.2,1.3,2.5,1.7,4h2c0.5,0,0.9,0.4,0.9,0.9v3.1c0,0.5-0.4,0.9-0.9,0.9h-2
		c-0.3,1.4-0.9,2.8-1.7,4l1.4,1.4c0.3,0.3,0.3,0.9,0,1.3l-2.2,2.2c-0.3,0.3-0.9,0.3-1.3,0l-1.4-1.4c-1.2,0.8-2.5,1.3-4,1.7v2
		c0,0.5-0.4,0.9-0.9,0.9h-3.1c-0.5,0-0.9-0.4-0.9-0.9v-2c-1.4-0.3-2.8-0.9-4-1.7l-1.4,1.4c-0.3,0.3-0.9,0.3-1.3,0l-2.1-2.1l4.4-4.4
		c1.5,2.1,4,3.5,6.8,3.5c4.6,0,8.3-3.7,8.3-8.3c0-4.6-3.7-8.3-8.3-8.3c-2.8,0-5.3,1.4-6.8,3.5l-4.4-4.4l2.1-2.1
		c0.3-0.3,0.9-0.3,1.3,0l1.4,1.4c1.2-0.8,2.5-1.3,4-1.7v-2C70.2,16.5,70.6,16.1,71.1,16.1z"/>
</g>
<g class="st1">
	<ellipse transform="matrix(0.9872 -0.1594 0.1594 0.9872 -4.5231 11.2337)" class="st2" cx="67.7" cy="33.8" rx="2.1" ry="2.1"/>
	<path class="st2" d="M68.2,43.1c0-1.6,0-3.3,0-4.9c0,0,0.1,0,0.1,0v0l1.1,1l1.1-0.5l-0.1-1.4l0,0c0.3-0.2,0.6-0.5,0.8-0.8l0,0
		l1.5,0l0.5-1.1l-1.1-1c0-0.2,0-0.4,0-0.6c0-0.2,0-0.4,0-0.6h0l1-1.1L72.7,31l-1.4,0.1l0,0c-0.2-0.3-0.5-0.6-0.8-0.8l0,0l0-1.5
		l-1.1-0.5l-1,1.1c0,0-0.1,0-0.1,0c0-3,0-6.1,0-9.1c0-2,1.8-3.6,3.6-3.6c1.8,0,3.1,1.2,3.5,2.7c2.1,0.7,3.6,2.7,3.6,5.1
		c0,0.1,0,0.2,0,0.2c1.5,1.1,2.4,2.8,2.4,4.8c0,0.1,0,0.1,0,0.2h-5.2l-2.6-2.2V24c0.3-0.1,0.6-0.2,0.9-0.5c0.3-0.3,0.5-0.8,0.5-1.3
		c0-0.5-0.2-0.9-0.5-1.3c-0.3-0.3-0.8-0.5-1.3-0.5c-0.5,0-0.9,0.2-1.3,0.5c-0.3,0.3-0.5,0.8-0.5,1.3c0,0.5,0.2,0.9,0.5,1.3
		c0.2,0.2,0.5,0.4,0.9,0.5v3.8l3.1,2.6h5.4c-0.1,0.9-0.5,1.7-1,2.5c0.2,0.3,0.4,0.7,0.5,1h-2c-0.1-0.3-0.2-0.6-0.5-0.9
		c-0.3-0.3-0.8-0.5-1.3-0.5c-0.5,0-0.9,0.2-1.3,0.5c-0.3,0.3-0.5,0.8-0.5,1.3c0,0.5,0.2,0.9,0.5,1.3c0.3,0.3,0.8,0.5,1.3,0.5
		c0.5,0,0.9-0.2,1.3-0.5c0.2-0.2,0.4-0.5,0.5-0.9h2.2c0.2,0.6,0.3,1.3,0.3,2c0,0.5-0.1,1-0.1,1.5h-5.7l-1.7,1.7
		c-0.3-0.2-0.6-0.3-0.9-0.3c-0.5,0-0.9,0.2-1.3,0.5c-0.3,0.3-0.5,0.8-0.5,1.3c0,0.5,0.2,0.9,0.5,1.3c0.3,0.3,0.8,0.5,1.3,0.5
		c0.5,0,0.9-0.2,1.3-0.5c0.3-0.3,0.5-0.8,0.5-1.3c0-0.4-0.1-0.7-0.3-1l1.5-1.4H81c-0.8,2.6-3,4.5-5.7,5c-0.4,1.6-1.7,2.8-3.5,2.8
		S68.2,45.1,68.2,43.1L68.2,43.1z M73.3,21.3c-0.3,0-0.5,0.1-0.7,0.3c-0.2,0.2-0.3,0.4-0.3,0.7c0,0.3,0.1,0.5,0.3,0.7
		c0.2,0.2,0.4,0.3,0.7,0.3c0.3,0,0.5-0.1,0.7-0.3c0.2-0.2,0.3-0.4,0.3-0.7c0-0.3-0.1-0.5-0.3-0.7C73.8,21.4,73.5,21.3,73.3,21.3
		L73.3,21.3z M77.2,33.3c-0.3,0-0.5,0.1-0.7,0.3c-0.2,0.2-0.3,0.4-0.3,0.7c0,0.3,0.1,0.5,0.3,0.7c0.2,0.2,0.4,0.3,0.7,0.3
		c0.3,0,0.5-0.1,0.7-0.3c0.2-0.2,0.3-0.4,0.3-0.7c0-0.3-0.1-0.5-0.3-0.7C77.7,33.4,77.4,33.3,77.2,33.3L77.2,33.3z M72.8,40.3
		c-0.3,0-0.5,0.1-0.7,0.3c-0.2,0.2-0.3,0.4-0.3,0.7c0,0.3,0.1,0.5,0.3,0.7c0.2,0.2,0.4,0.3,0.7,0.3c0.3,0,0.5-0.1,0.7-0.3
		c0.2-0.2,0.3-0.4,0.3-0.7c0-0.3-0.1-0.5-0.3-0.7C73.3,40.4,73.1,40.3,72.8,40.3z"/>
	<path class="st2" d="M81.2,38.1H84l2.7,2.2v1.4c0.3,0.1,0.6,0.2,0.9,0.5c0.3,0.3,0.5,0.8,0.5,1.3c0,0.5-0.2,0.9-0.5,1.3
		c-0.3,0.3-0.8,0.5-1.3,0.5c-0.5,0-0.9-0.2-1.3-0.5c-0.3-0.3-0.5-0.8-0.5-1.3c0-0.5,0.2-0.9,0.5-1.3c0.2-0.2,0.5-0.4,0.9-0.5v-1
		l-2.2-1.8H81C81.1,38.7,81.2,38.4,81.2,38.1L81.2,38.1z M80.9,33.9h2.9l2.2-1.8V27c-0.3-0.1-0.6-0.2-0.9-0.5
		c-0.3-0.3-0.5-0.8-0.5-1.3c0-0.5,0.2-0.9,0.5-1.3c0.3-0.3,0.8-0.5,1.3-0.5c0.5,0,0.9,0.2,1.3,0.5c0.3,0.3,0.5,0.8,0.5,1.3
		c0,0.5-0.2,0.9-0.5,1.3c-0.2,0.2-0.5,0.4-0.9,0.5v5.5L84,34.7h-2.9C81.1,34.4,81,34.2,80.9,33.9L80.9,33.9z M82.2,17.1
		c-0.3,0.3-0.5,0.8-0.5,1.3c0,0.5,0.2,0.9,0.5,1.3c0.2,0.2,0.5,0.4,0.9,0.5v8.8l-0.9,0.7h-0.7c0,0.3,0,0.5-0.1,0.8h1.1l1.4-1.2v-9.2
		c0.3-0.1,0.6-0.2,0.9-0.5c0.3-0.3,0.5-0.8,0.5-1.3c0-0.5-0.2-0.9-0.5-1.3c-0.3-0.3-0.8-0.5-1.3-0.5C82.9,16.6,82.5,16.8,82.2,17.1
		L82.2,17.1z M86.3,42.5c-0.3,0-0.5,0.1-0.7,0.3c-0.2,0.2-0.3,0.4-0.3,0.7c0,0.3,0.1,0.5,0.3,0.7c0.2,0.2,0.4,0.3,0.7,0.3
		c0.3,0,0.5-0.1,0.7-0.3c0.2-0.2,0.3-0.4,0.3-0.7c0-0.3-0.1-0.5-0.3-0.7C86.8,42.6,86.6,42.5,86.3,42.5L86.3,42.5z M86.3,24.3
		c-0.3,0-0.5,0.1-0.7,0.3c-0.2,0.2-0.3,0.4-0.3,0.7c0,0.3,0.1,0.5,0.3,0.7c0.2,0.2,0.4,0.3,0.7,0.3c0.3,0,0.5-0.1,0.7-0.3
		c0.2-0.2,0.3-0.4,0.3-0.7c0-0.3-0.1-0.5-0.3-0.7C86.8,24.4,86.6,24.3,86.3,24.3L86.3,24.3z M83.4,17.4c0.3,0,0.5,0.1,0.7,0.3
		c0.2,0.2,0.3,0.4,0.3,0.7c0,0.3-0.1,0.5-0.3,0.7c-0.2,0.2-0.4,0.3-0.7,0.3c-0.3,0-0.5-0.1-0.7-0.3c-0.2-0.2-0.3-0.4-0.3-0.7
		c0-0.3,0.1-0.5,0.3-0.7C82.9,17.5,83.1,17.4,83.4,17.4z"/>
	<path class="st2" d="M67.3,43.1c0-1.6,0-3.3,0-4.9c0,0-0.1,0-0.1,0v0l-1.1,1L65,38.8l0.1-1.4l0,0c-0.3-0.2-0.6-0.5-0.8-0.8l0,0
		l-1.5,0l-0.5-1.1l1.1-1c0-0.2,0-0.4,0-0.6c0-0.2,0-0.4,0-0.6h0l-1-1.1l0.5-1.1l1.4,0.1l0,0c0.2-0.3,0.5-0.6,0.8-0.8l0,0l0-1.5
		l1.1-0.5l1,1.1c0,0,0.1,0,0.1,0c0-3,0-6.1,0-9.1c0-2-1.8-3.6-3.6-3.6c-1.8,0-3.1,1.2-3.5,2.7c-2.1,0.7-3.6,2.7-3.6,5.1
		c0,0.1,0,0.2,0,0.2c-1.5,1.1-2.4,2.8-2.4,4.8c0,0,0,0,0,0.1h5.5l2.6-2.2V24c-0.3-0.1-0.6-0.2-0.9-0.5c-0.3-0.3-0.5-0.8-0.5-1.3
		c0-0.5,0.2-0.9,0.5-1.3c0.3-0.3,0.8-0.5,1.3-0.5c0.5,0,0.9,0.2,1.3,0.5c0.3,0.3,0.5,0.8,0.5,1.3c0,0.5-0.2,0.9-0.5,1.3
		c-0.2,0.2-0.5,0.4-0.9,0.5v3.8l-3.1,2.6h-5.7c0.1,0.9,0.5,1.8,1,2.5c-0.2,0.3-0.3,0.6-0.5,0.9h2.2c0.1-0.3,0.2-0.6,0.5-0.9
		c0.3-0.3,0.8-0.5,1.3-0.5c0.5,0,0.9,0.2,1.3,0.5c0.3,0.3,0.5,0.8,0.5,1.3c0,0.5-0.2,0.9-0.5,1.3c-0.3,0.3-0.8,0.5-1.3,0.5
		c-0.5,0-0.9-0.2-1.3-0.5c-0.2-0.2-0.4-0.5-0.5-0.9h-2.5c-0.2,0.7-0.3,1.4-0.3,2.1c0,0.5,0,0.9,0.1,1.4h6.1l1.7,1.7
		c0.3-0.2,0.6-0.3,0.9-0.3c0.5,0,0.9,0.2,1.3,0.5c0.3,0.3,0.5,0.8,0.5,1.3c0,0.5-0.2,0.9-0.5,1.3C63.9,42.8,63.4,43,63,43
		c-0.5,0-0.9-0.2-1.3-0.5c-0.3-0.3-0.5-0.8-0.5-1.3c0-0.4,0.1-0.7,0.3-1L60,38.8h-5.6c0.8,2.6,3,4.6,5.7,5.1
		c0.4,1.6,1.7,2.8,3.5,2.8C65.5,46.8,67.3,45.2,67.3,43.1L67.3,43.1z M63.7,40.5c0.2,0.2,0.3,0.4,0.3,0.7c0,0.3-0.1,0.5-0.3,0.7
		c-0.2,0.2-0.4,0.3-0.7,0.3c-0.3,0-0.5-0.1-0.7-0.3c-0.2-0.2-0.3-0.4-0.3-0.7c0-0.3,0.1-0.5,0.3-0.7c0.2-0.2,0.4-0.3,0.7-0.3
		C63.2,40.2,63.5,40.4,63.7,40.5L63.7,40.5z M59.3,33.5c0.2,0.2,0.3,0.4,0.3,0.7c0,0.3-0.1,0.5-0.3,0.7s-0.4,0.3-0.7,0.3
		c-0.3,0-0.5-0.1-0.7-0.3c-0.2-0.2-0.3-0.4-0.3-0.7c0-0.3,0.1-0.5,0.3-0.7c0.2-0.2,0.4-0.3,0.7-0.3C58.9,33.2,59.1,33.3,59.3,33.5
		L59.3,33.5z M63.2,21.5c0.2,0.2,0.3,0.4,0.3,0.7c0,0.3-0.1,0.5-0.3,0.7c-0.2,0.2-0.4,0.3-0.7,0.3c-0.3,0-0.5-0.1-0.7-0.3
		c-0.2-0.2-0.3-0.4-0.3-0.7c0-0.3,0.1-0.5,0.3-0.7c0.2-0.2,0.4-0.3,0.7-0.3C62.8,21.2,63,21.4,63.2,21.5z"/>
</g>
</svg>
