<?xml version="1.0" encoding="utf-8"?>
<!-- Generator: Adobe Illustrator 25.2.1, SVG Export Plug-In . SVG Version: 6.00 Build 0)  -->
<svg version="1.1" id="Layer_1" xmlns="http://www.w3.org/2000/svg" xmlns:xlink="http://www.w3.org/1999/xlink" x="0px" y="0px"
	 viewBox="0 0 135 65" style="enable-background:new 0 0 135 65;" xml:space="preserve">
<style type="text/css">
	.st0{fill-rule:evenodd;clip-rule:evenodd;fill:#27376E;}
	.st1{fill-rule:evenodd;clip-rule:evenodd;fill:#6A8DC4;}
	.st2{fill:#6A8DC4;}
	.st3{fill:#27376E;}
</style>
<g>
	<circle class="st0" cx="67.5" cy="30.5" r="27.3"/>
	<g>
		<path class="st1" d="M52.3,17.9h30.5c0.1,0,0.2,0.1,0.2,0.2V39c0,0.1-0.1,0.2-0.2,0.2H71.2l1.3,3.4h3.1c0.1,0,0.2,0.1,0.2,0.2
			c0,0.1-0.1,0.2-0.2,0.2H59.4c-0.1,0-0.2-0.1-0.2-0.2c0-0.1,0.1-0.2,0.2-0.2h3.2l1.3-3.4H52.3c-0.1,0-0.2-0.1-0.2-0.2V18
			C52.1,17.9,52.2,17.9,52.3,17.9L52.3,17.9z M57.7,20.1h1.1c0.1,0,0.2-0.1,0.2-0.2c0-0.1-0.1-0.2-0.2-0.2h-1.1
			c-0.1,0-0.2,0.1-0.2,0.2C57.5,20,57.6,20.1,57.7,20.1L57.7,20.1z M55.7,20.1h1.1c0.1,0,0.2-0.1,0.2-0.2c0-0.1-0.1-0.2-0.2-0.2
			h-1.1c-0.1,0-0.2,0.1-0.2,0.2C55.6,20,55.6,20.1,55.7,20.1L55.7,20.1z M53.8,20.1h1.1c0.1,0,0.2-0.1,0.2-0.2
			c0-0.1-0.1-0.2-0.2-0.2h-1.1c-0.1,0-0.2,0.1-0.2,0.2C53.6,20,53.7,20.1,53.8,20.1L53.8,20.1z M77.5,23h1.4l-4.3,4.3L72.4,25
			c-0.1-0.1-0.2-0.1-0.3,0l-3.1,3.1c-0.1,0.1-0.1,0.2,0,0.3c0.1,0.1,0.2,0.1,0.3,0l2.9-2.9l2.3,2.3c0.1,0.1,0.2,0.1,0.3,0l4.4-4.4
			v1.4c0,0.1,0.1,0.2,0.2,0.2c0.1,0,0.2-0.1,0.2-0.2v-1.9c0,0,0-0.1,0-0.1l0,0l0,0l0,0l0,0l0,0c0,0,0,0,0,0l0,0l0,0l0,0l0,0l0,0l0,0
			l0,0l0,0l0,0l0,0l0,0l0,0l0,0l0,0l0,0l0,0l0,0l0,0l0,0l0,0l0,0l0,0l0,0l0,0l0,0l0,0l0,0l0,0l0,0l0,0l0,0l0,0l0,0l0,0l0,0l0,0l0,0
			l0,0l0,0l0,0l0,0l0,0l0,0l0,0c0,0,0,0-0.1,0h-1.9c-0.1,0-0.2,0.1-0.2,0.2C77.3,22.9,77.4,23,77.5,23L77.5,23z M79.2,26.7v6.4
			c0,0.1,0.1,0.2,0.2,0.2c0.1,0,0.2-0.1,0.2-0.2v-6.4c0-0.1-0.1-0.2-0.2-0.2C79.3,26.5,79.2,26.6,79.2,26.7L79.2,26.7z M76.8,28.1v5
			c0,0.1,0.1,0.2,0.2,0.2c0.1,0,0.2-0.1,0.2-0.2v-5c0-0.1-0.1-0.2-0.2-0.2C76.9,27.9,76.8,28,76.8,28.1L76.8,28.1z M74.4,29.5v3.6
			c0,0.1,0.1,0.2,0.2,0.2c0.1,0,0.2-0.1,0.2-0.2v-3.6c0-0.1-0.1-0.2-0.2-0.2C74.5,29.3,74.4,29.4,74.4,29.5L74.4,29.5z M72,28.1v5
			c0,0.1,0.1,0.2,0.2,0.2c0.1,0,0.2-0.1,0.2-0.2v-5c0-0.1-0.1-0.2-0.2-0.2C72.1,27.9,72,28,72,28.1L72,28.1z M69.7,29.5v3.5
			c0,0.1,0.1,0.2,0.2,0.2c0.1,0,0.2-0.1,0.2-0.2v-3.5c0-0.1-0.1-0.2-0.2-0.2C69.7,29.4,69.7,29.4,69.7,29.5L69.7,29.5z M60.9,26.9
			c0,0.1,0.1,0.2,0.2,0.2h4.6c0.1,0,0.2-0.1,0.2-0.2c0-1.3-0.5-2.5-1.4-3.4c-0.9-0.9-2.1-1.4-3.4-1.4c-0.1,0-0.2,0.1-0.2,0.2V26.9
			L60.9,26.9z M61.3,22.5v4.2h4.2c0-1.1-0.5-2.2-1.3-2.9C63.4,23,62.4,22.5,61.3,22.5L61.3,22.5z M60.4,27.9v-4.4
			c0-0.1-0.1-0.2-0.2-0.2c-1.3,0-2.5,0.5-3.4,1.4c-0.9,0.9-1.4,2.1-1.4,3.4c0,1.3,0.5,2.5,1.4,3.4c0.9,0.9,2.1,1.4,3.4,1.4
			s2.5-0.5,3.4-1.4c0.9-0.9,1.4-2.1,1.4-3.4c0-0.1-0.1-0.2-0.2-0.2H60.4L60.4,27.9z M64.6,28.3h-4.4c-0.1,0-0.2-0.1-0.2-0.2v-4.4
			c-1.1,0-2.2,0.5-2.9,1.3c-0.8,0.8-1.3,1.9-1.3,3.1c0,1.2,0.5,2.3,1.3,3.1c0.8,0.8,1.9,1.3,3.1,1.3c1.2,0,2.3-0.5,3.1-1.3
			C64.1,30.4,64.5,29.4,64.6,28.3L64.6,28.3z M52.4,21.2h30.1v-3H52.4V21.2L52.4,21.2z M82.6,21.5H52.4v12.9h30.1V21.5L82.6,21.5z
			 M82.6,34.8H52.4v4h30.1V34.8L82.6,34.8z M70.8,39.1h-6.5L63,42.6h9.1L70.8,39.1L70.8,39.1z M67.5,36.2c-0.3,0-0.6,0.2-0.6,0.6
			c0,0.3,0.2,0.6,0.6,0.6c0.3,0,0.6-0.2,0.6-0.6C68,36.5,67.8,36.2,67.5,36.2L67.5,36.2z M66.6,36.8c0,0.5,0.4,0.9,0.9,0.9
			c0.5,0,0.9-0.4,0.9-0.9c0-0.5-0.4-0.9-0.9-0.9C67,35.9,66.6,36.3,66.6,36.8z"/>
		<path class="st2" d="M75.6,43.1H59.4c-0.2,0-0.3-0.1-0.3-0.3s0.1-0.3,0.3-0.3h3.1l1.2-3.1H52.3c-0.2,0-0.3-0.1-0.3-0.3V18
			c0-0.2,0.1-0.3,0.3-0.3h30.5c0.2,0,0.3,0.1,0.3,0.3V39c0,0.2-0.1,0.3-0.3,0.3H71.4l1.2,3.1h3c0.2,0,0.3,0.1,0.3,0.3
			S75.7,43.1,75.6,43.1z M59.4,42.7C59.4,42.7,59.4,42.7,59.4,42.7C59.4,42.8,59.4,42.8,59.4,42.7l16.1,0.1c0,0,0,0,0,0c0,0,0,0,0,0
			h-3.2L70.9,39h11.8c0,0,0,0,0,0V18c0,0,0,0,0,0H52.3c0,0,0,0,0,0V39c0,0,0,0,0,0h11.9l-1.4,3.7H59.4z M72.3,42.7h-9.5l1.4-3.7h6.7
			L72.3,42.7z M63.2,42.4h8.7l-1.2-3.1h-6.3L63.2,42.4z M82.7,38.9H52.3v-4.3h30.4V38.9z M52.6,38.6h29.8V35H52.6V38.6z M67.5,37.9
			c-0.6,0-1.1-0.5-1.1-1.1c0-0.6,0.5-1.1,1.1-1.1c0.6,0,1.1,0.5,1.1,1.1C68.5,37.4,68.1,37.9,67.5,37.9z M67.5,36
			c-0.4,0-0.8,0.3-0.8,0.8s0.3,0.8,0.8,0.8c0.4,0,0.8-0.3,0.8-0.8S67.9,36,67.5,36z M67.5,37.5c-0.4,0-0.7-0.3-0.7-0.7
			c0-0.4,0.3-0.7,0.7-0.7s0.7,0.3,0.7,0.7C68.2,37.2,67.9,37.5,67.5,37.5z M67.5,36.4c-0.2,0-0.4,0.2-0.4,0.4s0.2,0.4,0.4,0.4
			c0.2,0,0.4-0.2,0.4-0.4S67.7,36.4,67.5,36.4z M82.7,34.6H52.3V21.4h30.4V34.6z M52.6,34.3h29.8V21.7H52.6V34.3z M79.4,33.4
			c-0.2,0-0.3-0.1-0.3-0.3v-6.4c0-0.2,0.1-0.3,0.3-0.3s0.3,0.1,0.3,0.3v6.4C79.7,33.3,79.5,33.4,79.4,33.4z M79.4,26.7
			C79.3,26.7,79.3,26.7,79.4,26.7l0,6.4c0,0,0.1,0,0.1,0L79.4,26.7C79.4,26.7,79.4,26.7,79.4,26.7z M77,33.4c-0.2,0-0.3-0.1-0.3-0.3
			v-5c0-0.2,0.1-0.3,0.3-0.3s0.3,0.1,0.3,0.3v5C77.3,33.3,77.2,33.4,77,33.4z M77,28C77,28,77,28.1,77,28l0,5c0,0,0.1,0,0.1,0L77,28
			C77,28.1,77,28,77,28z M74.6,33.4c-0.2,0-0.3-0.1-0.3-0.3v-3.6c0-0.2,0.1-0.3,0.3-0.3s0.3,0.1,0.3,0.3v3.6
			C74.9,33.3,74.8,33.4,74.6,33.4z M74.6,29.4C74.6,29.4,74.6,29.4,74.6,29.4l0,3.7c0,0,0.1,0,0.1,0L74.6,29.4
			C74.6,29.4,74.6,29.4,74.6,29.4z M72.2,33.4c-0.2,0-0.3-0.1-0.3-0.3v-5c0-0.2,0.1-0.3,0.3-0.3s0.3,0.1,0.3,0.3v5
			C72.6,33.3,72.4,33.4,72.2,33.4z M72.2,28.1C72.2,28.1,72.2,28.1,72.2,28.1l0,5c0,0,0.1,0,0.1,0L72.2,28.1
			C72.3,28.1,72.2,28.1,72.2,28.1z M69.8,33.4c-0.2,0-0.3-0.1-0.3-0.3v-3.5c0-0.2,0.1-0.3,0.3-0.3s0.3,0.1,0.3,0.3v3.5
			C70.2,33.3,70,33.4,69.8,33.4z M69.8,29.5C69.8,29.5,69.8,29.5,69.8,29.5l0,3.6c0,0,0.1,0,0.1,0L69.8,29.5
			C69.9,29.5,69.9,29.5,69.8,29.5z M60.2,33c-1.3,0-2.5-0.5-3.5-1.4c-0.9-0.9-1.4-2.2-1.4-3.5c0-1.3,0.5-2.5,1.4-3.5
			c0.9-0.9,2.2-1.4,3.5-1.4c0.2,0,0.3,0.1,0.3,0.3v4.2h4.2c0.2,0,0.3,0.1,0.3,0.3c0,1.3-0.5,2.5-1.4,3.5C62.7,32.5,61.5,33,60.2,33z
			 M60.2,23.5c-1.2,0-2.4,0.5-3.3,1.3c-0.9,0.9-1.3,2-1.3,3.3c0,1.2,0.5,2.4,1.3,3.3c0.9,0.9,2,1.3,3.3,1.3c1.2,0,2.4-0.5,3.3-1.3
			c0.9-0.9,1.3-2,1.3-3.3c0,0,0,0,0,0h-4.5L60.2,23.5C60.2,23.5,60.2,23.5,60.2,23.5z M60.2,32.6c-1.2,0-2.4-0.5-3.2-1.3
			c-0.9-0.9-1.3-2-1.3-3.2c0-1.2,0.5-2.4,1.3-3.2c0.8-0.8,1.9-1.3,3-1.3l0.2,0v4.5c0,0,0,0,0,0h4.5l0,0.2c0,1.1-0.5,2.2-1.3,3
			C62.5,32.2,61.4,32.6,60.2,32.6z M59.9,23.9c-1,0.1-1.9,0.5-2.7,1.2c-0.8,0.8-1.2,1.9-1.2,3c0,1.1,0.4,2.2,1.2,3
			c0.8,0.8,1.9,1.2,3,1.2c1.1,0,2.2-0.4,3-1.2c0.7-0.7,1.2-1.7,1.2-2.7h-4.2c-0.2,0-0.3-0.1-0.3-0.3V23.9z M69.2,28.5
			c-0.1,0-0.2,0-0.2-0.1c-0.1-0.1-0.1-0.3,0-0.5l3.1-3.1c0.1-0.1,0.3-0.1,0.5,0l2.2,2.2l3.9-3.9h-1.1c-0.2,0-0.3-0.1-0.3-0.3
			s0.1-0.3,0.3-0.3h1.9c0,0,0.1,0,0.1,0l0.1,0.1l0.1,0.1c0,0,0,0,0,0c0,0.1,0,0.1,0,0.1v1.9c0,0.2-0.1,0.3-0.3,0.3S79,24.9,79,24.7
			v-1.1l-4.1,4.1c-0.1,0.1-0.3,0.1-0.5,0l-2.2-2.2l-2.8,2.8C69.4,28.5,69.3,28.5,69.2,28.5z M72.3,25.1
			C72.3,25.1,72.2,25.1,72.3,25.1l-3.1,3.1c0,0,0,0,0,0c0,0,0,0,0,0L72.3,25.1l2.4,2.4c0,0,0,0,0,0l4.7-4.7v1.8c0,0,0.1,0,0.1,0
			l0-1.9l0,0l-1.9,0c0,0,0,0,0,0c0,0,0,0,0,0h1.8l-4.6,4.6L72.3,25.1C72.3,25.1,72.3,25.1,72.3,25.1z M65.7,27.2h-4.6
			c-0.2,0-0.3-0.1-0.3-0.3v-4.6c0-0.2,0.1-0.3,0.3-0.3c1.3,0,2.5,0.5,3.5,1.4c0.9,0.9,1.4,2.2,1.4,3.5C66,27.1,65.8,27.2,65.7,27.2z
			 M61.1,22.3C61.1,22.3,61,22.3,61.1,22.3l0,4.6c0,0,0,0,0,0h4.6c0,0,0,0,0,0c0-1.2-0.5-2.4-1.3-3.3C63.5,22.8,62.3,22.3,61.1,22.3
			z M65.6,26.8h-4.5v-4.5l0.2,0c1.1,0,2.2,0.5,3,1.3c0.8,0.8,1.3,1.9,1.3,3L65.6,26.8z M61.4,26.5h3.9c-0.1-1-0.5-1.9-1.2-2.7
			c-0.7-0.7-1.7-1.2-2.7-1.2V26.5z M82.7,21.3H52.3v-3.3h30.4V21.3z M52.6,21h29.8v-2.7H52.6V21z M58.8,20.2h-1.1
			c-0.2,0-0.3-0.1-0.3-0.3c0-0.2,0.1-0.3,0.3-0.3h1.1c0.2,0,0.3,0.1,0.3,0.3C59.1,20.1,59,20.2,58.8,20.2z M57.7,19.8
			C57.6,19.8,57.6,19.9,57.7,19.8C57.6,19.9,57.6,19.9,57.7,19.8l1.1,0.1c0,0,0,0,0,0c0,0,0,0,0,0H57.7z M56.9,20.2h-1.1
			c-0.2,0-0.3-0.1-0.3-0.3c0-0.2,0.1-0.3,0.3-0.3h1.1c0.2,0,0.3,0.1,0.3,0.3C57.2,20.1,57,20.2,56.9,20.2z M55.7,19.8
			C55.7,19.8,55.7,19.9,55.7,19.8C55.7,19.9,55.7,19.9,55.7,19.8l1.1,0.1c0,0,0,0,0,0c0,0,0,0,0,0H55.7z M54.9,20.2h-1.1
			c-0.2,0-0.3-0.1-0.3-0.3c0-0.2,0.1-0.3,0.3-0.3h1.1c0.2,0,0.3,0.1,0.3,0.3C55.3,20.1,55.1,20.2,54.9,20.2z M53.8,19.8
			C53.8,19.8,53.8,19.9,53.8,19.8C53.8,19.9,53.8,19.9,53.8,19.8l1.1,0.1c0,0,0,0,0,0c0,0,0,0,0,0H53.8z"/>
	</g>
	<path class="st3" d="M67.5,61.7c-17,0-30.8-13.6-31.2-30.5H0v-1.5h37.8v0.8c0,16.4,13.3,29.7,29.7,29.7s29.7-13.3,29.7-29.7v-0.8
		H135v1.5H98.7C98.3,48.1,84.5,61.7,67.5,61.7z"/>
</g>
</svg>
